<?xml version="1.0" encoding="UTF-8"?>
<svg id="Layer_1" xmlns="http://www.w3.org/2000/svg" width="437.64" height="169.23" viewBox="0 0 437.64 169.23">
  <defs>
    <style>
      .cls-1 {
        fill: #fff;
        stroke: #f15725;
      }

      .cls-1, .cls-2 {
        stroke-miterlimit: 10;
      }

      .cls-2 {
        fill: none;
        stroke: #4a95d0;
      }
    </style>
  </defs>
  <path class="cls-2" d="M43.83,57.65c-.29.8-.58,1.6-.87,2.4-5.71-2.35-16.94-3.83-12.33-12.48,4.07,1.49,15.55,3.6,13.2,10.07Z"/>
  <path class="cls-2" d="M40.75,50.41c-3.57-1.31-7.15-2.62-10.72-3.93-5.6,10.28,6.56,11.87,13.51,14.67,2.2-3.85,2.06-9.15-2.79-10.73ZM42.39,58.96c-4.62-2.13-14.64-2.97-11.15-10.29,4.58,2.13,14.8,2.99,11.15,10.29Z"/>
  <path class="cls-2" d="M43.83,49.3c-.29.8-.58,1.6-.87,2.4-5.71-2.35-16.94-3.83-12.33-12.48,4.07,1.49,15.55,3.6,13.2,10.07Z"/>
  <path class="cls-2" d="M40.75,42.06c-3.53-1.29-7.33-2.36-10.72-3.98-5.57,10.33,6.49,11.9,13.51,14.71,2.2-3.85,2.06-9.15-2.79-10.73ZM42.39,50.61c-4.61-2.13-14.64-2.97-11.15-10.29,4.58,2.13,14.8,2.99,11.15,10.29Z"/>
  <path class="cls-2" d="M43.83,41.28c-.29.8-.58,1.6-.87,2.4-6.97-2.51-17.3-4.45-11.25-13.95,3.58,4.02,13.65,4.75,12.12,11.55Z"/>
  <path class="cls-2" d="M41.03,34.64c-3.44-1.7-6.64-3.85-9.53-6.37-8.15,11.15,3.6,13.52,12.04,16.5,2.75-4.83.93-8.91-2.51-10.13ZM33.65,39.39c-3.57-1.21-3.52-5.54-1.64-8.21,3.66,3.67,13.89,4.35,10.38,11.42-2.91-1.07-5.83-2.14-8.74-3.21Z"/>
  <path class="cls-2" d="M44.2,34.41c-.95,1.69-1.67,1.84-3.44.7-6.97-2.79-12.9-8.3-5.19-14.55,1.92,4.67,11.17,8.48,8.63,13.85Z"/>
  <path class="cls-2" d="M43.08,27.93c-2.82-2.6-5.25-5.61-7.3-8.84-10.75,8.23-1.36,15.13,7.8,17.91,3.33-3.81,2.08-6.88-.5-9.06ZM34.63,30.48c-3.02-2.24-1.83-6.45.8-8.47,1.91,4.09,9.65,6.83,8.12,11.75-.41.57-.71,1.77-1.64,1.1-2.31-.99-6.53-3.74-7.28-4.38Z"/>
  <path class="cls-2" d="M105.92,35.34c4.5.39-.03,5.67-.32,8.3-.99,4.98-4.82,7.32-9.47,4.9,1.4-3.93,3.47-15.56,9.79-13.2Z"/>
  <path class="cls-2" d="M98.89,38.42c-1.27,3.57-2.55,7.15-3.82,10.72,10.16,5.49,11.54-6.5,14.19-13.36-3.29-2.56-9.05-2.08-10.37,2.63ZM107.19,36.78c-2.08,4.52-2.76,14.6-9.99,11.14,2.09-4.49,2.78-14.75,9.99-11.14Z"/>
  <path class="cls-2" d="M98.13,35.34c4.5.39-.03,5.67-.32,8.3-.99,4.98-4.82,7.32-9.47,4.9,1.4-3.93,3.47-15.56,9.79-13.2Z"/>
  <path class="cls-2" d="M91.1,38.42c-1.27,3.57-2.55,7.15-3.82,10.72,10.14,5.34,11.52-6.38,14.17-13.29-3.05-2.71-9.09-2.11-10.35,2.57ZM99.41,36.78c-2.08,4.52-2.76,14.6-9.99,11.14,2.09-4.49,2.78-14.76,9.99-11.14Z"/>
  <path class="cls-2" d="M90.35,35.34c4.5.39-.03,5.67-.32,8.3-.99,4.98-4.82,7.32-9.47,4.9,1.4-3.93,3.47-15.56,9.79-13.2Z"/>
  <path class="cls-2" d="M83.31,38.42c-1.27,3.57-2.55,7.15-3.82,10.72,10.14,5.34,11.52-6.38,14.17-13.29-3.05-2.71-9.09-2.11-10.35,2.57ZM91.62,36.78c-2.08,4.52-2.76,14.6-9.99,11.14,2.09-4.49,2.78-14.76,9.99-11.14Z"/>
  <path class="cls-2" d="M86.29,84.14c.29-.8.58-1.6.87-2.4,5.71,2.35,16.94,3.83,12.33,12.48-4.07-1.49-15.55-3.6-13.2-10.07Z"/>
  <path class="cls-2" d="M89.37,91.38c3.57,1.31,7.15,2.62,10.72,3.93,5.6-10.28-6.56-11.87-13.51-14.67-2.2,3.85-2.06,9.15,2.79,10.73ZM87.74,82.83c4.62,2.13,14.64,2.97,11.15,10.29-4.58-2.13-14.8-2.99-11.15-10.29Z"/>
  <path class="cls-2" d="M86.29,60.11c.29-.8.58-1.6.87-2.4,5.71,2.35,16.94,3.83,12.33,12.48-4.07-1.49-15.54-3.6-13.2-10.07Z"/>
  <path class="cls-2" d="M89.37,67.35c3.57,1.31,7.15,2.62,10.72,3.93,5.6-10.28-6.56-11.87-13.51-14.66-2.2,3.85-2.06,9.15,2.79,10.73ZM87.73,58.8c4.61,2.13,14.64,2.97,11.15,10.29-4.58-2.13-14.8-2.99-11.15-10.29Z"/>
  <path class="cls-2" d="M86.29,68.47c.29-.8.58-1.6.87-2.4,5.71,2.35,16.94,3.83,12.33,12.48-4.07-1.49-15.54-3.6-13.2-10.07Z"/>
  <path class="cls-2" d="M89.37,75.71c3.57,1.31,7.15,2.62,10.72,3.93,5.6-10.28-6.56-11.87-13.51-14.67-2.2,3.85-2.06,9.15,2.79,10.73ZM87.73,67.15c4.61,2.13,14.64,2.97,11.15,10.29-4.58-2.13-14.8-2.99-11.15-10.29Z"/>
  <path class="cls-2" d="M86.29,76.48c.29-.8.58-1.6.87-2.4,5.71,2.35,16.94,3.83,12.33,12.48-4.07-1.49-15.54-3.6-13.2-10.07Z"/>
  <path class="cls-2" d="M89.37,83.72c3.57,1.31,7.15,2.62,10.72,3.93,5.6-10.28-6.56-11.87-13.51-14.67-2.2,3.85-2.06,9.15,2.79,10.73ZM87.73,75.17c4.62,2.13,14.64,2.97,11.15,10.29-4.58-2.13-14.8-2.99-11.15-10.29Z"/>
  <path class="cls-2" d="M108.19,119.76c4.5.39-.03,5.67-.32,8.3-1.03,5.38-5.31,7.3-10.08,4.71,3.3-4.13,3.09-14.75,10.39-13.01Z"/>
  <path class="cls-2" d="M101.2,122.83c-1.19,3.63-2.79,7.11-4.76,10.38,7.24,4.07,11.48.16,13-7.18.34-1.89,2.24-4.43,1.83-6.1-5.72-3.33-9.53.4-10.08,2.89ZM106.35,129.95c-1,3.21-4.54,3.79-7.24,2.32,2.53-3.63,2.1-10.06,6.69-11.77,1.25-.28,2.36.23,3.51.66-.28,2.43-2.25,6.25-2.96,8.8Z"/>
  <path class="cls-2" d="M100.53,119.73c.22.12,2.04.91,2.01,1-.65,1.84-1.26,3.7-1.96,5.52-1.6,6.57-6.64,9.12-12.04,4.39,4.31-2.92,5.83-12.38,11.99-10.91Z"/>
  <path class="cls-2" d="M94.33,121.88c-2.06,3.22-4.49,6.18-7.21,8.86,10.52,9.06,13.78-1.93,16.51-10.67-4.87-2.67-7.27-1.49-9.3,1.81ZM98.09,129.78c-1.61,3.28-5.77,2.87-8.15.71,3.5-2.81,4.46-9.21,9.08-10.2.91-.01,1.66.55,2.47.9-.7,2.9-2.06,5.87-3.39,8.59-.29.57.71-1.41,0,0Z"/>
  <path class="cls-2" d="M94.57,118.75c1.28,1.16,1.77,1.02.75,2.77-3.38,6.62-9.01,13.09-15.05,4.86,4.5-1.62,9.47-10.9,14.3-7.62Z"/>
  <path class="cls-2" d="M88.04,119.3c-2.79,2.62-5.88,4.88-9.17,6.82,7.15,10.81,14.28,2.22,18-6.06.31-.62-.23-.72-.69-1.09-2.58-3.45-7.12-1.03-8.14.33ZM95.17,120.42c-2.74,4.88-8.25,13.32-13.5,6.14,4.38-1.85,8.54-11.1,13.5-6.14-.77,1.3-.35-.29,0,0Z"/>
  <path class="cls-2" d="M88.83,116.19c.37.57.77,1.12,1.19,1.65-5.06,5.55-12.79,12.58-16.96,2.06,4.99-.57,11.96-8.06,15.77-3.71Z"/>
  <path class="cls-2" d="M82.37,115.05c-3.35,1.82-6.92,3.26-10.6,4.26,4.15,12.61,13.57,5.39,19.26-1.6-2.21-4.34-5.91-4.43-8.66-2.66ZM88.98,117.95c-3.89,3.99-11.41,10.77-14.63,2.5,4.68-.69,11.15-8.62,14.63-2.5Z"/>
  <path class="cls-2" d="M155.37,143.61c-.58.85-1.21,1.66-1.86,2.46-3.39-4.88-13.68-7.32-9.54-14.58,5.7,1.63,16.51,5.94,11.4,12.12Z"/>
  <path class="cls-2" d="M154.01,134.58c-3.41-1.69-7.08-2.88-10.65-4.19-5.23,8.56,6.27,11.14,10.12,17.13,4.41-3.42,5.15-11.2.53-12.95ZM146.18,138.79c-2.38-1.27-3.13-4.03-1.61-6.23,5.47,1.45,15.18,5.48,8.89,12.07-1.9-2.03-6.16-5.2-7.29-5.84Z"/>
  <path class="cls-2" d="M157.15,133.6c-.32.97-.66,1.95-1.08,2.88-5.37-3.73-16.58-3.98-12.09-13.17,4.59,1.49,15.55,3.97,13.17,10.3Z"/>
  <path class="cls-2" d="M154.09,126.14c-3.57-1.31-7.15-2.62-10.72-3.93-5.54,10.91,6.82,10.93,13.09,15.68,2.47-3.98,2.98-10.01-2.37-11.74ZM146.99,131.49c-3.08-.99-3.81-4.42-2.41-7.08,4.79,2.12,15.11,3.22,11.03,10.71-2.77-1.48-5.69-2.56-8.63-3.63Z"/>
  <path class="cls-2" d="M157.17,125.36c-.29.8-.58,1.6-.87,2.4-5.71-2.35-16.94-3.83-12.33-12.48,4.07,1.49,15.54,3.6,13.2,10.07Z"/>
  <path class="cls-2" d="M154.09,118.12c-3.57-1.31-7.15-2.62-10.72-3.93-5.6,10.28,6.56,11.87,13.51,14.67,2.2-3.85,2.06-9.15-2.79-10.73ZM155.72,126.68c-4.61-2.13-14.64-2.97-11.15-10.29,4.58,2.13,14.8,2.99,11.15,10.29Z"/>
  <path class="cls-2" d="M157.17,117.01c-.29.8-.58,1.6-.87,2.4-5.71-2.35-16.94-3.83-12.33-12.48,4.07,1.49,15.54,3.6,13.2,10.07Z"/>
  <path class="cls-2" d="M154.09,109.77c-3.57-1.31-7.15-2.62-10.72-3.93-5.6,10.28,6.56,11.87,13.51,14.67,2.2-3.85,2.06-9.15-2.79-10.73ZM155.72,118.32c-4.62-2.13-14.64-2.97-11.15-10.29,4.58,2.13,14.8,2.99,11.15,10.29Z"/>
  <path class="cls-2" d="M86.29,107.52c.29-.8.58-1.6.87-2.4,5.71,2.35,16.94,3.83,12.33,12.48-4.07-1.49-15.54-3.6-13.2-10.07Z"/>
  <path class="cls-2" d="M89.37,114.76c3.57,1.31,7.15,2.62,10.72,3.93,5.6-10.28-6.56-11.87-13.51-14.66-2.2,3.85-2.06,9.15,2.79,10.73ZM87.73,106.2c4.62,2.13,14.64,2.97,11.15,10.29-4.58-2.13-14.8-2.99-11.15-10.29Z"/>
  <path class="cls-2" d="M86.29,115.53c.29-.8.58-1.6.87-2.4,5.71,2.35,16.94,3.83,12.33,12.48-4.07-1.49-15.54-3.6-13.2-10.07Z"/>
  <path class="cls-2" d="M89.37,122.77c3.57,1.31,7.15,2.62,10.72,3.93,5.6-10.28-6.56-11.87-13.51-14.67-2.2,3.85-2.06,9.15,2.79,10.73ZM87.73,114.22c4.61,2.13,14.64,2.97,11.15,10.29-4.58-2.13-14.8-2.99-11.15-10.29Z"/>
  <path class="cls-2" d="M86.29,123.55c.29-.8.58-1.6.87-2.4,4.96,1.82,15.27,3.43,12.9,10.73-.45,1.38-.49,1.54-2.18,1.06-4.27-1.89-13.53-2.69-11.59-9.39Z"/>
  <path class="cls-2" d="M89.37,130.79c3.26,1.19,6.49,2.46,9.89,3.21,1.38.59,1.27-1.25,1.75-2.09,2.74-8.56-9.07-9.21-14.43-11.84-2.2,3.85-2.06,9.15,2.79,10.73ZM96.47,125.44c2.99.96,3.83,4.29,2.46,6.92-4.39-1.48-15.03-3.12-11.19-10.13,2.91,1.07,5.83,2.14,8.74,3.21Z"/>
  <path class="cls-2" d="M86.29,131.56c.29-.8.58-1.6.87-2.4,4.37,2.56,15.25,2.38,13.55,9.54-.17,1.32-1.42.87-2.62.84-5.06.07-13.82-.84-11.8-7.98Z"/>
  <path class="cls-2" d="M90.17,139.61c3.73.66,7.54.83,11.31.49,2.52-8.93-9.26-9.15-14.91-12.03-2.45,4.08-1.88,10.52,3.59,11.54,3.8.67-.71-.12,0,0ZM87.73,130.25c3.38,1.86,15.26,3,11.6,8.61-5.37.17-15.38-.87-11.6-8.61Z"/>
  <path class="cls-2" d="M157.17,68.58c-.29.8-.58,1.6-.87,2.4-5.71-2.35-16.94-3.83-12.33-12.48,4.07,1.49,15.54,3.6,13.2,10.07Z"/>
  <path class="cls-2" d="M154.09,61.34l-10.72-3.93c-5.6,10.28,6.56,11.87,13.51,14.67,2.2-3.85,2.06-9.15-2.79-10.73ZM155.72,69.89c-4.61-2.13-14.64-2.97-11.15-10.29,4.58,2.13,14.8,2.99,11.15,10.29Z"/>
  <path class="cls-2" d="M157.17,60.56c-.29.8-.58,1.6-.87,2.4-5.71-2.35-16.94-3.83-12.33-12.48,4.07,1.49,15.54,3.6,13.2,10.07Z"/>
  <path class="cls-2" d="M154.09,53.32c-3.57-1.31-7.15-2.62-10.72-3.93-5.6,10.28,6.56,11.87,13.51,14.67,2.2-3.85,2.06-9.15-2.79-10.73ZM155.72,61.88c-4.62-2.13-14.64-2.97-11.15-10.29,4.58,2.13,14.8,2.99,11.15,10.29Z"/>
  <path class="cls-2" d="M157.17,52.21c-.29.8-.58,1.6-.87,2.4-5.71-2.35-16.94-3.83-12.33-12.48,4.07,1.49,15.54,3.6,13.2,10.07Z"/>
  <path class="cls-2" d="M154.09,44.97c-3.57-1.31-7.15-2.62-10.72-3.93-5.6,10.28,6.56,11.87,13.51,14.67,2.2-3.85,2.06-9.15-2.79-10.73ZM146.99,50.31c-3.08-.99-3.81-4.42-2.41-7.08,4.58,2.13,14.8,2.99,11.15,10.29-2.91-1.07-5.83-2.14-8.74-3.21Z"/>
  <path class="cls-2" d="M157.17,44.19c-.29.8-.58,1.6-.87,2.4-5.71-2.35-16.94-3.83-12.33-12.48,4.07,1.49,15.54,3.6,13.2,10.07Z"/>
  <path class="cls-2" d="M154.09,36.95c-3.57-1.31-7.15-2.62-10.72-3.93-5.6,10.28,6.56,11.87,13.51,14.67,2.2-3.85,2.06-9.15-2.79-10.73ZM155.72,45.5c-4.62-2.13-14.64-2.97-11.15-10.29,4.58,2.13,14.8,2.99,11.15,10.29Z"/>
  <path class="cls-2" d="M157.17,36.18c-.29.8-.58,1.6-.87,2.4-5.71-2.35-16.94-3.83-12.33-12.48,4.07,1.49,15.54,3.6,13.2,10.07Z"/>
  <path class="cls-2" d="M154.09,28.94c-3.57-1.31-7.15-2.62-10.72-3.93-5.6,10.28,6.56,11.87,13.51,14.67,2.2-3.85,2.06-9.15-2.79-10.73ZM155.72,37.49c-4.62-2.13-14.64-2.97-11.15-10.29,4.58,2.13,14.8,2.99,11.15,10.29Z"/>
  <path class="cls-2" d="M84.8,30.53c-1.04-3.95,7.7-2.38,10.26-2.66,5.36.32,5.39,5.94,4.41,9.81-4.35-2.91-13.56-.99-14.67-7.14Z"/>
  <path class="cls-2" d="M89.19,35.42c3.8.72,7.3,2.14,10.9,3.46,4.7-12.26-6.66-13.46-15.69-10.97-.64.14-.44.3-.42.87-1.11,4.07,2.96,6.59,5.21,6.64ZM85.74,29.03c5.87-.85,15.74-1.6,13.08,7.34-4.13-2.48-13.92-.43-13.08-7.34.38-.05,0,.23,0,0Z"/>
  <path class="cls-2" d="M86.21,36.62c.29-2.01,1.22-2.27,3.14-1.57,6.31.71,13.64,3.43,10.13,11.09-3.49-1.28-15.54-3.71-13.27-9.52Z"/>
  <path class="cls-2" d="M89.37,43.31c3.57,1.31,7.15,2.62,10.72,3.93,5.45-10.2-6.19-12.88-13.95-13.28-1.72,3.62-1.01,7.93,3.23,9.35ZM96.46,37.92c3.06,1.04,3.84,4.45,2.42,7.12-4.17-2.14-14.37-2.72-11.33-9.58,3.05.49,6.04,1.34,8.92,2.46.3.12-1.47-.58,0,0Z"/>
  <path class="cls-2" d="M86.29,44.08c.29-.8.58-1.6.87-2.4,5.71,2.35,16.94,3.83,12.33,12.48-4.07-1.49-15.54-3.6-13.2-10.07Z"/>
  <path class="cls-2" d="M89.37,51.32c3.57,1.31,7.15,2.62,10.72,3.93,5.6-10.28-6.56-11.87-13.51-14.67-2.2,3.85-2.06,9.15,2.79,10.73ZM87.73,42.77c4.61,2.13,14.64,2.97,11.15,10.29-4.58-2.13-14.8-2.99-11.15-10.29Z"/>
  <path class="cls-2" d="M86.29,52.09c.29-.8.58-1.6.87-2.4,5.71,2.35,16.94,3.83,12.33,12.48-4.07-1.49-15.54-3.6-13.2-10.07Z"/>
  <path class="cls-2" d="M89.37,59.34c3.57,1.31,7.15,2.62,10.72,3.93,5.6-10.28-6.56-11.87-13.51-14.67-2.2,3.85-2.06,9.15,2.79,10.73ZM87.73,50.78c4.61,2.13,14.64,2.97,11.15,10.29-4.58-2.13-14.8-2.99-11.15-10.29Z"/>
  <path class="cls-2" d="M122.08,92.55c-.75-1.64-1.55-2.02.1-2.8,2-.95,3.99-1.89,5.99-2.84,4.22-2.82,8.59-1.77,10.16,3.23-3.78,1.79-13.46,8.53-16.25,2.41Z"/>
  <path class="cls-2" d="M129.23,95.34c3.43-1.63,6.86-3.25,10.28-4.88-2.56-7.65-8.23-6.88-14.1-3.14-1.51,1.06-4.57,1.48-5.39,2.91,1.05,4.19,4.96,7.36,9.21,5.11ZM122.2,90.62c4.67-1.73,12.27-8.36,14.95-.82-4.65,1.7-12.4,8.47-14.95.82Z"/>
  <path class="cls-2" d="M202.61,119.76c4.5.39-.03,5.67-.31,8.3-.99,4.98-4.82,7.32-9.47,4.9,1.4-3.93,3.47-15.56,9.79-13.2Z"/>
  <path class="cls-2" d="M195.58,122.84c-1.27,3.57-2.55,7.15-3.82,10.72,10.16,5.49,11.54-6.5,14.19-13.36-3.29-2.56-9.05-2.08-10.37,2.63ZM203.89,121.21c-2.08,4.52-2.76,14.6-9.99,11.15,2.09-4.49,2.78-14.76,9.99-11.15Z"/>
  <path class="cls-2" d="M194.83,119.76c4.5.39-.03,5.67-.32,8.3-.99,4.98-4.82,7.32-9.47,4.9,1.4-3.93,3.47-15.56,9.79-13.2Z"/>
  <path class="cls-2" d="M187.79,122.84c-1.27,3.57-2.55,7.15-3.82,10.72,10.16,5.49,11.54-6.5,14.19-13.36-3.29-2.56-9.05-2.08-10.37,2.63ZM192.99,129.95c-.93,3.03-4.26,3.84-6.88,2.41,2.06-3.84,1.79-10.52,6.63-11.92.21-.03,3.49.43,3.36.8-1.03,2.9-2.07,5.81-3.1,8.71Z"/>
  <path class="cls-2" d="M187.04,119.76c4.5.39-.03,5.67-.32,8.3-.99,4.98-4.82,7.32-9.47,4.9,1.4-3.93,3.47-15.56,9.79-13.2Z"/>
  <path class="cls-2" d="M180.01,122.84c-1.27,3.57-2.55,7.15-3.82,10.72,10.14,5.34,11.52-6.38,14.17-13.29-3.05-2.71-9.09-2.11-10.35,2.57ZM188.32,121.21c-2.08,4.52-2.76,14.6-9.99,11.15,2.09-4.49,2.78-14.76,9.99-11.15Z"/>
  <path class="cls-2" d="M178.92,119.76c4.5.39-.03,5.67-.32,8.3-.99,4.98-4.82,7.32-9.47,4.9,1.4-3.93,3.47-15.56,9.79-13.2Z"/>
  <path class="cls-2" d="M171.89,122.84c-1.27,3.57-2.55,7.15-3.82,10.72,10.14,5.34,11.52-6.38,14.17-13.29-3.05-2.71-9.09-2.11-10.35,2.57ZM180.2,121.21c-2.08,4.52-2.76,14.6-9.99,11.15,2.09-4.49,2.78-14.76,9.99-11.15Z"/>
  <path class="cls-2" d="M171.14,119.76c4.5.39-.03,5.67-.32,8.3-.99,4.98-4.82,7.32-9.47,4.9,1.4-3.93,3.47-15.56,9.79-13.2Z"/>
  <path class="cls-2" d="M164.1,122.84c-1.27,3.57-2.55,7.15-3.82,10.72,10.14,5.34,11.52-6.38,14.17-13.29-3.05-2.71-9.09-2.11-10.35,2.57ZM172.41,121.21c-2.08,4.52-2.76,14.6-9.99,11.15,2.09-4.49,2.78-14.75,9.99-11.15Z"/>
  <path class="cls-2" d="M163.35,119.76c4.5.39-.03,5.67-.31,8.3-.99,4.98-4.82,7.32-9.47,4.9,1.4-3.93,3.47-15.56,9.79-13.2Z"/>
  <path class="cls-2" d="M156.32,122.84c-1.27,3.57-2.55,7.15-3.82,10.72,10.16,5.49,11.54-6.5,14.19-13.36-3.29-2.56-9.05-2.08-10.37,2.63ZM164.63,121.21c-2.08,4.52-2.76,14.6-9.99,11.15,2.09-4.49,2.78-14.76,9.99-11.15Z"/>
  <path class="cls-2" d="M155.57,119.76c4.5.39-.03,5.67-.32,8.3-.99,4.98-4.82,7.32-9.47,4.9,1.4-3.93,3.47-15.56,9.79-13.2Z"/>
  <path class="cls-2" d="M148.53,122.84c-1.27,3.57-2.55,7.15-3.82,10.72,10.14,5.34,11.52-6.38,14.17-13.29-3.05-2.71-9.09-2.11-10.35,2.57ZM156.84,121.21c-2.08,4.52-2.76,14.6-9.99,11.15,2.09-4.49,2.78-14.75,9.99-11.15Z"/>
  <path class="cls-2" d="M147.45,119.76c4.5.39-.03,5.67-.32,8.3-.99,4.98-4.82,7.32-9.47,4.9,1.4-3.93,3.47-15.56,9.79-13.2Z"/>
  <path class="cls-2" d="M140.42,122.84c-1.27,3.57-2.55,7.15-3.82,10.72,10.14,5.34,11.52-6.38,14.17-13.29-3.05-2.71-9.09-2.11-10.35,2.57ZM148.72,121.21c-2.08,4.52-2.76,14.6-9.99,11.15,2.09-4.49,2.78-14.76,9.99-11.15Z"/>
  <path class="cls-2" d="M139.66,119.76c4.5.39-.03,5.67-.32,8.3-.99,4.98-4.82,7.32-9.47,4.9,1.4-3.93,3.47-15.56,9.79-13.2Z"/>
  <path class="cls-2" d="M132.63,122.84c-1.27,3.57-2.55,7.15-3.82,10.72,10.16,5.49,11.54-6.5,14.19-13.36-3.29-2.56-9.05-2.08-10.37,2.63ZM140.94,121.21c-2.08,4.52-2.76,14.6-9.99,11.15,2.09-4.49,2.78-14.76,9.99-11.15Z"/>
  <path class="cls-2" d="M273.34,120.18c4.5.39-.03,5.67-.31,8.3-.99,4.98-4.82,7.32-9.47,4.9,1.4-3.93,3.47-15.56,9.79-13.2Z"/>
  <path class="cls-2" d="M266.3,123.26c-1.27,3.57-2.55,7.15-3.82,10.72,10.16,5.49,11.54-6.5,14.19-13.36-3.29-2.56-9.05-2.08-10.37,2.63ZM274.61,121.63c-2.08,4.52-2.76,14.6-9.99,11.15,2.09-4.49,2.78-14.76,9.99-11.15Z"/>
  <path class="cls-2" d="M265.55,120.18c4.5.39-.03,5.67-.32,8.3-.99,4.98-4.82,7.32-9.47,4.9,1.4-3.93,3.47-15.56,9.79-13.2Z"/>
  <path class="cls-2" d="M258.52,123.26c-1.27,3.57-2.55,7.15-3.82,10.72,10.16,5.49,11.54-6.5,14.19-13.36-3.29-2.56-9.05-2.08-10.37,2.63ZM263.71,130.36c-.93,3.03-4.26,3.84-6.88,2.41,2.06-3.84,1.79-10.52,6.63-11.92.21-.03,3.49.43,3.36.8-1.03,2.9-2.07,5.81-3.1,8.71Z"/>
  <path class="cls-2" d="M257.77,120.18c4.5.39-.03,5.67-.32,8.3-.99,4.98-4.82,7.32-9.47,4.9,1.4-3.93,3.47-15.56,9.79-13.2Z"/>
  <path class="cls-2" d="M250.73,123.26c-1.27,3.57-2.55,7.15-3.82,10.72,10.14,5.34,11.52-6.38,14.17-13.29-3.05-2.71-9.09-2.11-10.35,2.57ZM259.04,121.63c-2.08,4.52-2.76,14.6-9.99,11.15,2.09-4.49,2.78-14.76,9.99-11.15Z"/>
  <path class="cls-2" d="M249.65,120.18c4.5.39-.03,5.67-.32,8.3-.99,4.98-4.82,7.32-9.47,4.9,1.4-3.93,3.47-15.56,9.79-13.2Z"/>
  <path class="cls-2" d="M242.61,123.26c-1.27,3.57-2.55,7.15-3.82,10.72,10.14,5.34,11.52-6.38,14.17-13.29-3.05-2.71-9.09-2.11-10.35,2.57ZM250.92,121.63c-2.08,4.52-2.76,14.6-9.99,11.15,2.09-4.49,2.78-14.76,9.99-11.15Z"/>
  <path class="cls-2" d="M241.86,120.18c4.5.39-.03,5.67-.32,8.3-.99,4.98-4.82,7.32-9.47,4.9,1.4-3.93,3.47-15.56,9.79-13.2Z"/>
  <path class="cls-2" d="M234.83,123.26c-1.27,3.57-2.55,7.15-3.82,10.72,10.14,5.34,11.52-6.38,14.17-13.29-3.05-2.71-9.09-2.11-10.35,2.57ZM243.14,121.63c-2.08,4.52-2.76,14.6-9.99,11.15,2.09-4.49,2.78-14.75,9.99-11.15Z"/>
  <path class="cls-2" d="M234.08,120.18c4.5.39-.03,5.67-.31,8.3-.99,4.98-4.82,7.32-9.47,4.9,1.4-3.93,3.47-15.56,9.79-13.2Z"/>
  <path class="cls-2" d="M227.04,123.26c-1.27,3.57-2.55,7.15-3.82,10.72,10.16,5.49,11.54-6.5,14.19-13.36-3.29-2.56-9.05-2.08-10.37,2.63ZM235.35,121.63c-2.08,4.52-2.76,14.6-9.99,11.15,2.09-4.49,2.78-14.76,9.99-11.15Z"/>
  <path class="cls-2" d="M226.29,120.18c4.5.39-.03,5.67-.32,8.3-.99,4.98-4.82,7.32-9.47,4.9,1.4-3.93,3.47-15.56,9.79-13.2Z"/>
  <path class="cls-2" d="M219.26,123.26c-1.27,3.57-2.55,7.15-3.82,10.72,10.14,5.34,11.52-6.38,14.17-13.29-3.05-2.71-9.09-2.11-10.35,2.57ZM227.57,121.63c-2.08,4.52-2.76,14.6-9.99,11.15,2.09-4.49,2.78-14.75,9.99-11.15Z"/>
  <path class="cls-2" d="M218.17,120.18c4.5.39-.03,5.67-.32,8.3-.99,4.98-4.82,7.32-9.47,4.9,1.4-3.93,3.47-15.56,9.79-13.2Z"/>
  <path class="cls-2" d="M211.14,123.26c-1.27,3.57-2.55,7.15-3.82,10.72,10.14,5.34,11.52-6.38,14.17-13.29-3.05-2.71-9.09-2.11-10.35,2.57ZM219.45,121.63c-2.08,4.52-2.76,14.6-9.99,11.15,2.09-4.49,2.78-14.76,9.99-11.15Z"/>
  <path class="cls-2" d="M210.39,120.18c4.5.39-.03,5.67-.32,8.3-.99,4.98-4.82,7.32-9.47,4.9,1.4-3.93,3.47-15.56,9.79-13.2Z"/>
  <path class="cls-2" d="M203.35,123.26c-1.27,3.57-2.55,7.15-3.82,10.72,10.16,5.49,11.54-6.5,14.19-13.36-3.29-2.56-9.05-2.08-10.37,2.63ZM211.66,121.63c-2.08,4.52-2.76,14.6-9.99,11.15,2.09-4.49,2.78-14.76,9.99-11.15Z"/>
  <path class="cls-2" d="M335.63,120.78c4.5.39-.03,5.67-.32,8.3-.99,4.98-4.82,7.32-9.47,4.9,1.4-3.93,3.47-15.56,9.79-13.2Z"/>
  <path class="cls-2" d="M328.6,123.86c-1.27,3.57-2.55,7.15-3.82,10.72,7.92,4.28,10.5-2.05,12.51-8.3,1.59-4.93-5.23-8.37-8-3.99-.29.46-.52.98-.69,1.57ZM333.79,130.97c-.93,3.03-4.26,3.84-6.88,2.41,2.06-3.84,1.79-10.52,6.63-11.92.21-.03,3.49.43,3.36.8-1.03,2.9-2.07,5.81-3.1,8.71Z"/>
  <path class="cls-2" d="M327.85,120.78c4.5.39-.03,5.67-.32,8.3-.99,4.98-4.82,7.32-9.47,4.9,1.4-3.93,3.47-15.56,9.79-13.2Z"/>
  <path class="cls-2" d="M320.81,123.86c-1.27,3.57-2.55,7.15-3.82,10.72,10.14,5.34,11.52-6.38,14.17-13.29-3.05-2.71-9.09-2.11-10.35,2.57ZM329.12,122.23c-2.08,4.52-2.76,14.6-9.99,11.15,2.09-4.49,2.78-14.76,9.99-11.15Z"/>
  <path class="cls-2" d="M319.73,120.78c4.5.39-.03,5.67-.32,8.3-.99,4.98-4.82,7.32-9.47,4.9,1.4-3.93,3.47-15.56,9.79-13.2Z"/>
  <path class="cls-2" d="M312.7,123.86c-1.27,3.57-2.55,7.15-3.82,10.72,10.14,5.34,11.52-6.38,14.17-13.29-3.05-2.71-9.09-2.11-10.35,2.57ZM321,122.23c-2.08,4.52-2.76,14.6-9.99,11.15,2.09-4.49,2.78-14.76,9.99-11.15Z"/>
  <path class="cls-2" d="M311.94,120.78c4.5.39-.03,5.67-.32,8.3-.99,4.98-4.82,7.32-9.47,4.9,1.4-3.93,3.47-15.56,9.79-13.2Z"/>
  <path class="cls-2" d="M304.91,123.86c-1.27,3.57-2.55,7.15-3.82,10.72,10.14,5.34,11.52-6.38,14.17-13.29-3.05-2.71-9.09-2.11-10.35,2.57ZM313.22,122.23c-2.08,4.52-2.76,14.6-9.99,11.15,2.09-4.49,2.78-14.75,9.99-11.15Z"/>
  <path class="cls-2" d="M304.16,120.78c4.5.39-.03,5.67-.31,8.3-.99,4.98-4.82,7.32-9.47,4.9,1.4-3.93,3.47-15.56,9.79-13.2Z"/>
  <path class="cls-2" d="M297.12,123.86c-1.27,3.57-2.55,7.15-3.82,10.72,10.16,5.49,11.54-6.5,14.19-13.36-3.29-2.56-9.05-2.08-10.37,2.63ZM305.43,122.23c-2.08,4.52-2.76,14.6-9.99,11.15,2.09-4.49,2.78-14.76,9.99-11.15Z"/>
  <path class="cls-2" d="M296.37,120.78c4.5.39-.03,5.67-.32,8.3-.99,4.98-4.82,7.32-9.47,4.9,1.4-3.93,3.47-15.56,9.79-13.2Z"/>
  <path class="cls-2" d="M289.34,123.86c-1.27,3.57-2.55,7.15-3.82,10.72,10.14,5.34,11.52-6.38,14.17-13.29-3.05-2.71-9.09-2.11-10.35,2.57ZM297.65,122.23c-2.08,4.52-2.76,14.6-9.99,11.15,2.09-4.49,2.78-14.75,9.99-11.15Z"/>
  <path class="cls-2" d="M288.26,120.78c4.5.39-.03,5.67-.32,8.3-.99,4.98-4.82,7.32-9.47,4.9,1.4-3.93,3.47-15.56,9.79-13.2Z"/>
  <path class="cls-2" d="M281.22,123.86c-1.27,3.57-2.55,7.15-3.82,10.72,10.14,5.34,11.52-6.38,14.17-13.29-3.05-2.71-9.09-2.11-10.35,2.57ZM289.53,122.23c-2.08,4.52-2.76,14.6-9.99,11.15,2.09-4.49,2.78-14.76,9.99-11.15Z"/>
  <path class="cls-2" d="M280.47,120.78c4.5.39-.03,5.67-.32,8.3-.99,4.98-4.82,7.32-9.47,4.9,1.4-3.93,3.47-15.56,9.79-13.2Z"/>
  <path class="cls-2" d="M273.44,123.86c-1.27,3.57-2.55,7.15-3.82,10.72,10.16,5.49,11.54-6.5,14.19-13.36-3.29-2.56-9.05-2.08-10.37,2.63ZM281.74,122.23c-2.08,4.52-2.76,14.6-9.99,11.15,2.09-4.49,2.78-14.76,9.99-11.15Z"/>
  <path class="cls-2" d="M131.88,119.76c4.5.39-.03,5.67-.32,8.3-.99,4.98-4.82,7.32-9.47,4.9,1.4-3.93,3.47-15.56,9.79-13.2Z"/>
  <path class="cls-2" d="M124.85,122.84c-1.27,3.57-2.55,7.15-3.82,10.72,10.14,5.34,11.52-6.38,14.17-13.29-3.05-2.71-9.09-2.11-10.35,2.57ZM133.15,121.21c-2.08,4.52-2.76,14.6-9.99,11.15,2.09-4.49,2.78-14.76,9.99-11.15Z"/>
  <path class="cls-2" d="M124.09,119.76c4.5.39-.03,5.67-.31,8.3-.99,4.98-4.82,7.32-9.47,4.9,1.4-3.93,3.47-15.56,9.79-13.2Z"/>
  <path class="cls-2" d="M117.06,122.84c-1.27,3.57-2.55,7.15-3.82,10.72,10.16,5.49,11.54-6.5,14.19-13.36-3.29-2.56-9.05-2.08-10.37,2.63ZM125.37,121.21c-2.08,4.52-2.76,14.6-9.99,11.15,2.09-4.49,2.78-14.76,9.99-11.15Z"/>
  <path class="cls-2" d="M115.98,119.76c4.5.39-.03,5.67-.32,8.3-.99,4.98-4.82,7.32-9.47,4.9,1.4-3.93,3.47-15.56,9.79-13.2Z"/>
  <path class="cls-2" d="M108.94,122.84c-1.27,3.57-2.55,7.15-3.82,10.72,10.14,5.34,11.52-6.38,14.17-13.29-3.05-2.71-9.09-2.11-10.35,2.57ZM117.25,121.21c-2.08,4.52-2.76,14.6-9.99,11.15,2.09-4.49,2.78-14.76,9.99-11.15Z"/>
  <path class="cls-2" d="M84.1,112.43c2.21,3.38-5.42,4.72-7.57,6.17-5.23,2.1-7.72-1.82-8.63-6.42,5.1.81,12.81-5.06,16.21.25Z"/>
  <path class="cls-2" d="M78.11,109.74c-3.71.93-7.5,1.45-11.32,1.53,1.03,13.24,11.8,8.56,19.07,3.17-.85-3.83-3.84-6.07-7.75-4.7ZM83.82,114.17c-4.96,2.89-13.43,7.88-14.81-1.15,4.74.49,12.85-5.61,14.81,1.15-.65.38-.17-.42,0,0Z"/>
  <path class="cls-2" d="M80.43,107.62c1.43,3.72-6.48,3.31-8.86,4.13-5.66.76-6.99-3.67-6.79-8.36,4.7,1.94,14.14-1.51,15.65,4.22Z"/>
  <path class="cls-2" d="M75.28,103.56c-3.81,0-7.63-.44-11.34-1.31-2.25,13.25,9.36,11.28,17.69,7.68.16-5.25-3.58-6.6-6.35-6.37ZM79.73,109.25c-5.28,1.67-15.25,4.1-14.07-4.75,4.46,1.63,13.88-2.3,14.07,4.75Z"/>
  <path class="cls-2" d="M78.06,102.08c-.12.67-.2,1.35-.26,2.02-7.49.69-17.99.57-13.87-10,3.87,3.07,14.04,1.98,14.12,7.98Z"/>
  <path class="cls-2" d="M74.07,96.87c-3.71-.92-7.31-2.3-10.66-4.15-5.52,12.15,6.22,13.29,15.24,11.95,1.45-4.67-1.47-7.31-4.58-7.8ZM76.98,103.48c-5.52.29-15.72.19-12.46-8.06,3.93,2.66,14.02,1.19,12.46,8.06Z"/>
  <path class="cls-2" d="M77.12,95.86c-.49,2.43-2.03,1.91-4.06,1.16-7.53-1.05-13.02-5.68-7.13-12.8,2.7,4.27,12.39,5.98,11.19,11.64Z"/>
  <path class="cls-2" d="M74.69,90.01c-3.27-1.98-6.24-4.45-8.82-7.27-9.16,10.37,1.74,14.9,11.18,15.72,1.99-3.47,1.34-6.58-2.36-8.45-3.18-1.93.6.36,0,0ZM75.72,96.94c-5.71-1.24-15.41-3.86-9.65-11.27,2.77,3.93,12.81,5.19,9.65,11.27-.37-.08.04-.11,0,0Z"/>
  <path class="cls-2" d="M77.83,90.26c-1.87,3.37-7.57-2.79-9.75-4.15-4.01-3.47-.58-7.94,2.64-10.3,1.5,4.79,10.29,10.67,7.11,14.44Z"/>
  <path class="cls-2" d="M77.29,84.01c-2.51-2.89-4.58-6.14-6.18-9.61-11.51,6.65-3.38,14.63,5.52,18.04.56.25.54-.05.87-.48,3.22-2.36,1.54-6.39-.21-7.95ZM76.18,90.82c-5.19-2.76-13.48-8.32-5.78-13.59,1.44,4.57,10.46,8.77,5.78,13.59-1.34-.73.26-.34,0,0Z"/>
  <path class="cls-2" d="M80.19,85.19c-1.42,1.19-2.36.85-3.39-.78-5.4-5.16-8.12-12.49,1.02-15.16-.28,4.78,6.65,12.56,2.37,15.93Z"/>
  <path class="cls-2" d="M81.6,79.07c-1.51-3.51-2.5-7.24-2.97-11.04-13.24,2.96-7.39,13.21.08,19.15,3.61-1.63,4.75-4.51,2.89-8.12-1.47-3.42.28.64,0,0ZM78.45,85.23c-4.08-3.98-10.11-12.33-1.37-14.71-.02,4.76,7.41,11.64,1.37,14.71-2.07-2.19.18-.12,0,0Z"/>
  <path class="cls-2" d="M84,81.08c-.55.11-1.1.24-1.64.41-2.09-2.24-2.94-6.41-3.9-9.44-1.28-5.27,4.16-6.77,8.12-6.86-1.68,4.86,2.62,13.39-2.59,15.9Z"/>
  <path class="cls-2" d="M87.19,75.67c-.37-3.81-.17-7.66.54-11.41-13.53-1.25-11.09,10.34-5.76,18.27,5.11-.53,5.66-4.31,5.22-6.86ZM82.34,80.58c-2.61-5.28-6.18-14.59,3.17-14.43-1.36,4.52,3.46,13.32-3.17,14.43Z"/>
  <path class="cls-2" d="M89.09,78.24c-.37-.05-1.65.09-1.92-.14-1.53-7.3-1.42-18.28,9.16-14.13-2.37,4.04-2.43,14.82-7.24,14.28Z"/>
  <path class="cls-2" d="M93.84,74.13c.85-3.68,2.3-7.23,3.56-10.78-12.23-5.24-13.53,7.37-10.35,15.61,4.31,1.31,6.52-2.38,6.79-4.83ZM87.61,68.03c.4-3.77,4.61-4.72,7.65-3.46-2.83,3.81-.95,13.76-7.58,12.67-.46-2.71-.28-8.01-.07-9.21Z"/>
  <path class="cls-2" d="M94.59,77.18c-2.01-.59-1.98-1.2-1.37-3.21,1-6.62,4.55-14.23,12.16-9.31-3.89,3.5-4.51,14.53-10.79,12.52Z"/>
  <path class="cls-2" d="M100.96,74.19c1.47-3.53,3.46-6.83,5.86-9.81-6.93-4.9-12.43-1.56-13.63,6.39-.19,1.86-1.7,5.07-.68,6.5,3.47,2.19,7.22.79,8.46-3.08,1.43-3.44-.54,1.3,0,0ZM93.54,75.79c.94-5.37,3.05-15.2,10.42-10.79-3.39,3.5-3.57,14.21-10.42,10.79Z"/>
  <path class="cls-2" d="M101.19,77.32c-2.26-.69-1.41-2.23-.59-3.98,2.29-7.4,7.48-12.19,13.8-5.23-4.68,2.07-7.99,11.32-13.21,9.21Z"/>
  <path class="cls-2" d="M107.3,75.85c2.48-2.92,5.37-5.46,8.57-7.56-8.53-10.23-14.74-1.42-16.96,8-.24.87.21.7.97,1.2,2.46,2.72,6.44-.07,7.43-1.64ZM100.39,75.78c1.98-5.56,6.16-14.58,12.56-7.77-4.29,2.1-7.11,11.72-12.56,7.77.52-1.43.38.2,0,0Z"/>
  <path class="cls-2" d="M106.57,78.89c-2.63-1.96,1.2-4.12,2.34-5.86,3.79-5.53,10.35-5.78,12.88.9-4.22.82-11.76,8.77-15.22,4.96Z"/>
  <path class="cls-2" d="M112.83,79.36c3.2-2,6.74-3.48,10.14-5.1-4.64-12.18-14.48-4.28-18.52,3.54,2.45,4.09,6.07,3.27,8.38,1.56ZM106.27,77.18c3.31-4.65,10.67-11.87,14.33-3.58-4.66.83-10.36,8.91-14.33,3.58,1.85-2.37.15.16,0,0Z"/>
  <path class="cls-2" d="M111.37,82.2c-.21-.61-.43-1.22-.73-1.79,5.1-3.63,13.86-9.58,16.88-.74-3.27,1.55-14.03,8.65-16.15,2.53Z"/>
  <path class="cls-2" d="M118.42,84.88c3.43-1.63,6.86-3.25,10.28-4.88-2.83-10.61-13.51-4.27-19.04.4.87,4.2,4.84,6.44,8.75,4.48ZM111.64,80.49c4.28-2.35,12.19-8.61,14.7-1.14-4.4,1.5-12.32,8.49-14.7,1.14Z"/>
  <path class="cls-2" d="M116.78,87.59c-.75-1.64-1.55-2.02.1-2.8,2-.95,3.99-1.89,5.99-2.84,4.22-2.82,8.59-1.77,10.16,3.23-3.78,1.79-13.46,8.53-16.25,2.41Z"/>
  <path class="cls-2" d="M123.93,90.39c3.43-1.63,6.86-3.25,10.28-4.88-2.56-7.65-8.23-6.88-14.1-3.14-1.51,1.06-4.57,1.48-5.39,2.91,1.05,4.19,4.96,7.36,9.21,5.11ZM116.9,85.67c4.67-1.73,12.27-8.36,14.95-.82-4.65,1.7-12.4,8.47-14.95.82Z"/>
  <path class="cls-2" d="M126.85,97.66c-.2-.44-1.27-2.15-.83-2.36,4.61-1.23,10.55-7.76,15.03-4.08,2.56,2.03-1.02,3.7-2.29,5.27-2.94,3.51-9.16,6.5-11.9,1.16Z"/>
  <path class="cls-2" d="M135.19,100.49c3.04-2.23,5.78-4.88,8.06-7.89-2.72-5.67-8.5-2.72-12.64-.37-1.14,1-6.68,2.07-5.59,3.62,1.11,4.37,6.12,7.58,10.17,4.64,3.12-2.29-.58.42,0,0ZM135.3,91.68c1.75-1.08,4.51-1.41,5.56.78.5.65.37.63-.2,1.21-2.97,2.7-7.56,8.31-11.87,4.97-.11-.09-2.13-2.76-1.8-2.92,2.54-1.22,6.95-3.23,8.31-4.05Z"/>
  <path class="cls-2" d="M134.42,103.61c-.71-.73-1.4-1.5-2.02-2.31,5.22-1.97,9.64-12.17,15.5-6.83-1.8,4.85-7.76,15.45-13.48,9.14Z"/>
  <path class="cls-2" d="M143.47,103.92c2.21-3.06,4.02-6.41,5.28-9.97-6.67-6.24-11.51,5.08-17.76,7.03,2.55,5.28,10.04,7.12,12.48,2.94ZM133.8,101.54c4.39-1.68,7.89-10.69,12.98-6.74-1.58,5.27-7.56,14.27-12.98,6.74Z"/>
  <path class="cls-2" d="M144.09,107.22c-.9-.48-1.78-1-2.65-1.55,4.22-3.54,5.04-13.74,12.04-11.52.61.5.58-.66.43.96-.19,6.89-3.83,15.64-9.82,12.11Z"/>
  <path class="cls-2" d="M152.77,104.64c.89-3.48,2.29-7.78,1.62-11.17-.92-.16-1.78-.54-2.68-.77-5.38-.28-7.31,10.09-11.71,13.12,3.69,3.41,10.79,4.66,12.77-1.17,1.17-3.69-.22.68,0,0ZM142.85,105.46c3.57-2.9,3.99-12.18,9.76-10.64.77.24.68.22.55,1.1-.69,5.72-2.98,14.61-10.31,9.54Z"/>
  <path class="cls-2" d="M153.98,107.62c-1.01-.17-2-.4-2.99-.67,2.81-4.45.62-14.84,7.69-14.61,1.01-.05.85.23,1.05,1.19,1.02,4.85,2.52,15.45-5.76,14.1Z"/>
  <path class="cls-2" d="M161.48,102.52c-.21-3.58-.2-8.1-1.88-11.14-1.11.19-2.32-.11-3.4.19-4.76,3.05-3.21,11.34-6.54,15.94,4.52,2.18,11.72,1.13,11.81-5-.02-3.87,0,.72,0,0ZM152.27,106.31c2.57-3.9.1-13.23,6.39-13.1,1.2,1.14.71,4.17,1.03,5.93.99,5.14-2.19,8.88-7.42,7.17.27-.75.62.14,0,0Z"/>
  <path class="cls-2" d="M163.55,104.98c-1.01.15-2.03.23-3.06.28,1.43-5.33-3.89-14.14,3.11-16.36.75,0,.64.05,1.12.9,2.71,4.59,6.84,13.67-1.18,15.19Z"/>
  <path class="cls-2" d="M169.12,97.84c-1.12-3.46-2.7-6.76-4.72-9.78-.54-.66-3.74.88-4.25,1.56-2.32,5.07.78,11.15-.75,16.59,4.98.66,11.5-2.49,9.72-8.37-1.19-3.67.11.34,0,0ZM160.79,94.99c-.61-2.62.48-4.65,3.07-5.25,2.97,4.77,6.94,14.6-2.35,14.53.12-3.11-.12-6.23-.72-9.28-.12-.62.59,2.97,0,0Z"/>
  <path class="cls-2" d="M171.84,99.56c-.93.43-1.86.83-2.82,1.19-.16-5.4-8.28-12.61-2.02-16.54,1.17-.93,5.91,5.5,6.72,6.64,2.57,3.01.81,7.85-1.88,8.71Z"/>
  <path class="cls-2" d="M174.98,91.07c-2.18-2.96-4.85-6.06-7.85-8.1-.87.89-2.18,1.36-2.89,2.4-1.75,5.54,4.02,10.88,4.05,16.63,5.93-.84,9.86-7.46,6.7-10.93ZM169.69,99.5c-.22-4.78-7.84-11.11-2.12-14.6,4.29,3.99,11,11.56,2.12,14.6-.1-.38.15-.06,0,0Z"/>
  <path class="cls-2" d="M178.3,91.51c-.74.7-1.49,1.41-2.3,2.02-1.68-4.99-10.59-8.57-7.73-14.19.87-1.31.82-1.33,2.39-.6,6.29,2.33,12.63,8.6,7.63,12.77Z"/>
  <path class="cls-2" d="M178.59,82.45c-3.02-2.08-6.53-4.24-10.04-5.16-.52,1.08-1.59,1.96-1.95,3.11-.14,5.62,7.29,9.17,9.08,14.55,4.92-2.34,7.34-9.74,2.9-12.5ZM176.24,92.13c-1.7-4.25-10.37-7.7-6.99-12.65.42-.64.43-.49,1.17-.12,5.21,2.4,12.99,7.47,5.82,12.77-.88-1.31.5-.41,0,0Z"/>
  <path class="cls-2" d="M181.8,82.23c-.5.9-1.02,1.77-1.57,2.64-3.76-4.15-14.47-5.51-11.23-12.76.82-.98,2.71.25,3.9.37,6.04,1.16,12.02,5.14,8.9,9.75Z"/>
  <path class="cls-2" d="M179.38,73.81c-2.75-.77-8.79-3.64-11.04-2.55-.26.9-.69,1.74-.96,2.64-.39,6.39,9.68,7.62,12.97,12.41,4.24-4.22,3.61-11.51-.97-12.49ZM180.03,83.45c-2.97-3.68-12.67-4.25-10.45-10.35.36-.95.59-.62,1.59-.35,5.28,1.16,14.05,3.98,8.86,10.7-.62-.49.17-.27,0,0Z"/>
  <path class="cls-2" d="M182.45,72.91c-.62,2.92-1.14,2.61-3.72,1.46-4.46-1.53-12.96-2.23-10.85-8.87,5.23-.01,16.44-.94,14.57,7.41Z"/>
  <path class="cls-2" d="M178.32,65.15c-3.58-.51-7.24-.6-10.84-.28-.9.02-.83,3.83-.55,4.61,3.26,4.8,10.5,4.23,15.22,7.17,2.8-4.72.87-11.22-3.83-11.5ZM181.02,74.33c-3.92-2.47-13.47-1.41-12.32-7.94,5.04-.85,16.03-.08,12.32,7.94Z"/>
  <path class="cls-2" d="M181.08,63.52c-.02.97-.06,1.98-.19,2.94-4.98-2.16-15.32,1.71-15.66-6.01-.17-.99,1.52-1.02,2.36-1.23,4.96-1.63,13.77-2.5,13.5,4.3Z"/>
  <path class="cls-2" d="M175.17,57.01c-3.47.64-8.15.93-10.96,2.81.23,1.05.19,2.17.49,3.19,3.26,5.43,11.77,2.16,16.98,4.61,1.76-5.76-2.01-11.52-6.51-10.61ZM180.05,65.36c-4.32-1.72-13.4,1.92-13.89-4.67-.04-.87,1.55-.57,2.18-.91,5.2-1.37,13.04-2.28,11.72,5.58-.78-.13.02-.31,0,0Z"/>
  <path class="cls-2" d="M177.23,54.39c.23.96.41,1.92.57,2.89-5.7-.18-14.52,5.47-16.91-2.3,4.04-2.55,14.43-8.87,16.34-.59Z"/>
  <path class="cls-2" d="M169.85,49.62c-3.52,1.37-6.89,3.13-10,5.26,2.15,9.34,12.56,2.34,19.01,3.31.36-5.73-4.96-10.71-9-8.58ZM176.71,56.43c-4.57-.57-12.27,5.23-14.55-.8-.13-.61-.28-.47.44-.88,4.64-2.8,13.39-6.87,14.11,1.67-.78.07-.05-.31,0,0Z"/>
  <path class="cls-2" d="M171.47,46.86c.44.88.86,1.76,1.25,2.67-5.03.79-10.15,6.84-15.16,4.19-.71-.61-1.97-2.11-1.35-2.74,3.29-3.84,12.46-11.13,15.26-4.11Z"/>
  <path class="cls-2" d="M163.15,44.03c-2.79,2.26-6.62,4.72-8.25,7.74.48.56.93,1.15,1.35,1.75,4.82,5.06,11.99-3.1,17.71-3.38-1.05-5.63-7.42-9.16-10.82-6.11ZM171.46,48.96c-4.66.8-11.15,8.34-14.65,2.36,3.78-3.96,11.75-10.78,14.65-2.36-1.49.53-.26-.56,0,0Z"/>
  <path class="cls-2" d="M164.04,40.95c.64.75,1.27,1.5,1.86,2.29-5.01,2.02-9.68,11.32-15.32,6.49-.58-.47-.78-.27-.33-1.04,2.62-4.98,8.88-13.35,13.78-7.73Z"/>
  <path class="cls-2" d="M155.28,40.25c-1.59,2.24-6.28,7.31-5.9,9.67.88.57,1.6,1.42,2.5,1.94,5.91,1.5,10.01-6.55,15.4-8.33-3.46-6.41-9.8-6.41-12-3.28ZM164.55,42.99c-4.36,1.75-8.49,10.62-13.42,6.03,2.32-4.93,8.16-13.52,13.42-6.03Z"/>
  <path class="cls-2" d="M155.38,37.04c.81.56,1.61,1.14,2.37,1.76-4.65,3.47-6.87,13.92-14.08,9.73,1.62-5.98,5.82-16.27,11.71-11.49Z"/>
  <path class="cls-2" d="M146.72,38.53c-1.67,3.41-2.84,7.04-4.11,10.61,8.27,5.34,11.07-6.44,16.55-10.39-3.32-4.31-10.88-4.62-12.44-.22ZM156.38,38.9c-3.77,2.69-5.55,12.22-11.33,9.24-.72-.31-.23-.84,0-1.5,1.71-5.23,4.95-13.34,11.32-7.74Z"/>
  <path class="cls-2" d="M145.63,35.37c.92.31,1.86.67,2.74,1.09-3.59,5.25-3.77,16.55-12.81,12.07,1.55-4.34,3.38-15.42,10.07-13.16Z"/>
  <path class="cls-2" d="M138.31,38.42c-1.27,3.57-2.55,7.15-3.82,10.72,10.69,5.48,10.65-6.91,15.22-13.09-3.89-2.5-9.77-2.93-11.4,2.37ZM147.06,36.91c-2.77,4.21-3.12,14.6-10.44,11.01,2.07-4.7,3.02-15.11,10.44-11.01Z"/>
  <path class="cls-2" d="M137.56,35.34c4.5.39-.03,5.67-.32,8.3-.99,4.98-4.82,7.32-9.47,4.9,1.4-3.93,3.47-15.56,9.79-13.2Z"/>
  <path class="cls-2" d="M130.53,38.42c-1.27,3.57-2.55,7.15-3.82,10.72,10.16,5.49,11.54-6.5,14.19-13.36-3.29-2.56-9.05-2.08-10.37,2.63ZM135.72,45.52c-.93,3.03-4.26,3.84-6.88,2.41,2.06-3.84,1.79-10.52,6.63-11.92.21-.03,3.49.43,3.36.8-1.03,2.9-2.07,5.81-3.1,8.71Z"/>
  <path class="cls-2" d="M129.61,35.34c4.5.39-.03,5.67-.32,8.3-.99,4.98-4.82,7.32-9.47,4.9,1.4-3.93,3.47-15.56,9.79-13.2Z"/>
  <path class="cls-2" d="M122.57,38.42c-1.27,3.57-2.55,7.15-3.82,10.72,10.16,5.49,11.54-6.5,14.19-13.36-3.29-2.56-9.05-2.08-10.37,2.63ZM127.77,45.52c-.93,3.03-4.26,3.84-6.88,2.41,2.06-3.84,1.79-10.52,6.63-11.92.21-.03,3.49.43,3.36.8-1.03,2.9-2.07,5.81-3.1,8.71Z"/>
  <path class="cls-2" d="M121.82,35.34c4.5.39-.03,5.67-.32,8.3-.99,4.98-4.82,7.32-9.47,4.9,1.4-3.93,3.47-15.56,9.79-13.2Z"/>
  <path class="cls-2" d="M114.79,38.42c-1.27,3.57-2.55,7.15-3.82,10.72,10.16,5.49,11.54-6.5,14.19-13.36-3.29-2.56-9.05-2.08-10.37,2.63ZM123.1,36.78c-2.08,4.52-2.76,14.6-9.99,11.14,2.09-4.49,2.78-14.75,9.99-11.14Z"/>
  <path class="cls-2" d="M113.71,35.34c4.5.39-.03,5.67-.32,8.3-.99,4.98-4.82,7.32-9.47,4.9,1.4-3.93,3.47-15.56,9.79-13.2Z"/>
  <path class="cls-2" d="M106.67,38.42c-1.27,3.57-2.55,7.15-3.82,10.72,10.14,5.34,11.52-6.38,14.17-13.29-3.05-2.71-9.09-2.11-10.35,2.57ZM114.98,36.78c-2.08,4.52-2.76,14.6-9.99,11.14,2.09-4.49,2.78-14.75,9.99-11.14Z"/>
  <path class="cls-2" d="M82.23,35.34c4.5.39-.03,5.67-.31,8.3-.99,4.98-4.82,7.32-9.47,4.9,1.4-3.93,3.47-15.56,9.79-13.2Z"/>
  <path class="cls-2" d="M75.2,38.42c-1.27,3.57-2.55,7.15-3.82,10.72,10.16,5.49,11.54-6.5,14.19-13.36-3.29-2.56-9.05-2.08-10.37,2.63ZM83.51,36.78c-2.08,4.52-2.76,14.6-9.99,11.14,2.09-4.49,2.78-14.76,9.99-11.14Z"/>
  <path class="cls-2" d="M74.45,35.34c4.5.39-.03,5.67-.32,8.3-.99,4.98-4.82,7.32-9.47,4.9,1.4-3.93,3.47-15.56,9.79-13.2Z"/>
  <path class="cls-2" d="M67.41,38.42c-1.27,3.57-2.55,7.15-3.82,10.72,10.14,5.34,11.52-6.38,14.17-13.29-3.05-2.71-9.09-2.11-10.35,2.57ZM75.72,36.78c-2.08,4.52-2.77,14.6-9.99,11.14,2.09-4.49,2.78-14.76,9.99-11.14Z"/>
  <path class="cls-2" d="M66.66,35.34c4.5.39-.03,5.67-.31,8.3-.99,4.98-4.82,7.32-9.47,4.9,1.4-3.93,3.47-15.56,9.79-13.2Z"/>
  <path class="cls-2" d="M59.63,38.42c-1.27,3.57-2.55,7.15-3.82,10.72,10.14,5.34,11.52-6.38,14.17-13.29-3.05-2.71-9.09-2.11-10.35,2.57ZM67.93,36.78c-2.08,4.52-2.77,14.6-9.99,11.14,2.09-4.49,2.78-14.76,9.99-11.14Z"/>
  <path class="cls-2" d="M58.87,35.34c4.5.39-.03,5.67-.32,8.3-.99,4.98-4.82,7.32-9.47,4.9,1.4-3.93,3.47-15.56,9.79-13.2Z"/>
  <path class="cls-2" d="M51.84,38.42c-1.27,3.57-2.55,7.15-3.82,10.72,10.14,5.34,11.52-6.38,14.17-13.29-3.05-2.71-9.09-2.11-10.35,2.57ZM60.15,36.78c-2.08,4.52-2.76,14.6-9.99,11.14,2.09-4.49,2.78-14.75,9.99-11.14Z"/>
  <path class="cls-2" d="M50.76,35.34c4.5.39-.03,5.67-.32,8.3-.99,4.98-4.82,7.32-9.47,4.9,1.4-3.93,3.47-15.56,9.79-13.2Z"/>
  <path class="cls-2" d="M43.72,38.42c-1.27,3.57-2.55,7.15-3.82,10.72,10.14,5.34,11.52-6.38,14.17-13.29-3.05-2.71-9.09-2.11-10.35,2.57ZM48.92,45.52c-.93,3.03-4.26,3.84-6.88,2.41,2.06-3.84,1.79-10.52,6.63-11.92.21-.03,3.49.43,3.36.8-1.03,2.9-2.07,5.81-3.1,8.71Z"/>
  <path class="cls-2" d="M42.97,35.34c4.5.39-.03,5.67-.32,8.3-.99,4.98-4.82,7.32-9.47,4.9,1.4-3.93,3.47-15.56,9.79-13.2Z"/>
  <path class="cls-2" d="M35.94,38.42c-1.27,3.57-2.55,7.15-3.82,10.72,10.16,5.49,11.54-6.5,14.19-13.36-3.29-2.56-9.05-2.08-10.37,2.63ZM44.25,36.78c-2.08,4.52-2.76,14.6-9.99,11.14,2.09-4.49,2.78-14.76,9.99-11.14Z"/>
  <path class="cls-2" d="M35.19,35.34c4.5.39-.03,5.67-.32,8.3-.99,4.98-4.82,7.32-9.47,4.9,1.4-3.93,3.47-15.56,9.79-13.2Z"/>
  <path class="cls-2" d="M28.15,38.42c-1.27,3.57-2.55,7.15-3.82,10.72,10.16,5.49,11.54-6.5,14.19-13.36-3.29-2.56-9.05-2.08-10.37,2.63ZM36.46,36.78c-2.08,4.52-2.76,14.6-9.99,11.14,2.09-4.49,2.78-14.76,9.99-11.14Z"/>
  <path class="cls-2" d="M27.4,35.34c4.5.39-.03,5.67-.31,8.3-.99,4.98-4.82,7.32-9.47,4.9,1.4-3.93,3.47-15.56,9.79-13.2Z"/>
  <path class="cls-2" d="M20.37,38.42c-1.27,3.57-2.55,7.15-3.82,10.72,10.14,5.34,11.52-6.38,14.17-13.29-3.05-2.71-9.09-2.11-10.35,2.57ZM28.67,36.78c-2.08,4.52-2.77,14.6-9.99,11.14,2.09-4.49,2.78-14.76,9.99-11.14Z"/>
  <path class="cls-2" d="M19.28,35.34c4.5.39-.03,5.67-.32,8.3-.99,4.98-4.82,7.32-9.47,4.9,1.4-3.93,3.47-15.56,9.79-13.2Z"/>
  <path class="cls-2" d="M12.25,38.42c-1.27,3.57-2.55,7.15-3.82,10.72,10.16,5.49,11.54-6.5,14.19-13.36-3.29-2.56-9.05-2.08-10.37,2.63ZM20.56,36.78c-2.08,4.52-2.76,14.6-9.99,11.14,2.09-4.49,2.78-14.76,9.99-11.14Z"/>
  <path class="cls-2" d="M11.5,35.34c1.69.63,2.53.33,1.91,2.06-.74,2.08-1.48,4.16-2.23,6.24-.65,1.82-1.15,3.79-2.78,5.02-2.18,1.63-4.42.64-6.69-.12,1.4-3.93,3.47-15.56,9.79-13.2Z"/>
  <path class="cls-2" d="M4.46,38.42c-1.27,3.57-2.55,7.15-3.82,10.72,3.04,1.02,6.14,2.41,8.83-.27,1.85-1.85,2.51-5.09,3.37-7.48.52-1.45,1.03-2.9,1.55-4.35.14-.4.28-.79.42-1.19.12-.33-.04-.26-.37-.39-1.51-.56-3.18-1.44-4.83-1.33-2.45.15-4.35,2.06-5.14,4.29ZM12.77,36.78c-.91,2.54-1.81,5.08-2.72,7.62-.47,1.33-.94,2.64-2.15,3.52-1.69,1.22-3.37.6-5.13.01.89-2.5,1.78-5,2.67-7.5.46-1.3.88-2.62,2-3.54,1.72-1.41,3.48-.79,5.32-.1Z"/>
  <path class="cls-2" d="M43.83,162.87c-.29.8-.58,1.6-.87,2.4-5.71-2.35-16.94-3.83-12.33-12.48,4.07,1.49,15.55,3.6,13.2,10.07Z"/>
  <path class="cls-2" d="M40.75,155.63c-3.57-1.31-7.15-2.62-10.72-3.93-5.6,10.28,6.56,11.87,13.51,14.67,2.2-3.85,2.06-9.15-2.79-10.73ZM33.65,160.97c-3.08-.99-3.81-4.42-2.41-7.08,4.58,2.13,14.8,2.99,11.15,10.29-2.91-1.07-5.83-2.14-8.74-3.21Z"/>
  <path class="cls-2" d="M43.83,154.85c-.29.8-.58,1.6-.87,2.4-5.71-2.35-16.94-3.83-12.33-12.48,4.07,1.49,15.55,3.6,13.2,10.07Z"/>
  <path class="cls-2" d="M40.75,147.61c-3.57-1.31-7.15-2.62-10.72-3.93-5.6,10.28,6.56,11.87,13.51,14.67,2.2-3.85,2.06-9.15-2.79-10.73ZM42.39,156.17c-4.61-2.13-14.64-2.97-11.15-10.29,4.58,2.13,14.8,2.99,11.15,10.29Z"/>
  <path class="cls-2" d="M43.83,146.5c-.29.8-.58,1.6-.87,2.4-5.71-2.35-16.94-3.83-12.33-12.48,4.07,1.49,15.54,3.6,13.2,10.07Z"/>
  <path class="cls-2" d="M40.75,139.26c-3.57-1.31-7.15-2.62-10.72-3.93-5.6,10.28,6.56,11.87,13.51,14.67,2.2-3.85,2.06-9.15-2.79-10.73ZM42.39,147.81c-4.61-2.13-14.64-2.97-11.15-10.29,4.58,2.13,14.8,2.99,11.15,10.29Z"/>
  <path class="cls-2" d="M43.83,138.48c-.29.8-.58,1.6-.87,2.4-5.71-2.35-16.94-3.83-12.33-12.48,4.07,1.49,15.55,3.6,13.2,10.07Z"/>
  <path class="cls-2" d="M40.75,131.24c-3.57-1.31-7.15-2.62-10.72-3.93-5.6,10.28,6.56,11.87,13.51,14.67,2.2-3.85,2.06-9.15-2.79-10.73ZM42.39,139.8c-4.61-2.13-14.64-2.97-11.15-10.29,4.58,2.13,14.8,2.99,11.15,10.29Z"/>
  <path class="cls-2" d="M43.83,130.47c-.29.8-.58,1.6-.87,2.4-5.71-2.35-16.94-3.83-12.33-12.48,4.07,1.49,15.55,3.6,13.2,10.07Z"/>
  <path class="cls-2" d="M40.75,123.23c-3.57-1.31-7.15-2.62-10.72-3.93-5.6,10.28,6.56,11.87,13.51,14.67,2.2-3.85,2.06-9.15-2.79-10.73ZM33.65,128.57c-3.08-.99-3.81-4.42-2.41-7.08,4.58,2.13,14.8,2.99,11.15,10.29-2.91-1.07-5.83-2.14-8.74-3.21Z"/>
  <path class="cls-2" d="M43.83,122.45c-.29.8-.58,1.6-.87,2.4-5.71-2.35-16.94-3.83-12.33-12.48,4.07,1.49,15.55,3.6,13.2,10.07Z"/>
  <path class="cls-2" d="M40.75,115.21c-3.57-1.31-7.15-2.62-10.72-3.93-5.6,10.28,6.56,11.87,13.51,14.67,2.2-3.85,2.06-9.15-2.79-10.73ZM42.39,123.77c-4.62-2.13-14.64-2.97-11.15-10.29,4.58,2.13,14.8,2.99,11.15,10.29Z"/>
  <path class="cls-2" d="M43.83,114.1c-.29.8-.58,1.6-.87,2.4-5.71-2.35-16.94-3.83-12.33-12.48,4.07,1.49,15.55,3.6,13.2,10.07Z"/>
  <path class="cls-2" d="M40.75,106.86c-3.57-1.31-7.15-2.62-10.72-3.93-5.6,10.28,6.56,11.87,13.51,14.67,2.2-3.85,2.06-9.15-2.79-10.73ZM42.39,115.41c-4.62-2.13-14.64-2.97-11.15-10.29,4.58,2.13,14.8,2.99,11.15,10.29Z"/>
  <path class="cls-2" d="M43.83,106.08c-.29.8-.58,1.6-.87,2.4-5.71-2.35-16.94-3.83-12.33-12.48,4.07,1.49,15.54,3.6,13.2,10.07Z"/>
  <path class="cls-2" d="M40.75,98.84c-3.57-1.31-7.15-2.62-10.72-3.93-5.6,10.28,6.56,11.87,13.51,14.67,2.2-3.85,2.06-9.15-2.79-10.73ZM42.39,107.39c-4.62-2.13-14.64-2.97-11.15-10.29,4.58,2.13,14.8,2.99,11.15,10.29Z"/>
  <path class="cls-2" d="M43.83,98.07c-.29.8-.58,1.6-.87,2.4-5.71-2.35-16.94-3.83-12.33-12.48,4.07,1.49,15.54,3.6,13.2,10.07Z"/>
  <path class="cls-2" d="M40.75,90.83c-3.57-1.31-7.15-2.62-10.72-3.93-5.6,10.28,6.56,11.87,13.51,14.67,2.2-3.85,2.06-9.15-2.79-10.73ZM42.39,99.38c-4.62-2.13-14.64-2.97-11.15-10.29,4.58,2.13,14.8,2.99,11.15,10.29Z"/>
  <path class="cls-2" d="M43.83,90.05c-.29.8-.58,1.6-.87,2.4-5.71-2.35-16.94-3.83-12.33-12.48,4.07,1.49,15.54,3.6,13.2,10.07Z"/>
  <path class="cls-2" d="M40.75,82.81c-3.57-1.31-7.15-2.62-10.72-3.93-5.6,10.28,6.56,11.87,13.51,14.67,2.2-3.85,2.06-9.15-2.79-10.73ZM42.39,91.36c-4.61-2.13-14.64-2.97-11.15-10.29,4.58,2.13,14.8,2.99,11.15,10.29Z"/>
  <path class="cls-2" d="M43.83,81.7c-.29.8-.58,1.6-.87,2.4-5.71-2.35-16.94-3.83-12.33-12.48,4.07,1.49,15.55,3.6,13.2,10.07Z"/>
  <path class="cls-2" d="M40.75,74.46c-3.57-1.31-7.15-2.62-10.72-3.93-5.6,10.28,6.56,11.87,13.51,14.67,2.2-3.85,2.06-9.15-2.79-10.73ZM42.39,83.01c-4.62-2.13-14.64-2.97-11.15-10.29,4.58,2.13,14.8,2.99,11.15,10.29Z"/>
  <path class="cls-2" d="M43.83,73.68c-.29.8-.58,1.6-.87,2.4-5.71-2.35-16.94-3.83-12.33-12.48,4.07,1.49,15.55,3.6,13.2,10.07Z"/>
  <path class="cls-2" d="M40.75,66.44c-3.57-1.31-7.15-2.62-10.72-3.93-5.6,10.28,6.56,11.87,13.51,14.67,2.2-3.85,2.06-9.15-2.79-10.73ZM42.39,74.99c-4.62-2.13-14.64-2.97-11.15-10.29,4.58,2.13,14.8,2.99,11.15,10.29Z"/>
  <path class="cls-2" d="M43.83,65.67c-.29.8-.58,1.6-.87,2.4-5.71-2.35-16.94-3.83-12.33-12.48,4.07,1.49,15.55,3.6,13.2,10.07Z"/>
  <path class="cls-2" d="M40.75,58.43c-3.57-1.31-7.15-2.62-10.72-3.93-5.6,10.28,6.56,11.87,13.51,14.67,2.2-3.85,2.06-9.15-2.79-10.73ZM42.39,66.98c-4.62-2.13-14.64-2.97-11.15-10.29,4.58,2.13,14.8,2.99,11.15,10.29Z"/>
  <path class="cls-2" d="M46.13,28.73c-2.3,3.23-6.49-3.75-8.39-5.41-3.63-4.49-.04-8.1,4-10.31.56,5.23,8.31,10.83,4.39,15.72Z"/>
  <path class="cls-2" d="M46.88,22.19c-1.96-3.29-3.49-6.84-4.54-10.53-12.77,5-5.58,14.77,2.71,19.13,3.28-1.86,4.08-5.51,1.83-8.6-1.91-3.21.36.6,0,0ZM44.38,29.02c-4.52-3.58-11.53-11.03-3.19-14.66.77,4.79,8.95,10.7,3.19,14.66-.57-.49.17-.15,0,0Z"/>
  <path class="cls-2" d="M49.76,23.62c-.52.2-1.02.41-1.53.64-2.53-1.56-3.74-6.1-5.16-8.86-1.96-5.02,3.17-7.29,7.06-8.11-.89,5.09,4.68,13.37-.37,16.33Z"/>
  <path class="cls-2" d="M52.38,17.58c-.93-3.72-1.33-7.56-1.27-11.39-13.7,1.15-9.56,12.32-3.08,19.15,4.89-.95,5.21-5.59,4.35-7.76ZM48,23.4c-3.22-4.98-8.01-13.62,1.22-14.95-.67,4.83,5.45,12.8-1.22,14.95-.82-1.29.41-.2,0,0Z"/>
  <path class="cls-2" d="M54.49,19.91c-.67.05-1.36.11-2.02.25-2.72-7.53-4.48-17.44,6.96-15.8-2.24,4.33.68,14.34-4.94,15.55Z"/>
  <path class="cls-2" d="M58.69,14.86c.15-3.83.85-7.64,1.99-11.29-13.22-2.88-12.4,8.81-8.56,17.55,5.24.15,6.69-3.46,6.57-6.26ZM52.87,19.21c-1.71-5.74-3.89-15.24,5.36-14.01-1.86,4.45,1.6,13.84-5.36,14.01-.11-.36.23-.03,0,0Z"/>
  <path class="cls-2" d="M60.06,17.69c-.29-.07-1.79-.1-2.01-.33-.53-7.77.74-18.24,11.1-13.22-3.45,3.79-3.36,13.9-9.1,13.55Z"/>
  <path class="cls-2" d="M65.53,14.02c1.23-3.62,2.92-7.12,5.06-10.3-11.6-6.28-14.33,4.56-13.16,14,.05.64.16.46.71.53,4.43,1.7,6.99-2.23,7.39-4.23ZM58.7,16.55c-.02-5.94.58-15.75,9.07-11.94-3.03,3.74-2.35,13.75-9.07,11.94Z"/>
  <path class="cls-2" d="M66.05,17.12c-2.26-.65-1.86-1.92-.97-3.92,1.98-7.72,6.17-12.71,13.5-6.54-4.37,2.55-6.83,12.22-12.53,10.46Z"/>
  <path class="cls-2" d="M72.32,15.11c2.21-3.15,4.82-5.97,7.75-8.45-9.19-9.1-14.89-.08-16.48,9.31-.18.8-.3.83.44,1.15,2.98,2.27,6.49,1.1,8.29-2.01,1.06-1.52-.4.58,0,0ZM65.06,15.65c1.64-5.66,5.02-15.02,12.06-8.92-4.06,2.68-6.07,12.49-12.06,8.92.22-.72.42.2,0,0Z"/>
  <path class="cls-2" d="M72.19,18.32c-.36-.36-.73-.71-1.11-1.04-.41-2.35,4.32-6.39,5.86-8.43,3.73-3.81,7.99-.13,10.28,3.14-5.02,1.25-10.23,9.72-15.04,6.33Z"/>
  <path class="cls-2" d="M78.77,18.25c3.03-2.36,6.36-4.31,9.88-5.82-6.44-11.39-14-4.53-18.47,4.09-.97,1.1.6,1.38,1.13,2.17,2.12,3.03,6.82.31,7.45-.43ZM71.68,16.63c3.23-5.02,9.13-12.87,14.13-5-4.64,1.38-9.48,10.24-14.13,5,.21-.32.09.07,0,0Z"/>
  <path class="cls-2" d="M77.5,21.13c-1.14-1.54-.94-2.35.85-3.41,5.41-5.44,12.94-7.92,15.37,1.53-5.14-.29-12.23,6.52-16.22,1.88Z"/>
  <path class="cls-2" d="M83.85,22.9c3.56-1.43,7.31-2.37,11.11-2.84-2.46-10.96-10.27-9.58-17-2.97-.75.99-3.32,1.95-1.91,3.28,1.14,3.43,4.85,3.95,7.8,2.52,3.47-1.39-.65.26,0,0ZM77.48,19.36c4.26-3.87,12.7-9.62,14.98-.85-4.84.04-11.99,7.2-14.98.85Z"/>
  <path class="cls-2" d="M81.83,25.31c-.09-.44-.2-.88-.33-1.31-.32-1.1-.18-.43.37-.94,6.71-3.57,16.54-6.1,16.06,4.99-4.87-1.51-14.41,2.49-16.1-2.74Z"/>
  <path class="cls-2" d="M87.42,28.78c3.82-.38,7.67-.22,11.46.4.94-13.16-10.03-11.21-18.18-6.27-.61.33-.3.5-.12,1.09.04,4.5,5.25,5.25,6.84,4.78ZM82.3,23.61c5.4-2.48,14.63-5.96,14.62,3.37-4.68-1.37-13.44,3.53-14.62-3.37.35-.16.14.43,0,0Z"/>
  <path class="cls-2" d="M86.29,91.15c.29-.8.58-1.6.87-2.4,5.71,2.35,16.94,3.83,12.33,12.48-4.07-1.49-15.54-3.6-13.2-10.07Z"/>
  <path class="cls-2" d="M89.37,98.39c3.57,1.31,7.15,2.62,10.72,3.93,5.6-10.28-6.56-11.87-13.51-14.67-2.2,3.85-2.06,9.15,2.79,10.73ZM96.47,93.04c3.08.99,3.81,4.41,2.41,7.08-4.58-2.13-14.8-2.99-11.15-10.29,2.91,1.07,5.83,2.14,8.74,3.21Z"/>
  <path class="cls-2" d="M86.29,99.16c.29-.8.58-1.6.87-2.4,5.71,2.35,16.94,3.83,12.33,12.48-4.07-1.49-15.54-3.6-13.2-10.07Z"/>
  <path class="cls-2" d="M89.37,106.4c3.57,1.31,7.15,2.62,10.72,3.93,5.6-10.28-6.56-11.87-13.51-14.67-2.2,3.85-2.06,9.15,2.79,10.73ZM87.73,97.85c4.61,2.13,14.64,2.97,11.15,10.29-4.58-2.13-14.8-2.99-11.15-10.29Z"/>
  <path class="cls-2" d="M87.5,141.64c.02-1.03.08-2.06.21-3.08,4.79,2.37,14.33-1.37,15.62,5.41.24,1.4.22,1.37-1.26,1.83-4.86,1.51-14.65,3.96-14.57-4.16Z"/>
  <path class="cls-2" d="M93.6,148.44c3.44-.71,8.33-.98,10.88-3.16-.23-1-.31-2.07-.56-3.07-3.17-5.28-11.89-2.21-17-4.88-1.38,4.86.56,11.74,6.67,11.11,3.83-.47-.72.09,0,0ZM88.52,139.74c4.33,1.88,13.22-1.72,13.98,4.72.14.77-.56.66-1.24.84-5.52,1.66-14.05,2.99-12.74-5.56,1.57.31-.04.64,0,0Z"/>
  <path class="cls-2" d="M91.4,150.8c-.25-1-.47-2-.66-3.01,5.46.83,13.35-5.25,16.63,1.09.36.73.75.8-.02,1.33-4.64,3.63-14.1,7.95-15.95.59Z"/>
  <path class="cls-2" d="M99.15,155.63c3.35-1.52,7.05-3.36,9.72-5.82-.43-.76-.84-1.54-1.17-2.35-3.78-5.51-12.42.64-18.04-.63-.24,5.86,5.31,11.14,9.5,8.8ZM91.86,148.69c3.96.41,14.82-5.47,14.57,1.31-4.89,3.15-13.35,7.73-14.57-1.31Z"/>
  <path class="cls-2" d="M97.7,158.5c-.52-.89-1.01-1.78-1.47-2.7,5.3-.91,12.07-9.32,16.52-3.3.65.7.42.64-.1,1.27-3.16,4.26-11.38,11.67-14.95,4.74Z"/>
  <path class="cls-2" d="M106.48,161c2.82-2.31,5.37-4.95,7.53-7.89.44-.83-1.44-1.85-1.86-2.67-4.99-3.47-11.66,4.31-17.23,4.73,1.4,5.67,8.19,9.23,11.56,5.82ZM97.55,156.35c4.17-.69,12.22-9.35,14.38-2.81-3.78,4.38-10.76,11.21-14.38,2.81.37-.14.07.15,0,0Z"/>
  <path class="cls-2" d="M105.88,164.15c-.76-.7-1.47-1.43-2.16-2.19,5-2.49,8.9-12.04,15.1-7.68.98.57-1.22,3.95-1.74,4.88-1.8,4.47-6.63,9.16-11.2,4.98Z"/>
  <path class="cls-2" d="M115.02,164.11c2.07-2.98,3.76-6.24,5.02-9.65.53-.64-3.06-2.4-3.73-2.48-5.81.56-8.74,7.49-14.02,9.74,2.7,4.89,10.37,6.69,12.74,2.38ZM105.14,162.13c4.3-2,7.55-11.13,12.89-7.27.51.32.16.54-.08,1.02-2.19,5.15-7.53,13.08-12.81,6.24.32-.24.11.12,0,0Z"/>
  <path class="cls-2" d="M115.75,167.38c-.93-.44-1.82-.94-2.71-1.46,4.13-3.36,4.89-14.1,11.72-11.86.94.29,1.1-.1.96,1.1-.63,5.45-2.27,15.51-9.97,12.23Z"/>
  <path class="cls-2" d="M124.46,164.69c.63-2.74,2.91-9.12,1.59-11.23-1.47-.23-2.87-1.12-4.38-.62-4.9,2.79-5.84,9.54-10.08,13.27,4.24,3.83,11.64,3.55,12.87-1.42ZM114.45,165.66c3.13-2.79,5.21-14.6,10.53-10.15-.62,5.63-3.26,15.22-10.53,10.15Z"/>
  <path class="cls-2" d="M125.68,167.67c-1.01-.17-2.02-.39-3-.67,2.68-4.57,1-15.5,8.5-14.64,1.08,0,1.04,3.18,1.12,4.18.99,5.3-.45,12.24-6.62,11.13Z"/>
  <path class="cls-2" d="M133.32,162.67c-.23-3.46.39-8.59-1.58-11.23-.75.05-1.51.09-2.26.05-6.33.75-4.75,11.7-8.13,16.11,5.19,2.74,12.35-.2,11.97-4.93ZM123.96,166.37c2.51-4.02.29-13.44,6.87-13.11,1.19,1.12.51,4.23.8,5.99.82,5.17-2.45,8.81-7.66,7.11.54-1.5.63.14,0,0Z"/>
  <path class="cls-2" d="M135.32,165.19c-1.03.1-2.05.17-3.08.2,1.52-4.97-2.89-13.09,2.54-15.99,1.13-.28,1.85-1.09,2.44.12,2.49,4.5,5.98,15.49-1.9,15.66Z"/>
  <path class="cls-2" d="M141.26,158.25c-.96-3.66-2.36-7.21-4.22-10.51-9.37,1.34-3.83,12.26-5.91,18.58,5.72,1.09,11.81-3.51,10.13-8.07ZM133.31,164.42c1.15-4.71-3.52-13.32,3.29-14.63,2.54,5.18,5.84,14.91-3.29,14.63.05-.79.32-.02,0,0Z"/>
  <path class="cls-2" d="M143.88,160.11c-.95.39-1.91.74-2.89,1.05-.33-5.55-7.24-13.1-.64-16.93.94-.65,3.06,2.76,3.7,3.63,3.31,3.49,5.52,9.86-.16,12.25Z"/>
  <path class="cls-2" d="M147.67,151.81c-2.03-2.88-4.28-7.3-7.26-8.72-.75.6-1.6,1.05-2.39,1.59-4.08,4.42,2.58,12.15,2.17,17.69,7.47-1.02,9.74-7.77,7.48-10.56ZM141.73,159.93c-.04-4.73-6.89-11.39-1.28-14.7.64-.66,1.1.86,1.59,1.23,3.62,4.28,7.76,11.48-.31,13.47-.09-.39.15-.05,0,0Z"/>
  <path class="cls-2" d="M150.94,152.52c-.81.64-1.62,1.25-2.47,1.84-1.54-4.96-10.13-9.91-6.2-15.19.72-.8.67-1.48,1.75-.82,5.72,2.96,12.88,10.23,6.91,14.18Z"/>
  <path class="cls-2" d="M152.16,143.47c-2.54-1.92-6.6-6.16-9.54-6.15-.39.53-.81,1.06-1.26,1.54-3.87,5.53,5.49,11.3,6.68,16.88,6.6-3.04,7.29-10,4.12-12.28ZM148.83,152.97c-1.45-4.49-9.96-9.01-5.41-13.77.34-.23,0-.44.55-.08,4.9,3.11,12.68,9.07,4.86,13.85Z"/>
  <path class="cls-2" d="M157.17,108.99c-.29.8-.58,1.6-.87,2.4-5.71-2.35-16.94-3.83-12.33-12.48,4.07,1.49,15.54,3.6,13.2,10.07Z"/>
  <path class="cls-2" d="M154.09,101.75c-3.57-1.31-7.15-2.62-10.72-3.93-5.6,10.28,6.56,11.87,13.51,14.67,2.2-3.85,2.06-9.15-2.79-10.73ZM155.72,110.31c-4.61-2.13-14.64-2.97-11.15-10.29,4.58,2.13,14.8,2.99,11.15,10.29Z"/>
  <path class="cls-2" d="M157.17,100.98c-.29.8-.58,1.6-.87,2.4-5.71-2.35-16.94-3.83-12.33-12.48,4.07,1.49,15.54,3.6,13.2,10.07Z"/>
  <path class="cls-2" d="M154.09,93.74c-3.57-1.31-7.15-2.62-10.72-3.93-5.6,10.28,6.56,11.87,13.51,14.67,2.2-3.85,2.06-9.15-2.79-10.73ZM155.72,102.29c-4.62-2.13-14.64-2.97-11.15-10.29,4.58,2.13,14.8,2.99,11.15,10.29Z"/>
  <path class="cls-2" d="M157.17,92.96c-.29.8-.58,1.6-.87,2.4-5.71-2.35-16.94-3.83-12.33-12.48,4.07,1.49,15.54,3.6,13.2,10.07Z"/>
  <path class="cls-2" d="M154.09,85.72c-3.57-1.31-7.15-2.62-10.72-3.93-5.6,10.28,6.56,11.87,13.51,14.67,2.2-3.85,2.06-9.15-2.79-10.73ZM155.72,94.28c-4.61-2.13-14.64-2.97-11.15-10.29,4.58,2.13,14.8,2.99,11.15,10.29Z"/>
  <path class="cls-2" d="M157.17,84.61c-.29.8-.58,1.6-.87,2.4-5.71-2.35-16.94-3.83-12.33-12.48,4.07,1.49,15.54,3.6,13.2,10.07Z"/>
  <path class="cls-2" d="M154.09,77.37c-3.57-1.31-7.15-2.62-10.72-3.93-5.6,10.28,6.56,11.87,13.51,14.67,2.2-3.85,2.06-9.15-2.79-10.73ZM155.72,85.92c-4.62-2.13-14.64-2.97-11.15-10.29,4.58,2.13,14.8,2.99,11.15,10.29Z"/>
  <path class="cls-2" d="M157.17,76.59c-.29.8-.58,1.6-.87,2.4-5.71-2.35-16.94-3.83-12.33-12.48,4.07,1.49,15.54,3.6,13.2,10.07Z"/>
  <path class="cls-2" d="M154.09,69.35c-3.57-1.31-7.15-2.62-10.72-3.93-5.6,10.28,6.56,11.87,13.51,14.67,2.2-3.85,2.06-9.15-2.79-10.73ZM155.72,77.91c-4.62-2.13-14.64-2.97-11.15-10.29,4.58,2.13,14.8,2.99,11.15,10.29Z"/>
  <path class="cls-2" d="M157.17,28.16c-.29.8-.58,1.6-.87,2.4-5.71-2.35-16.94-3.83-12.33-12.48,4.07,1.49,15.54,3.6,13.2,10.07Z"/>
  <path class="cls-2" d="M154.09,20.92c-3.57-1.31-7.15-2.62-10.72-3.93-5.6,10.28,6.56,11.87,13.51,14.66,2.2-3.85,2.06-9.15-2.79-10.73ZM155.72,29.48c-4.62-2.13-14.64-2.97-11.15-10.29,4.58,2.13,14.8,2.99,11.15,10.29Z"/>
  <path class="cls-2" d="M157.17,19.81c-.29.8-.58,1.6-.87,2.4-5.71-2.35-16.94-3.83-12.33-12.48,4.07,1.49,15.54,3.6,13.2,10.07Z"/>
  <path class="cls-2" d="M154.09,12.57c-3.57-1.31-7.15-2.62-10.72-3.93-5.6,10.28,6.56,11.87,13.51,14.67,2.2-3.85,2.06-9.15-2.79-10.73ZM155.72,21.12c-4.61-2.13-14.64-2.97-11.15-10.29,4.58,2.13,14.8,2.99,11.15,10.29Z"/>
  <path class="cls-2" d="M157.17,11.79c-.29.8-.58,1.6-.87,2.4-5.71-2.35-16.94-3.83-12.33-12.48,4.07,1.49,15.54,3.6,13.2,10.07Z"/>
  <path class="cls-2" d="M154.09,4.55c-3.57-1.31-7.15-2.62-10.72-3.93-5.6,10.28,6.56,11.87,13.51,14.67,2.2-3.85,2.06-9.15-2.79-10.73ZM155.72,13.1c-4.62-2.13-14.64-2.97-11.15-10.29,4.58,2.13,14.8,2.99,11.15,10.29Z"/>
  <g>
    <g>
      <path class="cls-1" d="M423.06,107.69c.16-.8.34-1.6.44-2.41,3.13.64,8.55,1.4,11.01,3.81,2.78,2.73,1.62,6.55.43,9.71-2.71-1.8-5.55-3.4-8.51-4.77-2.41-1.11-3.91-3.7-3.37-6.34.16-.79-.03.16,0,0Z"/>
      <path class="cls-1" d="M426.07,114.78c3.23,1.56,6.31,3.39,9.25,5.45.99-2.68,2.34-5.57,1.6-8.48-.7-2.76-2.5-4.26-5.12-5.14-2.94-.98-5.95-1.74-9-2.28-.2,1.3-.53,2.59-.67,3.9-.29,2.81,1.46,5.36,3.94,6.55.79.38-.29-.14,0,0ZM424.2,106.24c1.66.4,3.31.85,4.93,1.39,1.71.57,3.88,1.01,5.08,2.47,1.87,2.26,1.13,4.8.34,7.28-1.44-.88-2.91-1.72-4.41-2.5-1.47-.76-3.29-1.29-4.57-2.36-2.08-1.73-1.84-3.93-1.38-6.28Z"/>
    </g>
    <g>
      <path class="cls-1" d="M423.05,114.62c.32-.76.63-1.51.91-2.29,3.45,1.47,9.03,3.31,10.57,6.87,1.28,3.13-.36,6.05-2.01,8.65-2.16-2.16-4.47-4.17-6.93-5.99-2.3-1.7-3.78-4.4-2.55-7.24Z"/>
      <path class="cls-1" d="M424.62,122.17c2.86,2.17,5.51,4.57,7.98,7.17,2.11-3.36,4.58-7.19,2.4-11.2-1.16-2.13-3.59-3.14-5.65-4.21-1.92-.99-3.89-1.87-5.89-2.67-.71,1.89-1.93,3.94-1.67,6.03.17,1.95,1.28,3.72,2.83,4.88,1.39,1.05-.53-.4,0,0ZM432.05,117.6c1.8,1.16,2.42,3.48,1.94,5.49-.29,1.2-.98,2.24-1.58,3.3-1.26-1.17-2.55-2.31-3.9-3.38-1.26-1-2.85-1.84-3.88-3.08-1.79-2.06-1.11-4.28-.18-6.5,2.62,1.22,5.17,2.6,7.59,4.16.51.33-2.44-1.58,0,0Z"/>
    </g>
    <g>
      <path class="cls-1" d="M421.7,122.19c.48-.66.9-1.37,1.33-2.07,1.76,1.18,3.47,2.45,5.1,3.81,1.67,1.39,3.49,2.69,3.98,4.92.72,3.33-1.52,5.86-3.6,8.11-1.97-2.92-4.45-5.37-6.53-8.18-1.41-1.91-1.66-4.61-.28-6.6.48-.66-.19.27,0,0Z"/>
      <path class="cls-1" d="M421.82,129.89c2.4,2.66,4.56,5.53,6.48,8.55,1.49-1.59,3.21-3.21,4.11-5.23.94-2.09.99-4.75-.28-6.72-.9-1.4-2.42-2.45-3.71-3.47-1.83-1.44-3.72-2.8-5.69-4.03-.9,1.72-2.4,3.2-2.72,5.17-.34,2.07.42,4.21,1.81,5.74ZM423.3,121.28c1.77,1.25,3.45,2.61,5.08,4.04,1.07.94,2.24,1.86,2.73,3.25.96,2.77-.75,4.96-2.43,6.93-1.8-2.47-3.86-4.65-5.83-6.98-.85-1-1.31-2.29-1.24-3.61.08-1.46,1-2.43,1.69-3.64,1.18.83-.27.46,0,0Z"/>
    </g>
    <g>
      <path class="cls-1" d="M418.81,129.64c.6-.56,1.15-1.16,1.71-1.76,2.36,2.39,6.38,5.96,7.06,9.26.76,3.83-2.21,6.37-5,8.33-1.26-3-2.75-5.91-4.46-8.68-1.37-2.23-1.24-5.29.7-7.15Z"/>
      <path class="cls-1" d="M417.4,137.23c1.83,3.08,3.38,6.31,4.68,9.65,3.14-2.25,6.65-4.64,6.49-8.99-.09-2.4-1.7-4.13-3.16-5.89-1.54-1.86-3.2-3.63-4.96-5.29-.95,1.16-2.31,2.14-3.1,3.41-1.45,2.1-1.22,4.99.06,7.11.89,1.5-.34-.57,0,0ZM420.55,129.07c1.07,1.13,2.08,2.32,3.05,3.53.95,1.18,2.12,2.45,2.77,3.83,1.54,3.28-1.01,5.8-3.35,7.65-.67-1.46-1.39-2.91-2.17-4.31-.77-1.39-1.83-2.73-2.44-4.2-.64-1.55-.53-3.31.46-4.7.46-.68,1.14-1.18,1.68-1.79Z"/>
    </g>
    <g>
      <path class="cls-1" d="M414.69,136.14c.7-.44,1.35-.93,2.02-1.41,2.17,3.25,6.42,8.45,4.79,12.6-1.06,2.66-3.6,3.96-6.07,5.07-.66-3.19-1.6-6.32-2.76-9.37-.93-2.43-.23-5.45,2.03-6.89Z"/>
      <path class="cls-1" d="M411.89,143.32c1.24,3.35,2.14,6.84,2.8,10.36,2.09-.96,4.4-1.87,6.02-3.55,1.58-1.64,2.5-4.12,1.95-6.38-.52-2.15-2-4.28-3.13-6.15-.84-1.38-1.72-2.73-2.66-4.05-1.22.96-2.75,1.74-3.79,2.88-1.69,1.85-2.03,4.58-1.18,6.89.16.42-.23-.62,0,0ZM416.52,135.9c.83,1.32,1.61,2.67,2.34,4.04.7,1.31,1.63,2.83,2,4.28.89,3.49-2.07,5.51-4.73,6.88-.42-1.69-.89-3.37-1.45-5.02-.55-1.62-1.51-3.33-1.59-5.06-.13-2.6,1.61-3.78,3.43-5.12Z"/>
    </g>
    <g>
      <path class="cls-1" d="M409.44,141.75c.77-.29,1.5-.66,2.25-1.01,1.49,3.52,4.76,9.62,2.34,13.28-1.55,2.42-4.27,3.21-6.92,3.84-.05-2.99-.33-5.98-.82-8.93-.48-2.89.17-5.93,3.15-7.18Z"/>
      <path class="cls-1" d="M405.33,148.28c.59,3.53.82,7.12.8,10.7,3.5-.86,7.37-1.7,9.06-5.28,1.09-2.31.43-4.43-.3-6.74-.8-2.5-1.75-4.95-2.85-7.34-1.33.69-2.95,1.15-4.15,2.03-2.05,1.57-2.99,4.09-2.57,6.63.15.88-.11-.65,0,0ZM413.87,150.13c.43,1.81-.41,3.63-1.76,4.83-1.13,1.01-2.66,1.34-4.07,1.76-.16-2.93-.5-5.84-1.05-8.73-.28-1.54.1-3.21,1.19-4.37.85-.9,2.01-1.26,3.1-1.77,1.06,2.69,1.93,5.46,2.6,8.28.14.58-.08-.36,0,0Z"/>
    </g>
    <g>
      <path class="cls-1" d="M403.22,146.27c.81-.15,1.6-.37,2.39-.57.72,3.33,2.38,8.87.76,12.1-1.61,3.2-5.25,3.75-8.48,3.85.6-3.55.34-7.27,1.01-10.76.42-2.22,2.05-4.18,4.32-4.62Z"/>
      <path class="cls-1" d="M397.96,151.9c-.1,3.58-.53,7.15-1.24,10.65,3.47-.16,7.29-.24,9.67-3.18,1.71-2.12,1.51-4.44,1.21-6.98-.32-2.61-.78-5.19-1.42-7.74-1.46.44-3.17.59-4.53,1.25-2.27,1.11-3.62,3.49-3.69,5.99-.01.44.02-.66,0,0ZM405,146.72c.37,1.98.64,3.98.82,5.99.15,1.71.45,3.5-.44,5.06-1.35,2.37-3.91,2.71-6.35,2.93.2-1.46.36-2.93.46-4.4.12-1.77-.09-3.69.26-5.43.25-1.27,1.03-2.5,2.15-3.18.95-.59,2.05-.71,3.1-.98Z"/>
    </g>
    <g>
      <path class="cls-1" d="M395.96,149.65c.82.02,1.64-.05,2.46-.09.06,3.89.77,10.63-2.84,13.18-2.38,1.67-5.17,1.3-7.86.94,1.24-3.24,1.91-6.58,2.93-9.87.72-2.32,2.82-4.17,5.32-4.16Z"/>
      <path class="cls-1" d="M389.7,154.13c-.8,3.49-1.93,6.9-3.31,10.2,3.56.55,7.47,1.21,10.39-1.45,1.89-1.73,2.07-3.94,2.28-6.36.2-2.62.25-5.25.12-7.87-1.37.13-2.82,0-4.17.23-2.69.42-4.71,2.66-5.31,5.25-.1.43.15-.64,0,0ZM397.62,150.44c-.02,2.02-.15,4.03-.37,6.04-.19,1.78-.27,3.63-1.56,5.01-1.76,1.93-4.33,1.73-6.68,1.48.49-1.39.94-2.8,1.32-4.22.44-1.62.66-3.35,1.2-4.94.42-1.24,1.35-2.35,2.56-2.9,1.12-.51,2.34-.41,3.53-.46,0,.71-.27.01,0,0Z"/>
    </g>
    <g>
      <path class="cls-1" d="M388.51,151.49c.8.16,1.62.27,2.43.38-.64,3.61-1.22,9.88-4.62,12.03-2.76,1.74-5.73.71-8.55-.19,1.71-2.78,3.21-5.66,4.5-8.66,1.03-2.38,3.59-4.12,6.24-3.56.1.02-.65-.14,0,0Z"/>
      <path class="cls-1" d="M381.5,154.7c-1.45,3.27-3.17,6.43-5.15,9.41,3.39,1.33,7.34,2.54,10.66.39,2.1-1.36,2.67-3.6,3.29-5.89.67-2.47,1.2-4.97,1.56-7.5-1.21-.13-2.4-.34-3.6-.52-2.9-.42-5.61,1.53-6.75,4.11-.36.8.27-.6,0,0ZM389.98,152.57c-.33,1.61-.73,3.21-1.19,4.79-.42,1.44-.76,3.18-1.59,4.45-1.86,2.83-5.28,2.4-8.04,1.46,1.48-2.53,2.77-5.18,3.87-7.89.47-1.15,1.36-2.13,2.48-2.68,1.46-.71,2.94-.35,4.46-.12-.57,2.82-.54-.08,0,0Z"/>
    </g>
    <g>
      <path class="cls-1" d="M380.82,151.88c.77.28,1.53.59,2.32.82-1.36,3.65-3.24,10.09-7.51,11.2-2.82.73-5.28-.69-7.66-2.02,2.38-2.59,4.22-5.55,6.47-8.22,1.54-1.83,4.1-2.65,6.37-1.77Z"/>
      <path class="cls-1" d="M373.34,153.74c-2.04,2.94-4.31,5.74-6.84,8.27,1.98,1.14,4.08,2.53,6.39,2.86,2.12.3,4.38-.23,5.97-1.72,1.63-1.54,2.52-4.13,3.42-6.14.71-1.59,1.34-3.22,1.91-4.86-1.47-.46-2.97-1.21-4.49-1.43-2.49-.37-4.96,1.01-6.36,3.03-.5.72.19-.27,0,0ZM382.07,153.23c-.7,1.69-1.47,3.36-2.32,4.98-.67,1.28-1.3,2.85-2.4,3.83-2.46,2.17-5.41.96-7.91-.33,1.14-1.32,2.23-2.69,3.26-4.09.95-1.3,1.73-2.95,2.94-4.01,2.04-1.79,4.15-1.21,6.42-.38Z"/>
    </g>
    <g>
      <path class="cls-1" d="M373.21,150.84c.7.43,1.4.84,2.12,1.24-.97,1.58-2.01,3.12-3.12,4.61-1.17,1.57-2.39,3.58-4.21,4.44-3.5,1.66-6.74-.65-9.29-2.9,2.84-2.09,5.19-4.66,7.91-6.85,1.85-1.49,4.53-1.84,6.58-.54Z"/>
      <path class="cls-1" d="M365.52,151.27c-2.57,2.5-5.34,4.77-8.28,6.83,2.94,2.52,6.21,5.45,10.41,4.14,2.18-.68,3.4-2.5,4.71-4.25,1.49-1.99,2.88-4.08,4.1-6.25-1.18-.54-2.21-1.37-3.37-1.93-2.57-1.25-5.57-.49-7.57,1.46-1.25,1.22.47-.46,0,0ZM374.18,152.41c-1.07,1.63-2.23,3.21-3.44,4.74-1.04,1.32-2.13,2.95-3.83,3.45-2.71.8-4.72-.69-6.73-2.25,2.4-1.9,4.5-4.04,6.74-6.12.86-.8,1.98-1.3,3.15-1.36,1.63-.09,2.77.76,4.11,1.54-.78,1.19-.47-.27,0,0Z"/>
    </g>
    <g>
      <path class="cls-1" d="M365.64,148.24c.6.56,1.2,1.1,1.83,1.64-2.52,2.72-6.52,7.82-10.62,7.59-3.17-.18-5.07-2.53-6.88-4.82,2.95-1.38,5.8-2.98,8.49-4.8,2.19-1.48,5.22-1.43,7.17.41Z"/>
      <path class="cls-1" d="M358.01,147.14c-3,1.94-6.16,3.68-9.46,5.07,1.75,2.5,4,5.25,7.08,5.95,2.82.64,4.84-.55,6.9-2.33,2.17-1.87,4.23-3.89,6.11-6.07-.86-.67-1.65-1.43-2.46-2.16-2.24-2.14-5.66-2.08-8.17-.47-.73.48.54-.35,0,0ZM366.28,149.98c-1.35,1.36-2.76,2.66-4.23,3.9-1.47,1.24-2.96,2.72-5,2.71-2.6-.01-4.11-1.76-5.67-3.54,2.62-1.34,5.15-2.84,7.56-4.51,1.19-.83,2.6-1.07,4-.8,1.4.29,2.31,1.34,3.33,2.25-1.99,2.01-.4-.36,0,0Z"/>
    </g>
    <g>
      <path class="cls-1" d="M358.99,144.4c.48.67.98,1.31,1.49,1.96-2.98,2.18-7.91,6.46-11.86,5.45-3.07-.78-4.5-3.44-5.85-6.03,3.41-.87,6.56-2.36,9.91-3.37,2.29-.69,4.89.02,6.31,1.99Z"/>
      <path class="cls-1" d="M351.7,141.88c-3.32,1.35-6.74,2.41-10.24,3.21,1.67,3.24,3.42,6.96,7.43,7.67,2.5.44,4.39-.74,6.46-1.98,2.19-1.31,4.3-2.75,6.32-4.32-.82-.9-1.47-1.94-2.24-2.88-1.87-2.29-5.06-2.77-7.72-1.7-1.62.66.3-.12,0,0ZM359.29,146.22c-1.77,1.23-3.63,2.36-5.53,3.39-1.68.91-3.25,1.82-5.21,1.27-2.31-.65-3.35-2.52-4.47-4.44,1.53-.45,3.06-.95,4.56-1.5,1.51-.56,3-1.42,4.55-1.81,1.42-.35,3-.12,4.17.79.81.63,1.27,1.52,1.93,2.3-.59.41-.17-.2,0,0Z"/>
    </g>
    <g>
      <path class="cls-1" d="M353.18,139.37c.33.75.72,1.47,1.1,2.2-3.12,1.48-8.07,4.32-11.61,3.49-3.51-.82-4.81-4.26-5.67-7.38,3.51-.22,6.89-1.09,10.36-1.45,2.37-.25,4.81.93,5.82,3.14Z"/>
      <path class="cls-1" d="M346.48,135.53c-3.52.7-7.08,1.1-10.66,1.23.99,3.36,1.89,6.9,5.25,8.66,2.4,1.2,4.56.52,6.93-.33,2.53-.9,5.01-1.97,7.4-3.2-.97-1.57-1.48-3.53-2.86-4.81-1.61-1.49-3.96-1.99-6.08-1.55-1.71.34.65-.13,0,0ZM353.14,141.21c-1.76.78-3.56,1.46-5.38,2.07-1.75.59-3.64,1.4-5.48.75-2.52-.91-3.33-3.15-4.13-5.45,1.71-.16,3.42-.38,5.12-.68,1.72-.31,3.55-.99,5.31-.84,2.63.25,3.45,2.16,4.55,4.15Z"/>
    </g>
    <g>
      <path class="cls-1" d="M348.41,133.34c.18.8.43,1.58.67,2.37-3.81.99-10.14,3.24-13.48.35-2.16-1.88-2.55-4.72-2.77-7.42,3.49.47,6.97.22,10.45.53,2.37.21,4.55,1.82,5.13,4.17.18.8-.08-.32,0,0Z"/>
      <path class="cls-1" d="M342.56,128.32c-3.58.07-7.17-.25-10.7-.81.21,2.29.3,4.78,1.35,6.87.97,1.94,2.88,3.59,5.07,3.92,1.7.26,3.57-.21,5.25-.51,2.22-.4,4.43-.9,6.6-1.55-.56-1.57-.75-3.34-1.6-4.79-1.17-2.07-3.67-3.17-5.97-3.13-.45,0,.66,0,0,0ZM348.02,135.14c-1.68.39-3.38.7-5.09.94-1.54.22-3.38.67-4.91.28-3.13-.8-3.82-3.85-4.22-6.62,3.04.29,6.04.19,9.09.26,1.19.02,2.3.44,3.22,1.2,1.28,1.05,1.42,2.49,1.9,3.95-1.41.33-.17-.51,0,0Z"/>
    </g>
    <g>
      <path class="cls-1" d="M344.74,126.22c.03.82.11,1.63.19,2.45-3.71.21-9.93,1.09-12.79-1.74-2.3-2.27-2.05-5.45-1.75-8.39,1.81.63,3.65,1.15,5.51,1.6,1.71.42,3.65.52,5.28,1.21,1.98.84,3.46,2.68,3.56,4.87Z"/>
      <path class="cls-1" d="M339.99,120.15c-3.52-.65-6.97-1.66-10.32-2.9-.43,4.06-.91,8.74,3.05,11.28,1.74,1.12,3.94,1.02,5.93,1.08,2.4.08,4.81,0,7.2-.21-.25-1.51-.13-3.1-.5-4.59-.6-2.47-2.95-4.22-5.36-4.67-.22-.04.65.12,0,0ZM344,127.91c-1.58.05-3.16.02-4.74-.05-1.56-.08-3.39-.01-4.88-.54-3.27-1.17-3.42-4.59-3.25-7.51,1.55.47,3.12.9,4.7,1.25,1.63.36,3.44.44,5,1.06,1.3.51,2.43,1.6,2.84,2.96.28.92.24,1.89.33,2.84-.36.01-.01-.13,0,0Z"/>
    </g>
    <g>
      <path class="cls-1" d="M342.6,118.85c-.14.81-.2,1.63-.28,2.44-3.56-.48-9.6-.8-11.99-3.83-2.15-2.73-1.18-5.84-.38-8.85,3.03,1.69,6.23,2.85,9.33,4.36,2.19,1.06,3.71,3.41,3.32,5.88Z"/>
      <path class="cls-1" d="M339.1,111.98c-3.33-1.3-6.55-2.92-9.61-4.77-1,3.16-2.17,6.67-.49,9.82,1.51,2.79,4.19,3.39,7.08,4.02,2.32.51,4.66.9,7.02,1.13.08-1.43.47-2.95.39-4.38-.14-2.64-1.97-4.86-4.4-5.82-1.66-.65.61.24,0,0ZM333.13,118.37c-2.09-.66-3.35-2.87-3.33-4.99.01-1.15.36-2.28.66-3.38,1.49.79,3.01,1.51,4.56,2.18,1.53.66,3.36,1.07,4.73,2.03,1.08.76,1.9,1.99,2.02,3.32.12.96-.12,1.9-.2,2.85-2.85-.46-5.68-1.13-8.44-2-.57-.18.35.11,0,0Z"/>
    </g>
    <g>
      <path class="cls-1" d="M341.89,111.03c-.28.77-.5,1.57-.75,2.35-3.08-1.06-7.15-2.25-9.71-4.36-3.48-2.88-1.62-7.19,0-10.47,2.48,2.11,5.11,4.04,7.88,5.76,2.2,1.38,3.53,4.17,2.58,6.71-.03.1.23-.63,0,0Z"/>
      <path class="cls-1" d="M339.77,103.62c-3.02-1.93-5.87-4.11-8.52-6.53-1.48,2.68-3.14,5.66-2.54,8.82.52,2.75,2.34,4.18,4.74,5.31,2.69,1.26,5.46,2.33,8.3,3.2.48-2.04,1.58-4,1.21-6.14-.32-1.91-1.58-3.62-3.2-4.65-.74-.47.55.35,0,0ZM332.68,108.74c-1.93-1.04-2.72-3.46-2.32-5.53.24-1.12.79-2.18,1.3-3.2,2.18,1.77,4.49,3.39,6.9,4.84,1.1.66,2.01,1.51,2.48,2.73.66,1.65.05,3.15-.45,4.74-2.72-1-5.36-2.22-7.92-3.58-1.05-.57,2.62,1.39,0,0Z"/>
    </g>
    <g>
      <path class="cls-1" d="M342.66,103.38c-.4.71-.82,1.42-1.16,2.17-3.44-1.92-9.48-4.71-9.93-9.12-.28-2.92,1.51-5.09,3.17-7.26,2.2,2.75,4.83,5.02,7.13,7.65,1.63,1.86,1.92,4.39.78,6.56Z"/>
      <path class="cls-1" d="M341.96,95.71c-2.6-2.47-4.98-5.15-7.12-8.03-2.38,2.82-4.86,6-3.96,9.93.64,2.8,3.25,4.27,5.47,5.76,1.78,1.19,3.63,2.28,5.53,3.29.65-1.32,1.53-2.6,2.02-3.99.87-2.45-.11-5.22-1.94-6.96-.64-.6.24.23,0,0ZM341.14,104.4c-1.68-1.02-3.31-2.11-4.89-3.28-1.33-.99-2.92-1.95-3.52-3.57-.96-2.59.37-4.94,1.96-6.92,1.03,1.22,2.12,2.4,3.24,3.55,1.09,1.11,2.39,2.09,3.4,3.27,1.05,1.23,1.5,2.95,1.04,4.52-.25.85-.8,1.66-1.23,2.44Z"/>
    </g>
    <g>
      <path class="cls-1" d="M344.97,95.72c-.53.62-1.08,1.23-1.56,1.89-1.41-1.21-2.75-2.49-4.04-3.82-1.78-1.84-3.95-3.75-3.92-6.51.04-3.18,2.37-5.13,4.57-7.06,1.25,2.42,2.64,4.76,4.18,7.01,1.87,2.72,3.11,5.62.78,8.49Z"/>
      <path class="cls-1" d="M345.81,88.06c-2.06-2.93-3.89-6.03-5.41-9.27-2.61,2.1-5.44,4.39-5.8,7.96-.31,3.11,1.6,5.06,3.62,7.14,1.68,1.73,3.47,3.36,5.34,4.89.9-1.17,2.02-2.25,2.77-3.51,1.34-2.23.92-5.14-.53-7.21-.5-.72.19.27,0,0ZM343.28,96.42c-1.44-1.33-2.83-2.72-4.14-4.18-1.17-1.31-2.57-2.6-2.78-4.43-.3-2.68,1.46-4.53,3.31-6.16.78,1.42,1.63,2.81,2.52,4.17.94,1.44,2.32,2.84,2.94,4.45.98,2.51-.32,4.33-1.85,6.15Z"/>
    </g>
    <g>
      <path class="cls-1" d="M348.58,88.93c-.64.51-1.29,1.01-1.9,1.56-2.18-2.76-6.68-7.74-5.87-11.65.65-3.13,3.29-4.6,5.81-6.07,1,3.37,2.59,6.47,3.72,9.78.78,2.28.15,4.87-1.76,6.38Z"/>
      <path class="cls-1" d="M350.84,81.56c-1.47-3.26-2.68-6.65-3.58-10.12-2.84,1.5-5.97,3.18-7.08,6.41-.91,2.67.03,4.73,1.45,6.98,1.51,2.39,3.17,4.67,4.98,6.84,1.05-.92,2.19-1.75,3.19-2.71,1.93-1.91,2.12-5.01,1.04-7.4-.36-.8.13.3,0,0ZM346.78,89.3c-.98-1.32-1.92-2.68-2.78-4.08-.84-1.37-2.03-2.9-2.34-4.5-.55-3.22,1.93-5.16,4.36-6.6.5,1.55,1.07,3.07,1.69,4.57.65,1.58,1.75,3.23,2.06,4.92.49,2.69-1.11,4.19-2.99,5.7Z"/>
    </g>
    <g>
      <path class="cls-1" d="M353.4,82.94c-.73.38-1.45.76-2.16,1.18-1.59-3.06-4.71-8.07-3.87-11.66.82-3.51,4.1-4.69,7.13-5.75.31,3.09.81,6.17,1.58,9.17.7,2.73,0,5.68-2.67,7.06Z"/>
      <path class="cls-1" d="M357,76.12c-.83-3.48-1.38-7.03-1.62-10.61-2.95.91-6.26,1.93-7.98,4.68-1.58,2.51-1.07,4.83-.06,7.41,1.03,2.63,2.24,5.19,3.61,7.65,1.03-.6,2.11-1.14,3.14-1.74,2.57-1.51,3.57-4.55,2.91-7.4-.2-.85.29,1.26,0,0ZM351.55,82.97c-.83-1.73-1.59-3.5-2.26-5.29-.62-1.67-1.49-3.46-.99-5.26.7-2.56,3.02-3.73,5.35-4.51.19,1.59.47,3.17.79,4.74.35,1.71,1.13,3.54,1.11,5.29-.03,2.72-1.88,3.92-4,5.04Z"/>
    </g>
    <g>
      <path class="cls-1" d="M359.25,77.96c-.79.23-1.56.48-2.34.76-.46-1.52-.86-3.06-1.19-4.62-.52-2.39-1.45-5.31-.39-7.66,1.48-3.22,4.94-3.77,8.06-4.22-.32,3.51.02,6.97-.15,10.46-.11,2.4-1.65,4.59-3.98,5.28Z"/>
      <path class="cls-1" d="M364.06,71.93c-.16-3.57-.05-7.18.41-10.72-2.4.31-5.01.5-7.12,1.79-1.64,1-2.92,2.63-3.34,4.52-.46,2.08.34,4.5.79,6.54.43,1.93.97,3.86,1.6,5.73,1.62-.7,3.51-.87,4.97-1.92,1.86-1.34,2.79-3.67,2.68-5.93-.04-.87.02.33,0,0ZM357.43,77.63c-.43-1.62-.79-3.26-1.1-4.91-.27-1.47-.73-3.18-.54-4.68.44-3.4,3.69-4.31,6.53-4.82-.1,1.69-.14,3.38-.11,5.07.03,1.66.43,3.51.1,5.14-.54,2.65-2.57,3.5-4.87,4.2Z"/>
    </g>
    <g>
      <path class="cls-1" d="M366.23,74.03c-.82.08-1.63.15-2.44.28-.35-3.7-1.49-10.06,1.4-12.97,2.26-2.28,5.25-2.08,8.19-1.92-1.01,3.37-1.36,6.84-2.21,10.23-.58,2.33-2.52,4.16-4.94,4.39Z"/>
      <path class="cls-1" d="M372.13,69.08c.55-3.53,1.36-7.05,2.52-10.43-3.95-.27-8.53-.61-11,3.2-1.26,1.95-1.05,4.37-1.03,6.6.03,2.28.19,4.56.47,6.82,1.29-.18,2.66-.22,3.93-.5,2.76-.61,4.68-2.91,5.11-5.68.13-.86-.05.32,0,0ZM364.52,73.36c-.11-1.72-.15-3.45-.12-5.18.03-1.57-.12-3.48.54-4.95,1.32-2.92,4.43-3.1,7.2-3.04-.41,1.56-.77,3.13-1.07,4.72-.31,1.61-.31,3.41-.84,4.97-.51,1.5-1.72,2.78-3.28,3.17-.79.2-1.64.22-2.44.3Z"/>
    </g>
    <g>
      <path class="cls-1" d="M373.52,71.63c-.82-.08-1.63-.15-2.45-.19.36-3.68.44-10.19,3.83-12.48,2.62-1.76,5.57-1.08,8.39-.34-1.64,3.12-2.61,6.47-4.09,9.63-1.01,2.15-3.27,3.64-5.68,3.37Z"/>
      <path class="cls-1" d="M380.25,67.87c1.21-3.37,2.69-6.63,4.43-9.76-3.75-.99-7.95-2.18-11.16.84-1.66,1.56-1.96,3.74-2.37,5.88-.47,2.44-.8,4.93-.95,7.41,1.38.02,2.8.33,4.17.25,2.75-.23,4.96-2.02,5.88-4.62.59-1.64-.22.63,0,0ZM371.96,70.64c.37-2.87.94-5.7,1.7-8.49.4-1.48,1.57-2.55,2.96-3.12,1.76-.72,3.54-.24,5.31.14-.69,1.45-1.35,2.92-1.93,4.42-.55,1.41-.92,2.93-1.55,4.3-.49,1.06-1.29,1.92-2.33,2.45-1.34.68-2.72.41-4.16.3.18-1.41.54.04,0,0Z"/>
    </g>
    <g>
      <path class="cls-1" d="M381.14,70.65c-.78-.26-1.58-.45-2.38-.65.53-1.78,1.13-3.54,1.81-5.26.72-1.81,1.36-4.09,2.89-5.39,3.07-2.58,6.56-1.08,9.71.33-2.14,2.74-3.77,5.72-5.72,8.57-1.38,2.01-3.94,3.15-6.32,2.4Z"/>
      <path class="cls-1" d="M388.47,68.22c1.79-3.1,3.88-6.03,6.18-8.77-3.55-1.74-7.59-3.65-11.31-1.14-2.12,1.43-2.89,4.22-3.73,6.5-.7,1.91-1.32,3.85-1.84,5.82,1.27.26,2.5.72,3.76.98,2.79.57,5.55-1,6.94-3.39.89-1.54-.33.57,0,0ZM379.8,69.4c.44-1.37.94-2.71,1.48-4.04.71-1.75,1.4-4.14,2.89-5.4,2.37-1.98,5.1-1.05,7.57.03-1.04,1.4-2.02,2.84-2.94,4.33-.85,1.37-1.51,3.06-2.63,4.22-1.13,1.18-2.8,1.74-4.41,1.41-.67-.14-1.31-.39-1.97-.55Z"/>
    </g>
    <g>
      <path class="cls-1" d="M388.83,71.1c-.71-.37-1.46-.78-2.21-1.07,1.97-3.83,4.69-10.6,9.88-10.34,2.44.12,4.3,1.6,6.22,2.93-2.46,2.14-4.76,4.45-6.88,6.93-1.69,1.97-4.64,2.87-7.01,1.55-.36-.19.58.33,0,0Z"/>
      <path class="cls-1" d="M396.46,70.1c2.36-2.7,4.95-5.19,7.73-7.44-3.11-2.37-6.62-4.89-10.7-3.35-2.11.8-3.22,2.79-4.37,4.61-1.33,2.11-2.54,4.3-3.62,6.55,1.15.49,2.24,1.08,3.38,1.59,2.62,1.21,5.74.13,7.57-1.96.58-.66-.43.5,0,0ZM387.74,69.63c.88-1.61,1.84-3.17,2.86-4.69.96-1.43,1.89-3.19,3.53-3.94,2.64-1.21,4.99.14,7.11,1.62-1.09,1-2.14,2.04-3.16,3.11-1.15,1.22-2.16,2.66-3.38,3.8-1.22,1.13-2.96,1.63-4.58,1.19-.82-.22-1.61-.72-2.38-1.09Z"/>
    </g>
    <g>
      <path class="cls-1" d="M396.57,73.1c-.64-.51-1.28-1.02-1.95-1.49,2.44-3.12,6.11-8.58,10.57-8.37,2.94.19,4.77,2.31,6.67,4.27-3.01,1.72-5.65,3.87-8.53,5.75-2.02,1.32-4.84,1.47-6.75-.17-.32-.25.51.43,0,0Z"/>
      <path class="cls-1" d="M404.26,73.63c2.84-2.18,5.87-4.11,9.04-5.78-2.18-2.47-4.63-5.35-8.19-5.48-2.63-.14-4.34,1.2-6.09,2.98-2,2.03-3.86,4.18-5.56,6.47,1.08.75,2.08,1.63,3.17,2.36,2.33,1.56,5.48,1.09,7.63-.56.7-.53-.52.4,0,0ZM401.85,65.22c1.52-1.37,3.77-1.35,5.54-.53,1.19.55,2.12,1.62,3.02,2.55-1.37.83-2.7,1.71-4.01,2.64-1.27.9-2.44,2.03-3.77,2.84-1.41.87-3.23,1.01-4.72.26-.76-.38-1.43-1.02-2.11-1.54,1.87-2.21,3.9-4.28,6.05-6.22.45-.41-1.1.99,0,0Z"/>
    </g>
    <g>
      <path class="cls-1" d="M403.5,76.43c-.54-.62-1.07-1.23-1.64-1.83,3.28-2.83,8.38-7.99,13.06-5.84,2.21,1.03,3.37,3.1,4.64,5.06-3.41,1.17-6.56,3.12-9.95,4.23-2.25.74-4.54.09-6.11-1.62Z"/>
      <path class="cls-1" d="M410.95,78.4c3.2-1.61,6.54-2.94,9.96-3.98-2-3.39-4.4-7.23-8.85-7.13-1.84.04-3.25,1.01-4.7,2.01-2.34,1.62-4.58,3.38-6.68,5.29.81.84,1.56,1.74,2.36,2.59,2.06,2.18,5.26,2.56,7.91,1.22.79-.39-.59.29,0,0ZM403.05,74.65c1.53-1.23,3.11-2.39,4.75-3.47,1.47-.97,2.95-2.15,4.79-2.09,2.71.09,4.25,2.12,5.6,4.19-2.62.98-5.19,2.12-7.66,3.44-1.26.68-2.62,1.04-4.05.67-1.55-.41-2.43-1.59-3.44-2.73.55-.45.36.41,0,0Z"/>
    </g>
    <g>
      <path class="cls-1" d="M409.68,81c-.41-.71-.81-1.43-1.27-2.11,1.38-.79,2.79-1.52,4.22-2.2,2.42-1.15,5.25-2.85,7.99-1.94,3.12,1.04,4.2,3.93,5.32,6.7-3.56.51-7.03,1.84-10.56,2.29-2.29.3-4.54-.74-5.71-2.74Z"/>
      <path class="cls-1" d="M416.63,84.33c3.45-.98,6.97-1.66,10.53-2.04-1.2-3.36-2.56-7.02-6.2-8.35-2.67-.98-5.05.26-7.45,1.37-2.15,1-4.23,2.12-6.26,3.35.85,1.31,1.52,2.87,2.59,4,1.7,1.82,4.44,2.34,6.79,1.67.85-.24-.63.18,0,0ZM409.57,79.17c1.39-.74,2.8-1.43,4.24-2.06,1.43-.62,3.01-1.48,4.56-1.7,3.4-.45,5.29,2.52,6.34,5.25-3.04.5-5.92,1.44-8.9,2.16-1.72.42-3.66-.08-4.84-1.43-.57-.64-.96-1.49-1.4-2.22Z"/>
    </g>
    <g>
      <path class="cls-1" d="M414.89,86.65c-.27-.77-.52-1.55-.85-2.31,3.35-1.16,8.99-3.62,12.44-1.96,3.11,1.51,3.7,4.7,4.3,7.76-1.91-.1-3.82-.12-5.74-.04-1.76.07-3.65.48-5.41.27-2.14-.25-4.06-1.65-4.75-3.73Z"/>
      <path class="cls-1" d="M421.1,91.22c3.57-.31,7.16-.32,10.73-.02-.44-3.4-1.2-7.19-4.25-9.2-2.22-1.47-4.48-1.03-6.92-.45-2.62.62-5.19,1.4-7.71,2.35.46,1.13.83,2.29,1.29,3.41,1.1,2.72,3.99,4.17,6.86,3.92,1.74-.15-.33.03,0,0ZM415.14,84.83c2-.62,4.03-1.14,6.09-1.56,1.92-.39,3.73-.84,5.5.25,2.01,1.24,2.57,3.44,3,5.61-1.62-.04-3.25,0-4.87.08-1.72.09-3.62.58-5.32.32-2.69-.42-3.58-2.44-4.39-4.7Z"/>
    </g>
    <g>
      <path class="cls-1" d="M419.1,93.47c-.12-.81-.23-1.62-.38-2.43,4.09-.58,10.89-2.05,13.8,1.72,1.64,2.12,1.48,4.74,1.47,7.26-2.9-.74-5.84-1.28-8.81-1.61-3.01-.34-5.56-1.74-6.08-4.95Z"/>
      <path class="cls-1" d="M424.28,99.17c3.56.4,7.08,1.1,10.52,2.1.27-3.8.2-8.36-3.35-10.69-1.92-1.24-4.1-1.05-6.28-.95-2.49.11-4.97.37-7.44.77.24,1.22.36,2.47.62,3.68.49,2.85,3.17,4.79,5.93,5.1.87.1-.33-.04,0,0ZM419.69,91.74c2.01-.21,4.02-.32,6.04-.33,1.72,0,3.52-.18,5,.85,2.22,1.55,2.43,4.1,2.42,6.57-2.86-.65-5.77-1.09-8.7-1.32-1.26-.1-2.5-.67-3.36-1.61-1.08-1.19-1.17-2.65-1.4-4.16,1.41-.15.08.54,0,0Z"/>
    </g>
    <g>
      <path class="cls-1" d="M421.79,100.66c.04-.82.11-1.63.09-2.45,3.19.18,8.66.13,11.45,2.16,3.15,2.3,2.56,6.24,1.85,9.54-2.95-1.38-5.99-2.55-9.12-3.47-2.55-.74-4.41-3.09-4.27-5.78.04-.81,0,.16,0,0Z"/>
      <path class="cls-1" d="M425.81,107.23c3.42,1.07,6.74,2.43,9.95,4.04.58-2.8,1.5-5.86.34-8.63-1.1-2.63-3.1-3.85-5.82-4.33-3.05-.54-6.14-.85-9.24-.94,0,1.39-.14,2.79-.08,4.18.15,2.72,2.35,4.9,4.85,5.68.83.26-.31-.1,0,0ZM422.71,99.07c1.7.15,3.4.36,5.09.65,1.78.31,3.99.43,5.39,1.69,2.18,1.96,1.82,4.58,1.41,7.16-1.55-.66-3.13-1.28-4.72-1.83-1.57-.54-3.45-.8-4.87-1.66-2.31-1.41-2.4-3.62-2.29-6.01Z"/>
    </g>
  </g>
</svg>