<?xml version="1.0" encoding="UTF-8"?>
<svg id="Layer_1" xmlns="http://www.w3.org/2000/svg" width="834.74" height="469.8" viewBox="0 0 834.74 469.8">
  <defs>
    <style>
      .cls-1 {
        fill: #231f20;
      }

      .cls-2 {
        fill: #fdc276;
      }

      .cls-3 {
        fill: #30647f;
      }

      .cls-4 {
        fill: #eaeaea;
      }

      .cls-5 {
        fill: #f8a693;
      }

      .cls-6 {
        fill: #3287c1;
      }

      .cls-7 {
        fill: #f15725;
      }

      .cls-8 {
        fill: #4a95d0;
      }

      .cls-9 {
        fill: #e8e8e8;
      }

      .cls-10 {
        fill: #f37553;
      }
    </style>
  </defs>
  <rect class="cls-9" y="468.8" width="751.6" height="1"/>
  <rect class="cls-9" y="412.75" width="751.6" height="1"/>
  <rect class="cls-9" y="356.71" width="751.6" height="1"/>
  <rect class="cls-9" y="300.29" width="751.6" height="1"/>
  <rect class="cls-9" y="243.86" width="751.6" height="1"/>
  <rect class="cls-9" y="187.44" width="751.6" height="1"/>
  <rect class="cls-9" y="131.01" width="751.6" height="1"/>
  <rect class="cls-9" y="74.58" width="751.6" height="1"/>
  <rect class="cls-7" x="18.02" y="376.87" width="106.72" height="92.43"/>
  <rect class="cls-10" x="153.34" y="338.57" width="92.43" height="130.72"/>
  <rect class="cls-4" x="27.98" y="282.87" width="86.81" height="76.69" rx="5.41" ry="5.41"/>
  <polygon class="cls-4" points="84.4 358.15 71.38 374.74 57.6 358.15 84.4 358.15"/>
  <g>
    <path class="cls-1" d="M62.56,302.1h-1v-6.62l-2,.74v-.9l2.85-1.07h.16v7.86Z"/>
    <path class="cls-1" d="M68.74,302.1h-1v-6.62l-2,.74v-.9l2.85-1.07h.16v7.86Z"/>
    <path class="cls-1" d="M75.84,299.48h1.08v.81h-1.08v1.82h-1v-1.82h-3.56v-.59l3.5-5.42h1.06v5.19ZM72.41,299.48h2.43v-3.83l-.12.21-2.31,3.62Z"/>
    <path class="cls-1" d="M82.73,298.77c0,1.16-.2,2.03-.6,2.59s-1.02.85-1.86.85-1.45-.28-1.85-.83c-.4-.55-.61-1.38-.62-2.48v-1.33c0-1.15.2-2,.6-2.56s1.02-.84,1.87-.84,1.46.27,1.86.81c.4.54.6,1.37.61,2.49v1.29ZM81.74,297.41c0-.84-.12-1.45-.35-1.84-.24-.38-.61-.58-1.12-.58s-.88.19-1.11.57-.35.97-.36,1.77v1.59c0,.85.12,1.47.37,1.87.25.4.62.6,1.11.6s.85-.19,1.09-.57c.24-.38.36-.98.37-1.79v-1.63Z"/>
    <path class="cls-1" d="M49.93,312.82c-.1.83-.4,1.47-.92,1.92-.51.45-1.2.67-2.05.67-.92,0-1.66-.33-2.22-.99-.56-.66-.84-1.55-.84-2.66v-.75c0-.73.13-1.37.39-1.92.26-.55.63-.98,1.1-1.27.48-.3,1.03-.44,1.65-.44.83,0,1.5.23,2,.7.5.46.79,1.11.88,1.93h-1.04c-.09-.62-.28-1.08-.58-1.36-.3-.28-.72-.42-1.25-.42-.66,0-1.18.24-1.55.73-.37.49-.56,1.18-.56,2.08v.76c0,.85.18,1.52.53,2.03.35.5.85.75,1.49.75.57,0,1.01-.13,1.32-.39.31-.26.51-.71.61-1.36h1.04Z"/>
    <path class="cls-1" d="M50.91,312.34c0-.57.11-1.08.34-1.54.22-.45.54-.81.93-1.05.4-.25.85-.37,1.37-.37.79,0,1.43.27,1.92.82.49.55.73,1.28.73,2.19v.07c0,.57-.11,1.07-.33,1.52-.22.45-.53.8-.93,1.05-.4.25-.87.38-1.39.38-.79,0-1.43-.27-1.92-.82-.49-.55-.73-1.27-.73-2.18v-.07ZM51.91,312.46c0,.64.15,1.16.45,1.55.3.39.7.59,1.2.59s.91-.2,1.2-.59c.3-.4.45-.95.45-1.66,0-.64-.15-1.15-.45-1.55-.3-.4-.7-.59-1.21-.59s-.89.2-1.19.59-.45.95-.45,1.68Z"/>
    <path class="cls-1" d="M58.39,309.49l.03.64c.43-.5,1-.75,1.72-.75.81,0,1.37.31,1.66.93.19-.28.44-.5.75-.68.31-.17.68-.26,1.1-.26,1.27,0,1.92.67,1.94,2.02v3.89h-.99v-3.83c0-.42-.09-.73-.28-.93-.19-.21-.51-.31-.96-.31-.37,0-.67.11-.92.33-.24.22-.38.52-.42.89v3.86h-1v-3.81c0-.85-.41-1.27-1.24-1.27-.65,0-1.1.28-1.34.83v4.24h-.99v-5.81h.94Z"/>
    <path class="cls-1" d="M72,312.46c0,.88-.2,1.6-.61,2.14s-.95.81-1.64.81-1.26-.22-1.67-.67v2.8h-.99v-8.05h.91l.05.64c.4-.5.97-.75,1.69-.75s1.25.26,1.66.79c.41.53.61,1.26.61,2.2v.09ZM71.01,312.35c0-.66-.14-1.17-.42-1.55s-.66-.57-1.15-.57c-.6,0-1.05.27-1.35.8v2.78c.3.53.75.79,1.36.79.48,0,.85-.19,1.14-.57.28-.38.42-.94.42-1.68Z"/>
    <path class="cls-1" d="M76.85,315.3c-.06-.11-.1-.32-.14-.61-.46.48-1.01.72-1.65.72-.57,0-1.04-.16-1.41-.49-.37-.32-.55-.73-.55-1.23,0-.6.23-1.08.69-1.41.46-.33,1.11-.5,1.94-.5h.97v-.46c0-.35-.1-.62-.31-.83-.21-.21-.51-.31-.92-.31-.35,0-.65.09-.89.27s-.36.4-.36.65h-1c0-.29.1-.57.31-.84.21-.27.48-.48.84-.64.35-.16.74-.24,1.16-.24.67,0,1.19.17,1.57.5.38.33.58.8.59,1.38v2.67c0,.53.07.96.2,1.27v.09h-1.04ZM75.2,314.54c.31,0,.61-.08.89-.24s.48-.37.61-.63v-1.19h-.78c-1.22,0-1.83.36-1.83,1.07,0,.31.1.56.31.73s.47.26.8.26Z"/>
    <path class="cls-1" d="M80.19,309.49l.03.73c.44-.56,1.02-.84,1.74-.84,1.23,0,1.85.69,1.86,2.08v3.84h-.99v-3.85c0-.42-.1-.73-.29-.93-.19-.2-.48-.3-.88-.3-.32,0-.6.09-.85.26s-.43.4-.57.68v4.14h-.99v-5.81h.94Z"/>
    <path class="cls-1" d="M85.32,307.95c0-.16.05-.3.15-.41.1-.11.24-.17.44-.17s.34.06.44.17.15.25.15.41-.05.3-.15.4-.25.16-.44.16-.34-.05-.44-.16c-.1-.11-.15-.24-.15-.4ZM86.4,315.3h-.99v-5.81h.99v5.81Z"/>
    <path class="cls-1" d="M90.4,315.41c-.79,0-1.43-.26-1.92-.78-.49-.52-.74-1.21-.74-2.08v-.18c0-.58.11-1.09.33-1.54.22-.45.53-.81.92-1.06.4-.26.82-.38,1.29-.38.76,0,1.34.25,1.76.75s.63,1.21.63,2.14v.41h-3.94c.01.57.18,1.04.5,1.39.32.35.73.53,1.22.53.35,0,.65-.07.89-.21s.46-.33.64-.57l.61.47c-.49.75-1.22,1.12-2.19,1.12ZM90.27,310.2c-.4,0-.74.15-1.01.44-.27.29-.44.7-.5,1.23h2.91v-.08c-.03-.5-.16-.9-.41-1.17-.24-.28-.57-.42-.99-.42Z"/>
    <path class="cls-1" d="M97.2,313.76c0-.27-.1-.48-.3-.63-.2-.15-.55-.28-1.06-.38-.5-.11-.9-.24-1.2-.39-.29-.15-.51-.33-.66-.54-.14-.21-.21-.45-.21-.74,0-.48.2-.88.6-1.21.4-.33.92-.49,1.54-.49.66,0,1.19.17,1.6.51.41.34.61.78.61,1.31h-1c0-.27-.12-.51-.35-.7-.23-.2-.52-.3-.87-.3s-.64.08-.85.24-.31.36-.31.62c0,.24.09.42.28.54s.53.24,1.03.35c.5.11.9.24,1.21.4s.54.34.68.56c.15.22.22.48.22.79,0,.52-.21.94-.62,1.25-.42.31-.95.47-1.62.47-.47,0-.88-.08-1.24-.25s-.64-.39-.84-.69c-.2-.29-.3-.61-.3-.96h.99c.02.33.15.6.4.79.25.19.58.29.99.29.38,0,.68-.08.91-.23.23-.15.34-.36.34-.61Z"/>
    <path class="cls-1" d="M40.08,323.39c.44-.54,1.01-.81,1.72-.81,1.23,0,1.85.69,1.86,2.08v3.84h-.99v-3.85c0-.42-.1-.73-.29-.93-.19-.2-.48-.3-.88-.3-.32,0-.6.09-.85.26s-.43.4-.57.68v4.14h-.99v-8.25h.99v3.14Z"/>
    <path class="cls-1" d="M48.73,328.5c-.06-.11-.1-.32-.14-.61-.46.48-1.01.72-1.65.72-.57,0-1.04-.16-1.41-.49-.37-.32-.55-.73-.55-1.23,0-.6.23-1.08.69-1.41.46-.33,1.11-.5,1.94-.5h.97v-.46c0-.35-.1-.62-.31-.83-.21-.21-.51-.31-.92-.31-.35,0-.65.09-.89.27s-.36.4-.36.65h-1c0-.29.1-.57.31-.84.21-.27.48-.48.84-.64.35-.16.74-.24,1.16-.24.67,0,1.19.17,1.57.5.38.33.58.8.59,1.38v2.67c0,.53.07.96.2,1.27v.09h-1.04ZM47.08,327.74c.31,0,.61-.08.89-.24s.48-.37.61-.63v-1.19h-.78c-1.22,0-1.83.36-1.83,1.07,0,.31.1.56.31.73s.47.26.8.26Z"/>
    <path class="cls-1" d="M52.96,327.15l1.44-4.46h1.02l-2.08,5.81h-.76l-2.11-5.81h1.02l1.48,4.46Z"/>
    <path class="cls-1" d="M58.78,328.61c-.79,0-1.43-.26-1.92-.78-.49-.52-.74-1.21-.74-2.08v-.18c0-.58.11-1.09.33-1.54.22-.45.53-.81.92-1.06.4-.26.82-.38,1.29-.38.76,0,1.34.25,1.76.75s.63,1.21.63,2.14v.41h-3.94c.01.57.18,1.04.5,1.39.32.35.73.53,1.22.53.35,0,.65-.07.89-.21s.46-.33.64-.57l.61.47c-.49.75-1.22,1.12-2.19,1.12ZM58.66,323.4c-.4,0-.74.15-1.01.44-.27.29-.44.7-.5,1.23h2.91v-.08c-.03-.5-.16-.9-.41-1.17-.24-.28-.57-.42-.99-.42Z"/>
    <path class="cls-1" d="M69.84,325.66c0,.89-.2,1.6-.61,2.14-.41.54-.96.81-1.64.81-.73,0-1.3-.26-1.7-.78l-.05.67h-.91v-8.25h.99v3.08c.4-.5.95-.75,1.66-.75s1.26.27,1.66.8c.4.53.6,1.26.6,2.19v.09ZM68.85,325.55c0-.68-.13-1.2-.39-1.57s-.64-.55-1.13-.55c-.66,0-1.13.3-1.41.91v2.51c.3.61.78.91,1.42.91.48,0,.85-.18,1.11-.55s.4-.92.4-1.67Z"/>
    <path class="cls-1" d="M73.51,328.61c-.79,0-1.43-.26-1.92-.78-.49-.52-.74-1.21-.74-2.08v-.18c0-.58.11-1.09.33-1.54.22-.45.53-.81.92-1.06.4-.26.82-.38,1.29-.38.76,0,1.34.25,1.76.75s.63,1.21.63,2.14v.41h-3.94c.01.57.18,1.04.5,1.39.32.35.73.53,1.22.53.35,0,.65-.07.89-.21s.46-.33.64-.57l.61.47c-.49.75-1.22,1.12-2.19,1.12ZM73.38,323.4c-.4,0-.74.15-1.01.44-.27.29-.44.7-.5,1.23h2.91v-.08c-.03-.5-.16-.9-.41-1.17-.24-.28-.57-.42-.99-.42Z"/>
    <path class="cls-1" d="M79.25,327.8c.35,0,.66-.11.93-.32s.41-.48.44-.81h.94c-.02.33-.13.65-.34.95s-.49.54-.85.72c-.35.18-.73.27-1.12.27-.79,0-1.42-.26-1.89-.79-.47-.53-.7-1.25-.7-2.17v-.17c0-.57.1-1.07.31-1.51s.51-.78.89-1.03c.39-.24.85-.37,1.38-.37.65,0,1.19.2,1.62.59.43.39.66.9.69,1.52h-.94c-.03-.38-.17-.68-.43-.93-.26-.24-.57-.36-.95-.36-.5,0-.9.18-1.17.54-.28.36-.42.89-.42,1.58v.19c0,.67.14,1.19.41,1.55s.67.54,1.18.54Z"/>
    <path class="cls-1" d="M82.42,325.54c0-.57.11-1.08.34-1.54.22-.45.54-.81.93-1.05.4-.25.85-.37,1.37-.37.79,0,1.43.27,1.92.82.49.55.73,1.28.73,2.19v.07c0,.57-.11,1.07-.33,1.52-.22.45-.53.8-.93,1.05-.4.25-.87.38-1.39.38-.79,0-1.43-.27-1.92-.82-.49-.55-.73-1.27-.73-2.18v-.07ZM83.42,325.66c0,.64.15,1.16.45,1.55.3.39.7.59,1.2.59s.91-.2,1.2-.59c.3-.4.45-.95.45-1.66,0-.64-.15-1.15-.45-1.55-.3-.4-.7-.59-1.21-.59s-.89.2-1.19.59-.45.95-.45,1.68Z"/>
    <path class="cls-1" d="M89.89,322.69l.03.64c.43-.5,1-.75,1.72-.75.81,0,1.37.31,1.66.93.19-.28.44-.5.75-.68.31-.17.68-.26,1.1-.26,1.27,0,1.92.67,1.94,2.02v3.89h-.99v-3.83c0-.42-.09-.73-.28-.93-.19-.21-.51-.31-.96-.31-.37,0-.67.11-.92.33-.24.22-.38.52-.42.89v3.86h-1v-3.81c0-.85-.41-1.27-1.24-1.27-.65,0-1.1.28-1.34.83v4.24h-.99v-5.81h.94Z"/>
    <path class="cls-1" d="M101.01,328.61c-.79,0-1.43-.26-1.92-.78-.49-.52-.74-1.21-.74-2.08v-.18c0-.58.11-1.09.33-1.54.22-.45.53-.81.92-1.06.4-.26.82-.38,1.29-.38.76,0,1.34.25,1.76.75s.63,1.21.63,2.14v.41h-3.94c.01.57.18,1.04.5,1.39.32.35.73.53,1.22.53.35,0,.65-.07.89-.21s.46-.33.64-.57l.61.47c-.49.75-1.22,1.12-2.19,1.12ZM100.88,323.4c-.4,0-.74.15-1.01.44-.27.29-.44.7-.5,1.23h2.91v-.08c-.03-.5-.16-.9-.41-1.17-.24-.28-.57-.42-.99-.42Z"/>
    <path class="cls-1" d="M65.29,341.7h-1v-6.62l-2,.74v-.9l2.85-1.07h.16v7.86Z"/>
    <path class="cls-1" d="M73.11,338.37c0,1.16-.2,2.03-.6,2.59s-1.02.85-1.86.85-1.45-.28-1.85-.83c-.4-.55-.61-1.38-.62-2.48v-1.33c0-1.15.2-2,.6-2.56s1.02-.84,1.87-.84,1.46.27,1.86.81c.4.54.6,1.37.61,2.49v1.29ZM72.11,337.01c0-.84-.12-1.45-.35-1.84-.24-.38-.61-.58-1.12-.58s-.88.19-1.11.57-.35.97-.36,1.77v1.59c0,.85.12,1.47.37,1.87.25.4.62.6,1.11.6s.85-.19,1.09-.57c.24-.38.36-.98.37-1.79v-1.63Z"/>
    <path class="cls-1" d="M77.19,336.88l1.87-3h1.21l-2.47,3.88,2.53,3.94h-1.22l-1.92-3.05-1.93,3.05h-1.22l2.54-3.94-2.48-3.88h1.21l1.89,3Z"/>
  </g>
  <rect class="cls-4" x="156.15" y="245.53" width="86.81" height="76.69" rx="5.41" ry="5.41"/>
  <polygon class="cls-4" points="212.57 320.81 199.55 337.4 185.77 320.81 212.57 320.81"/>
  <g>
    <path class="cls-1" d="M194.45,258.39v.84h-.18c-.77.01-1.39.24-1.85.69s-.72,1.07-.79,1.87c.41-.47.97-.71,1.69-.71s1.22.24,1.63.72c.41.48.61,1.1.61,1.86,0,.81-.22,1.45-.66,1.93-.44.48-1.03.73-1.76.73s-1.36-.29-1.82-.86c-.47-.57-.7-1.31-.7-2.22v-.38c0-1.44.31-2.54.92-3.3.61-.76,1.53-1.15,2.74-1.17h.18ZM193.15,261.92c-.34,0-.65.1-.94.31s-.49.46-.6.77v.37c0,.64.15,1.16.44,1.56s.65.59,1.08.59.8-.16,1.06-.49c.26-.33.38-.76.38-1.29s-.13-.97-.39-1.3c-.26-.33-.6-.5-1.03-.5Z"/>
    <path class="cls-1" d="M201.78,258.96l-3.24,7.26h-1.04l3.23-7h-4.23v-.82h5.29v.56Z"/>
    <path class="cls-1" d="M207.81,262.88c0,1.16-.2,2.03-.6,2.59s-1.02.85-1.86.85-1.45-.28-1.85-.83c-.4-.55-.61-1.38-.62-2.48v-1.33c0-1.15.2-2,.6-2.56s1.02-.84,1.87-.84,1.46.27,1.86.81c.4.54.6,1.37.61,2.49v1.29ZM206.82,261.52c0-.84-.12-1.45-.35-1.84-.24-.38-.61-.58-1.12-.58s-.88.19-1.11.57-.35.97-.36,1.77v1.59c0,.85.12,1.47.37,1.87.25.4.62.6,1.11.6s.85-.19,1.09-.57c.24-.38.36-.98.37-1.79v-1.63Z"/>
    <path class="cls-1" d="M178.1,276.94c-.1.83-.4,1.47-.92,1.92-.51.45-1.2.67-2.05.67-.92,0-1.66-.33-2.22-.99-.56-.66-.84-1.55-.84-2.66v-.75c0-.73.13-1.37.39-1.92.26-.55.63-.98,1.1-1.27.48-.3,1.03-.44,1.65-.44.83,0,1.5.23,2,.7.5.46.79,1.11.88,1.93h-1.04c-.09-.62-.28-1.08-.58-1.36-.3-.28-.72-.42-1.25-.42-.66,0-1.18.24-1.55.73-.37.49-.56,1.18-.56,2.08v.76c0,.85.18,1.52.53,2.03.35.5.85.75,1.49.75.57,0,1.01-.13,1.32-.39.31-.26.51-.71.61-1.36h1.04Z"/>
    <path class="cls-1" d="M179.09,276.46c0-.57.11-1.08.34-1.54.22-.45.54-.81.93-1.05.4-.25.85-.37,1.37-.37.79,0,1.43.27,1.92.82.49.55.73,1.28.73,2.19v.07c0,.57-.11,1.07-.33,1.52-.22.45-.53.8-.93,1.05-.4.25-.87.38-1.39.38-.79,0-1.43-.27-1.92-.82-.49-.55-.73-1.27-.73-2.18v-.07ZM180.08,276.58c0,.64.15,1.16.45,1.55.3.39.7.59,1.2.59s.91-.2,1.2-.59c.3-.4.45-.95.45-1.66,0-.64-.15-1.15-.45-1.55-.3-.4-.7-.59-1.21-.59s-.89.2-1.19.59-.45.95-.45,1.68Z"/>
    <path class="cls-1" d="M186.56,273.61l.03.64c.43-.5,1-.75,1.72-.75.81,0,1.37.31,1.66.93.19-.28.44-.5.75-.68.31-.17.68-.26,1.1-.26,1.27,0,1.92.67,1.94,2.02v3.89h-.99v-3.83c0-.42-.09-.73-.28-.93-.19-.21-.51-.31-.96-.31-.37,0-.67.11-.92.33-.24.22-.38.52-.42.89v3.86h-1v-3.81c0-.85-.41-1.27-1.24-1.27-.65,0-1.1.28-1.34.83v4.24h-.99v-5.81h.94Z"/>
    <path class="cls-1" d="M200.17,276.58c0,.88-.2,1.6-.61,2.14s-.95.81-1.64.81-1.26-.22-1.67-.67v2.8h-.99v-8.05h.91l.05.64c.4-.5.97-.75,1.69-.75s1.25.26,1.66.79c.41.53.61,1.26.61,2.2v.09ZM199.18,276.46c0-.66-.14-1.17-.42-1.55s-.66-.57-1.15-.57c-.6,0-1.05.27-1.35.8v2.78c.3.53.75.79,1.36.79.48,0,.85-.19,1.14-.57.28-.38.42-.94.42-1.68Z"/>
    <path class="cls-1" d="M205.02,279.42c-.06-.11-.1-.32-.14-.61-.46.48-1.01.72-1.65.72-.57,0-1.04-.16-1.41-.49-.37-.32-.55-.73-.55-1.23,0-.6.23-1.08.69-1.41.46-.33,1.11-.5,1.94-.5h.97v-.46c0-.35-.1-.62-.31-.83-.21-.21-.51-.31-.92-.31-.35,0-.65.09-.89.27s-.36.4-.36.65h-1c0-.29.1-.57.31-.84.21-.27.48-.48.84-.64.35-.16.74-.24,1.16-.24.67,0,1.19.17,1.57.5.38.33.58.8.59,1.38v2.67c0,.53.07.96.2,1.27v.09h-1.04ZM203.37,278.66c.31,0,.61-.08.89-.24s.48-.37.61-.63v-1.19h-.78c-1.22,0-1.83.36-1.83,1.07,0,.31.1.56.31.73s.47.26.8.26Z"/>
    <path class="cls-1" d="M208.36,273.61l.03.73c.44-.56,1.02-.84,1.74-.84,1.23,0,1.85.69,1.86,2.08v3.84h-.99v-3.85c0-.42-.1-.73-.29-.93-.19-.2-.48-.3-.88-.3-.32,0-.6.09-.85.26s-.43.4-.57.68v4.14h-.99v-5.81h.94Z"/>
    <path class="cls-1" d="M213.49,272.06c0-.16.05-.3.15-.41.1-.11.24-.17.44-.17s.34.06.44.17.15.25.15.41-.05.3-.15.4-.25.16-.44.16-.34-.05-.44-.16c-.1-.11-.15-.24-.15-.4ZM214.57,279.42h-.99v-5.81h.99v5.81Z"/>
    <path class="cls-1" d="M218.57,279.52c-.79,0-1.43-.26-1.92-.78-.49-.52-.74-1.21-.74-2.08v-.18c0-.58.11-1.09.33-1.54.22-.45.53-.81.92-1.06.4-.26.82-.38,1.29-.38.76,0,1.34.25,1.76.75s.63,1.21.63,2.14v.41h-3.94c.01.57.18,1.04.5,1.39.32.35.73.53,1.22.53.35,0,.65-.07.89-.21s.46-.33.64-.57l.61.47c-.49.75-1.22,1.12-2.19,1.12ZM218.44,274.31c-.4,0-.74.15-1.01.44-.27.29-.44.7-.5,1.23h2.91v-.08c-.03-.5-.16-.9-.41-1.17-.24-.28-.57-.42-.99-.42Z"/>
    <path class="cls-1" d="M225.37,277.88c0-.27-.1-.48-.3-.63-.2-.15-.55-.28-1.06-.38-.5-.11-.9-.24-1.2-.39-.29-.15-.51-.33-.66-.54-.14-.21-.21-.45-.21-.74,0-.48.2-.88.6-1.21.4-.33.92-.49,1.54-.49.66,0,1.19.17,1.6.51.41.34.61.78.61,1.31h-1c0-.27-.12-.51-.35-.7-.23-.2-.52-.3-.87-.3s-.64.08-.85.24-.31.36-.31.62c0,.24.09.42.28.54s.53.24,1.03.35c.5.11.9.24,1.21.4s.54.34.68.56c.15.22.22.48.22.79,0,.52-.21.94-.62,1.25-.42.31-.95.47-1.62.47-.47,0-.88-.08-1.24-.25s-.64-.39-.84-.69c-.2-.29-.3-.61-.3-.96h.99c.02.33.15.6.4.79.25.19.58.29.99.29.38,0,.68-.08.91-.23.23-.15.34-.36.34-.61Z"/>
    <path class="cls-1" d="M168.25,287.51c.44-.54,1.01-.81,1.72-.81,1.23,0,1.85.69,1.86,2.08v3.84h-.99v-3.85c0-.42-.1-.73-.29-.93-.19-.2-.48-.3-.88-.3-.32,0-.6.09-.85.26s-.43.4-.57.68v4.14h-.99v-8.25h.99v3.14Z"/>
    <path class="cls-1" d="M176.9,292.62c-.06-.11-.1-.32-.14-.61-.46.48-1.01.72-1.65.72-.57,0-1.04-.16-1.41-.49-.37-.32-.55-.73-.55-1.23,0-.6.23-1.08.69-1.41.46-.33,1.11-.5,1.94-.5h.97v-.46c0-.35-.1-.62-.31-.83-.21-.21-.51-.31-.92-.31-.35,0-.65.09-.89.27s-.36.4-.36.65h-1c0-.29.1-.57.31-.84.21-.27.48-.48.84-.64.35-.16.74-.24,1.16-.24.67,0,1.19.17,1.57.5.38.33.58.8.59,1.38v2.67c0,.53.07.96.2,1.27v.09h-1.04ZM175.25,291.86c.31,0,.61-.08.89-.24s.48-.37.61-.63v-1.19h-.78c-1.22,0-1.83.36-1.83,1.07,0,.31.1.56.31.73s.47.26.8.26Z"/>
    <path class="cls-1" d="M181.13,291.27l1.44-4.46h1.02l-2.08,5.81h-.76l-2.11-5.81h1.02l1.48,4.46Z"/>
    <path class="cls-1" d="M186.95,292.72c-.79,0-1.43-.26-1.92-.78-.49-.52-.74-1.21-.74-2.08v-.18c0-.58.11-1.09.33-1.54.22-.45.53-.81.92-1.06.4-.26.82-.38,1.29-.38.76,0,1.34.25,1.76.75s.63,1.21.63,2.14v.41h-3.94c.01.57.18,1.04.5,1.39.32.35.73.53,1.22.53.35,0,.65-.07.89-.21s.46-.33.64-.57l.61.47c-.49.75-1.22,1.12-2.19,1.12ZM186.83,287.51c-.4,0-.74.15-1.01.44-.27.29-.44.7-.5,1.23h2.91v-.08c-.03-.5-.16-.9-.41-1.17-.24-.28-.57-.42-.99-.42Z"/>
    <path class="cls-1" d="M198.01,289.78c0,.89-.2,1.6-.61,2.14-.41.54-.96.81-1.64.81-.73,0-1.3-.26-1.7-.78l-.05.67h-.91v-8.25h.99v3.08c.4-.5.95-.75,1.66-.75s1.26.27,1.66.8c.4.53.6,1.26.6,2.19v.09ZM197.02,289.66c0-.68-.13-1.2-.39-1.57s-.64-.55-1.13-.55c-.66,0-1.13.3-1.41.91v2.51c.3.61.78.91,1.42.91.48,0,.85-.18,1.11-.55s.4-.92.4-1.67Z"/>
    <path class="cls-1" d="M201.68,292.72c-.79,0-1.43-.26-1.92-.78-.49-.52-.74-1.21-.74-2.08v-.18c0-.58.11-1.09.33-1.54.22-.45.53-.81.92-1.06.4-.26.82-.38,1.29-.38.76,0,1.34.25,1.76.75s.63,1.21.63,2.14v.41h-3.94c.01.57.18,1.04.5,1.39.32.35.73.53,1.22.53.35,0,.65-.07.89-.21s.46-.33.64-.57l.61.47c-.49.75-1.22,1.12-2.19,1.12ZM201.55,287.51c-.4,0-.74.15-1.01.44-.27.29-.44.7-.5,1.23h2.91v-.08c-.03-.5-.16-.9-.41-1.17-.24-.28-.57-.42-.99-.42Z"/>
    <path class="cls-1" d="M207.42,291.91c.35,0,.66-.11.93-.32s.41-.48.44-.81h.94c-.02.33-.13.65-.34.95s-.49.54-.85.72c-.35.18-.73.27-1.12.27-.79,0-1.42-.26-1.89-.79-.47-.53-.7-1.25-.7-2.17v-.17c0-.57.1-1.07.31-1.51s.51-.78.89-1.03c.39-.24.85-.37,1.38-.37.65,0,1.19.2,1.62.59.43.39.66.9.69,1.52h-.94c-.03-.38-.17-.68-.43-.93-.26-.24-.57-.36-.95-.36-.5,0-.9.18-1.17.54-.28.36-.42.89-.42,1.58v.19c0,.67.14,1.19.41,1.55s.67.54,1.18.54Z"/>
    <path class="cls-1" d="M210.59,289.66c0-.57.11-1.08.34-1.54.22-.45.54-.81.93-1.05.4-.25.85-.37,1.37-.37.79,0,1.43.27,1.92.82.49.55.73,1.28.73,2.19v.07c0,.57-.11,1.07-.33,1.52-.22.45-.53.8-.93,1.05-.4.25-.87.38-1.39.38-.79,0-1.43-.27-1.92-.82-.49-.55-.73-1.27-.73-2.18v-.07ZM211.59,289.78c0,.64.15,1.16.45,1.55.3.39.7.59,1.2.59s.91-.2,1.2-.59c.3-.4.45-.95.45-1.66,0-.64-.15-1.15-.45-1.55-.3-.4-.7-.59-1.21-.59s-.89.2-1.19.59-.45.95-.45,1.68Z"/>
    <path class="cls-1" d="M218.06,286.81l.03.64c.43-.5,1-.75,1.72-.75.81,0,1.37.31,1.66.93.19-.28.44-.5.75-.68.31-.17.68-.26,1.1-.26,1.27,0,1.92.67,1.94,2.02v3.89h-.99v-3.83c0-.42-.09-.73-.28-.93-.19-.21-.51-.31-.96-.31-.37,0-.67.11-.92.33-.24.22-.38.52-.42.89v3.86h-1v-3.81c0-.85-.41-1.27-1.24-1.27-.65,0-1.1.28-1.34.83v4.24h-.99v-5.81h.94Z"/>
    <path class="cls-1" d="M229.18,292.72c-.79,0-1.43-.26-1.92-.78-.49-.52-.74-1.21-.74-2.08v-.18c0-.58.11-1.09.33-1.54.22-.45.53-.81.92-1.06.4-.26.82-.38,1.29-.38.76,0,1.34.25,1.76.75s.63,1.21.63,2.14v.41h-3.94c.01.57.18,1.04.5,1.39.32.35.73.53,1.22.53.35,0,.65-.07.89-.21s.46-.33.64-.57l.61.47c-.49.75-1.22,1.12-2.19,1.12ZM229.05,287.51c-.4,0-.74.15-1.01.44-.27.29-.44.7-.5,1.23h2.91v-.08c-.03-.5-.16-.9-.41-1.17-.24-.28-.57-.42-.99-.42Z"/>
    <path class="cls-1" d="M195.32,305.82h-5.12v-.71l2.71-3.01c.4-.45.68-.82.83-1.11.15-.29.23-.58.23-.88,0-.41-.12-.74-.37-1s-.58-.39-.99-.39c-.49,0-.88.14-1.15.42-.27.28-.41.67-.41,1.17h-.99c0-.72.23-1.3.7-1.75.46-.44,1.08-.67,1.86-.67.73,0,1.3.19,1.72.57.42.38.63.89.63,1.52,0,.77-.49,1.69-1.47,2.75l-2.09,2.27h3.93v.81Z"/>
    <path class="cls-1" d="M201.28,302.48c0,1.16-.2,2.03-.6,2.59s-1.02.85-1.86.85-1.45-.28-1.85-.83c-.4-.55-.61-1.38-.62-2.48v-1.33c0-1.15.2-2,.6-2.56s1.02-.84,1.87-.84,1.46.27,1.86.81c.4.54.6,1.37.61,2.49v1.29ZM200.28,301.12c0-.84-.12-1.45-.35-1.84-.24-.38-.61-.58-1.12-.58s-.88.19-1.11.57-.35.97-.36,1.77v1.59c0,.85.12,1.47.37,1.87.25.4.62.6,1.11.6s.85-.19,1.09-.57c.24-.38.36-.98.37-1.79v-1.63Z"/>
    <path class="cls-1" d="M205.36,300.99l1.87-3h1.21l-2.47,3.88,2.53,3.94h-1.22l-1.92-3.05-1.93,3.05h-1.22l2.54-3.94-2.48-3.88h1.21l1.89,3Z"/>
  </g>
  <rect class="cls-5" x="286.4" y="295.17" width="76.09" height="172.85"/>
  <rect class="cls-3" x="411" y="247.17" width="64.85" height="220.85"/>
  <rect class="cls-6" x="524.36" y="187.94" width="48.51" height="280.09"/>
  <rect class="cls-8" x="639.86" y="127.3" width="39.28" height="340.72"/>
  <rect class="cls-4" x="281.04" y="201.23" width="86.81" height="76.69" rx="5.41" ry="5.41"/>
  <polygon class="cls-4" points="337.47 276.51 324.45 293.11 310.66 276.51 337.47 276.51"/>
  <g>
    <path class="cls-1" d="M316.89,219.62h.75c.47,0,.84-.13,1.11-.37s.4-.56.4-.97c0-.92-.46-1.38-1.37-1.38-.43,0-.77.12-1.03.37-.26.25-.38.57-.38.97h-.99c0-.62.23-1.13.68-1.54.45-.41,1.03-.62,1.73-.62.74,0,1.32.2,1.74.59s.63.93.63,1.63c0,.34-.11.67-.33.99-.22.32-.52.56-.9.71.43.14.76.36,1,.68s.35.7.35,1.15c0,.7-.23,1.26-.69,1.67-.46.41-1.05.62-1.79.62s-1.33-.2-1.79-.6c-.46-.4-.69-.92-.69-1.57h1c0,.41.13.74.4.99s.63.37,1.08.37c.48,0,.85-.13,1.1-.38.25-.25.38-.61.38-1.08s-.14-.8-.42-1.05-.68-.37-1.21-.38h-.75v-.81Z"/>
    <path class="cls-1" d="M326.53,220.68c0,1.16-.2,2.03-.6,2.59s-1.02.85-1.86.85-1.45-.28-1.85-.83c-.4-.55-.61-1.38-.62-2.48v-1.33c0-1.15.2-2,.6-2.56s1.02-.84,1.87-.84,1.46.27,1.86.81c.4.54.6,1.37.61,2.49v1.29ZM325.54,219.32c0-.84-.12-1.45-.35-1.84-.24-.38-.61-.58-1.12-.58s-.88.19-1.11.57c-.23.38-.35.97-.36,1.77v1.59c0,.85.12,1.47.37,1.87.25.4.62.6,1.11.6s.85-.19,1.09-.57.36-.98.37-1.79v-1.63Z"/>
    <path class="cls-1" d="M332.71,220.68c0,1.16-.2,2.03-.6,2.59s-1.02.85-1.86.85-1.45-.28-1.85-.83c-.4-.55-.61-1.38-.62-2.48v-1.33c0-1.15.2-2,.6-2.56s1.02-.84,1.87-.84,1.46.27,1.86.81c.4.54.6,1.37.61,2.49v1.29ZM331.71,219.32c0-.84-.12-1.45-.35-1.84-.24-.38-.61-.58-1.12-.58s-.88.19-1.11.57c-.23.38-.35.97-.36,1.77v1.59c0,.85.12,1.47.37,1.87.25.4.62.6,1.11.6s.85-.19,1.09-.57.36-.98.37-1.79v-1.63Z"/>
    <path class="cls-1" d="M302.99,234.73c-.1.83-.4,1.47-.92,1.92-.51.45-1.2.67-2.05.67-.92,0-1.66-.33-2.22-.99-.56-.66-.84-1.55-.84-2.66v-.75c0-.73.13-1.37.39-1.92.26-.55.63-.98,1.1-1.27.48-.3,1.03-.44,1.65-.44.83,0,1.5.23,2,.7.5.46.79,1.11.88,1.93h-1.04c-.09-.62-.28-1.08-.58-1.36-.3-.28-.72-.42-1.25-.42-.66,0-1.18.24-1.55.73-.37.49-.56,1.18-.56,2.08v.76c0,.85.18,1.52.53,2.03.35.5.85.75,1.49.75.57,0,1.01-.13,1.32-.39.31-.26.51-.71.61-1.36h1.04Z"/>
    <path class="cls-1" d="M303.98,234.26c0-.57.11-1.08.34-1.54s.54-.81.93-1.05.85-.37,1.37-.37c.79,0,1.43.27,1.92.82.49.55.73,1.28.73,2.19v.07c0,.57-.11,1.07-.33,1.52-.22.45-.53.8-.93,1.05-.4.25-.87.38-1.39.38-.79,0-1.43-.27-1.92-.82-.49-.55-.73-1.27-.73-2.18v-.07ZM304.98,234.37c0,.64.15,1.16.45,1.55.3.39.7.59,1.2.59s.91-.2,1.2-.59c.3-.4.45-.95.45-1.66,0-.64-.15-1.15-.45-1.55-.3-.4-.71-.59-1.21-.59s-.89.2-1.19.59-.45.95-.45,1.68Z"/>
    <path class="cls-1" d="M311.45,231.4l.03.64c.43-.5,1-.75,1.72-.75.81,0,1.37.31,1.66.93.19-.28.45-.5.75-.68s.68-.26,1.1-.26c1.27,0,1.92.67,1.94,2.02v3.89h-.99v-3.83c0-.42-.09-.73-.28-.93-.19-.21-.51-.31-.96-.31-.37,0-.67.11-.92.33-.24.22-.38.52-.42.89v3.86h-1v-3.81c0-.85-.41-1.27-1.24-1.27-.65,0-1.1.28-1.34.83v4.24h-.99v-5.81h.94Z"/>
    <path class="cls-1" d="M325.07,234.37c0,.88-.2,1.6-.61,2.14-.41.54-.95.81-1.64.81s-1.26-.22-1.67-.67v2.8h-.99v-8.05h.91l.05.64c.41-.5.97-.75,1.69-.75s1.25.26,1.66.79.61,1.26.61,2.2v.09ZM324.07,234.26c0-.66-.14-1.17-.42-1.55s-.66-.57-1.15-.57c-.6,0-1.05.27-1.35.8v2.78c.3.53.75.79,1.36.79.48,0,.85-.19,1.14-.57.28-.38.42-.94.42-1.68Z"/>
    <path class="cls-1" d="M329.92,237.22c-.06-.11-.1-.32-.14-.61-.46.48-1.01.72-1.65.72-.57,0-1.04-.16-1.41-.49-.37-.32-.55-.73-.55-1.23,0-.6.23-1.08.69-1.41.46-.33,1.11-.5,1.94-.5h.97v-.46c0-.35-.1-.62-.31-.83-.21-.21-.51-.31-.92-.31-.35,0-.65.09-.89.27-.24.18-.36.4-.36.65h-1c0-.29.1-.57.31-.84.21-.27.48-.48.84-.64.35-.16.74-.24,1.16-.24.67,0,1.19.17,1.57.5.38.33.58.8.59,1.38v2.67c0,.53.07.96.2,1.27v.09h-1.04ZM328.27,236.46c.31,0,.61-.08.89-.24s.48-.37.61-.63v-1.19h-.78c-1.22,0-1.83.36-1.83,1.07,0,.31.1.56.31.73.21.18.47.26.8.26Z"/>
    <path class="cls-1" d="M333.25,231.4l.03.73c.44-.56,1.02-.84,1.74-.84,1.23,0,1.85.69,1.86,2.08v3.84h-.99v-3.85c0-.42-.1-.73-.29-.93-.19-.2-.48-.3-.88-.3-.32,0-.6.09-.85.26-.24.17-.43.4-.57.68v4.14h-.99v-5.81h.94Z"/>
    <path class="cls-1" d="M338.39,229.86c0-.16.05-.3.15-.41.1-.11.24-.17.44-.17s.34.06.44.17c.1.11.15.25.15.41s-.05.3-.15.4c-.1.11-.25.16-.44.16s-.34-.05-.44-.16c-.1-.11-.15-.24-.15-.4ZM339.46,237.22h-.99v-5.81h.99v5.81Z"/>
    <path class="cls-1" d="M343.46,237.32c-.79,0-1.43-.26-1.92-.78-.49-.52-.74-1.21-.74-2.08v-.18c0-.58.11-1.09.33-1.54.22-.45.53-.81.92-1.06.4-.26.82-.38,1.29-.38.76,0,1.34.25,1.76.75s.63,1.21.63,2.14v.41h-3.94c.01.57.18,1.04.5,1.39.32.35.73.53,1.22.53.35,0,.65-.07.89-.21.24-.14.46-.33.64-.57l.61.47c-.49.75-1.22,1.12-2.19,1.12ZM343.34,232.11c-.4,0-.74.15-1.01.44-.27.29-.44.7-.5,1.23h2.91v-.08c-.03-.5-.16-.9-.41-1.17-.24-.28-.57-.42-.99-.42Z"/>
    <path class="cls-1" d="M350.26,235.67c0-.27-.1-.48-.3-.63-.2-.15-.55-.28-1.06-.38-.5-.11-.9-.24-1.2-.39-.29-.15-.51-.33-.66-.54s-.21-.45-.21-.74c0-.48.2-.88.6-1.21.4-.33.92-.49,1.54-.49.66,0,1.19.17,1.6.51.41.34.61.78.61,1.31h-1c0-.27-.12-.51-.35-.7-.23-.2-.52-.3-.87-.3s-.64.08-.85.24-.31.36-.31.62c0,.24.09.42.29.54.19.12.53.24,1.03.35s.9.24,1.21.4c.31.15.54.34.68.56.15.22.22.48.22.79,0,.52-.21.94-.62,1.25-.42.31-.95.47-1.62.47-.47,0-.88-.08-1.24-.25-.36-.16-.64-.39-.84-.69-.2-.29-.3-.61-.3-.96h.99c.02.33.15.6.4.79.25.19.58.29.99.29.38,0,.68-.08.91-.23.23-.15.34-.36.34-.61Z"/>
    <path class="cls-1" d="M293.14,245.31c.44-.54,1.01-.81,1.72-.81,1.23,0,1.85.69,1.86,2.08v3.84h-.99v-3.85c0-.42-.1-.73-.29-.93-.19-.2-.48-.3-.88-.3-.32,0-.6.09-.85.26s-.43.4-.57.68v4.14h-.99v-8.25h.99v3.14Z"/>
    <path class="cls-1" d="M301.79,250.42c-.06-.11-.1-.32-.14-.61-.46.48-1.01.72-1.65.72-.57,0-1.04-.16-1.41-.49-.37-.32-.55-.73-.55-1.23,0-.6.23-1.08.69-1.41.46-.33,1.11-.5,1.94-.5h.97v-.46c0-.35-.1-.62-.31-.83-.21-.21-.51-.31-.92-.31-.35,0-.65.09-.89.27-.24.18-.36.4-.36.65h-1c0-.29.1-.57.31-.84.21-.27.48-.48.84-.64.35-.16.74-.24,1.16-.24.67,0,1.19.17,1.57.5.38.33.58.8.59,1.38v2.67c0,.53.07.96.2,1.27v.09h-1.04ZM300.14,249.66c.31,0,.61-.08.89-.24s.48-.37.61-.63v-1.19h-.78c-1.22,0-1.83.36-1.83,1.07,0,.31.1.56.31.73.21.18.47.26.8.26Z"/>
    <path class="cls-1" d="M306.02,249.07l1.44-4.46h1.02l-2.08,5.81h-.76l-2.11-5.81h1.02l1.48,4.46Z"/>
    <path class="cls-1" d="M311.85,250.52c-.79,0-1.43-.26-1.92-.78-.49-.52-.74-1.21-.74-2.08v-.18c0-.58.11-1.09.33-1.54.22-.45.53-.81.92-1.06.4-.26.82-.38,1.29-.38.75,0,1.34.25,1.76.75s.63,1.21.63,2.14v.41h-3.94c.01.57.18,1.04.5,1.39.32.35.73.53,1.22.53.35,0,.65-.07.89-.21.24-.14.46-.33.64-.57l.61.47c-.49.75-1.22,1.12-2.19,1.12ZM311.72,245.31c-.4,0-.74.15-1.01.44-.27.29-.44.7-.5,1.23h2.91v-.08c-.03-.5-.17-.9-.41-1.17-.24-.28-.57-.42-.99-.42Z"/>
    <path class="cls-1" d="M322.91,247.57c0,.89-.2,1.6-.61,2.14-.41.54-.96.81-1.64.81-.73,0-1.3-.26-1.7-.78l-.05.67h-.91v-8.25h.99v3.08c.4-.5.95-.75,1.66-.75s1.26.27,1.66.8c.4.53.6,1.26.6,2.19v.09ZM321.91,247.46c0-.68-.13-1.2-.39-1.57-.26-.37-.64-.55-1.13-.55-.66,0-1.13.3-1.41.91v2.51c.3.61.78.91,1.42.91.48,0,.85-.18,1.11-.55.27-.37.4-.92.4-1.67Z"/>
    <path class="cls-1" d="M326.57,250.52c-.79,0-1.43-.26-1.92-.78-.49-.52-.74-1.21-.74-2.08v-.18c0-.58.11-1.09.33-1.54.22-.45.53-.81.92-1.06.4-.26.82-.38,1.29-.38.76,0,1.34.25,1.76.75s.63,1.21.63,2.14v.41h-3.94c.01.57.18,1.04.5,1.39.32.35.73.53,1.22.53.35,0,.65-.07.89-.21.24-.14.46-.33.64-.57l.61.47c-.49.75-1.22,1.12-2.19,1.12ZM326.45,245.31c-.4,0-.74.15-1.01.44-.27.29-.44.7-.5,1.23h2.91v-.08c-.03-.5-.16-.9-.41-1.17-.24-.28-.57-.42-.99-.42Z"/>
    <path class="cls-1" d="M332.32,249.71c.35,0,.66-.11.93-.32.27-.21.41-.48.44-.81h.94c-.02.33-.13.65-.34.95-.21.3-.49.54-.85.72-.35.18-.73.27-1.12.27-.79,0-1.42-.26-1.89-.79-.47-.53-.7-1.25-.7-2.17v-.17c0-.57.1-1.07.31-1.51.21-.44.51-.78.89-1.03.39-.24.85-.37,1.38-.37.65,0,1.19.2,1.62.59s.66.9.69,1.52h-.94c-.03-.38-.17-.68-.43-.93-.26-.24-.57-.36-.95-.36-.5,0-.9.18-1.17.54-.28.36-.42.89-.42,1.58v.19c0,.67.14,1.19.41,1.55.28.36.67.54,1.18.54Z"/>
    <path class="cls-1" d="M335.48,247.46c0-.57.11-1.08.34-1.54s.54-.81.93-1.05.85-.37,1.37-.37c.79,0,1.43.27,1.92.82.49.55.73,1.28.73,2.19v.07c0,.57-.11,1.07-.33,1.52-.22.45-.53.8-.93,1.05-.4.25-.87.38-1.39.38-.79,0-1.43-.27-1.92-.82-.49-.55-.73-1.27-.73-2.18v-.07ZM336.48,247.57c0,.64.15,1.16.45,1.55.3.39.7.59,1.2.59s.91-.2,1.2-.59c.3-.4.45-.95.45-1.66,0-.64-.15-1.15-.45-1.55-.3-.4-.71-.59-1.21-.59s-.89.2-1.19.59-.45.95-.45,1.68Z"/>
    <path class="cls-1" d="M342.95,244.6l.03.64c.43-.5,1-.75,1.72-.75.81,0,1.37.31,1.66.93.19-.28.45-.5.75-.68s.68-.26,1.1-.26c1.27,0,1.92.67,1.94,2.02v3.89h-.99v-3.83c0-.42-.09-.73-.28-.93-.19-.21-.51-.31-.96-.31-.37,0-.67.11-.92.33-.24.22-.38.52-.42.89v3.86h-1v-3.81c0-.85-.41-1.27-1.24-1.27-.65,0-1.1.28-1.34.83v4.24h-.99v-5.81h.94Z"/>
    <path class="cls-1" d="M354.07,250.52c-.79,0-1.43-.26-1.92-.78-.49-.52-.74-1.21-.74-2.08v-.18c0-.58.11-1.09.33-1.54.22-.45.53-.81.92-1.06.4-.26.82-.38,1.29-.38.76,0,1.34.25,1.76.75s.63,1.21.63,2.14v.41h-3.94c.01.57.18,1.04.5,1.39.32.35.73.53,1.22.53.35,0,.65-.07.89-.21.24-.14.46-.33.64-.57l.61.47c-.49.75-1.22,1.12-2.19,1.12ZM353.95,245.31c-.4,0-.74.15-1.01.44-.27.29-.44.7-.5,1.23h2.91v-.08c-.03-.5-.16-.9-.41-1.17-.24-.28-.57-.42-.99-.42Z"/>
    <path class="cls-1" d="M315.54,259.69l.4-3.9h4.01v.92h-3.16l-.24,2.13c.38-.23.82-.34,1.3-.34.71,0,1.28.24,1.7.71.42.47.63,1.11.63,1.91s-.22,1.44-.65,1.9c-.43.46-1.04.7-1.82.7-.69,0-1.25-.19-1.69-.57-.44-.38-.69-.91-.75-1.59h.94c.06.45.22.79.48,1.01.26.23.6.34,1.02.34.46,0,.82-.16,1.09-.47.26-.31.39-.75.39-1.31,0-.52-.14-.94-.43-1.26-.29-.32-.66-.48-1.14-.48-.43,0-.77.09-1.02.28l-.26.21-.79-.2Z"/>
    <path class="cls-1" d="M326.17,260.28c0,1.16-.2,2.03-.6,2.59s-1.02.85-1.86.85-1.45-.28-1.85-.83c-.4-.55-.61-1.38-.62-2.48v-1.33c0-1.15.2-2,.6-2.56s1.02-.84,1.87-.84,1.46.27,1.86.81c.4.54.6,1.37.61,2.49v1.29ZM325.18,258.92c0-.84-.12-1.45-.35-1.84-.24-.38-.61-.58-1.12-.58s-.88.19-1.11.57c-.23.38-.35.97-.36,1.77v1.59c0,.85.12,1.47.37,1.87.25.4.62.6,1.11.6s.86-.19,1.09-.57c.24-.38.36-.98.37-1.79v-1.63Z"/>
    <path class="cls-1" d="M330.25,258.79l1.88-3h1.21l-2.47,3.88,2.53,3.94h-1.22l-1.92-3.05-1.93,3.05h-1.22l2.54-3.94-2.48-3.88h1.21l1.88,3Z"/>
  </g>
  <rect class="cls-4" x="400.02" y="152.94" width="86.81" height="76.69" rx="5.41" ry="5.41"/>
  <polygon class="cls-4" points="456.45 228.21 443.43 244.81 429.64 228.21 456.45 228.21"/>
  <g>
    <path class="cls-1" d="M437.69,176.07h-1v-6.62l-2,.74v-.9l2.85-1.07h.16v7.86Z"/>
    <path class="cls-1" d="M444.8,173.44h1.08v.81h-1.08v1.82h-1v-1.82h-3.56v-.59l3.5-5.42h1.06v5.19ZM441.37,173.44h2.43v-3.83l-.12.21-2.32,3.62Z"/>
    <path class="cls-1" d="M451.68,172.73c0,1.16-.2,2.03-.6,2.59s-1.02.85-1.86.85-1.45-.28-1.85-.83c-.4-.55-.61-1.38-.62-2.48v-1.33c0-1.15.2-2,.6-2.56s1.02-.84,1.87-.84,1.46.27,1.86.81c.4.54.6,1.37.61,2.49v1.29ZM450.69,171.37c0-.84-.12-1.45-.35-1.84-.24-.38-.61-.58-1.12-.58s-.88.19-1.11.57c-.23.38-.35.97-.36,1.77v1.59c0,.85.12,1.47.37,1.87.25.4.62.6,1.11.6s.85-.19,1.09-.57.36-.98.37-1.79v-1.63Z"/>
    <path class="cls-1" d="M421.97,186.79c-.1.83-.4,1.47-.92,1.92-.51.45-1.2.67-2.05.67-.92,0-1.66-.33-2.22-.99s-.83-1.55-.83-2.66v-.75c0-.73.13-1.37.39-1.92.26-.55.63-.98,1.1-1.27.48-.3,1.03-.44,1.65-.44.83,0,1.5.23,2,.7.5.46.79,1.11.88,1.93h-1.04c-.09-.62-.28-1.08-.58-1.36-.3-.28-.72-.42-1.25-.42-.66,0-1.18.24-1.55.73-.37.49-.56,1.18-.56,2.08v.76c0,.85.18,1.52.53,2.03.35.5.85.75,1.49.75.57,0,1.01-.13,1.32-.39.31-.26.51-.71.61-1.36h1.04Z"/>
    <path class="cls-1" d="M422.96,186.31c0-.57.11-1.08.34-1.54s.54-.81.93-1.05.85-.37,1.37-.37c.79,0,1.43.27,1.92.82.49.55.73,1.28.73,2.19v.07c0,.57-.11,1.07-.33,1.52-.22.45-.53.8-.93,1.05-.4.25-.87.38-1.39.38-.79,0-1.43-.27-1.92-.82-.49-.55-.73-1.27-.73-2.18v-.07ZM423.96,186.43c0,.64.15,1.16.45,1.55.3.39.7.59,1.2.59s.91-.2,1.2-.59c.3-.4.45-.95.45-1.66,0-.64-.15-1.15-.45-1.55-.3-.4-.71-.59-1.21-.59s-.89.2-1.19.59-.45.95-.45,1.68Z"/>
    <path class="cls-1" d="M430.43,183.46l.03.64c.43-.5,1-.75,1.72-.75.81,0,1.37.31,1.66.93.19-.28.45-.5.75-.68s.68-.26,1.1-.26c1.27,0,1.92.67,1.94,2.02v3.89h-.99v-3.83c0-.42-.09-.73-.28-.93-.19-.21-.51-.31-.96-.31-.37,0-.67.11-.92.33-.24.22-.38.52-.42.89v3.86h-1v-3.81c0-.85-.41-1.27-1.24-1.27-.65,0-1.1.28-1.34.83v4.24h-.99v-5.81h.94Z"/>
    <path class="cls-1" d="M444.04,186.43c0,.88-.2,1.6-.61,2.14-.41.54-.95.81-1.64.81s-1.26-.22-1.67-.67v2.8h-.99v-8.05h.91l.05.64c.41-.5.97-.75,1.69-.75s1.25.26,1.66.79.61,1.26.61,2.2v.09ZM443.05,186.31c0-.66-.14-1.17-.42-1.55s-.66-.57-1.15-.57c-.6,0-1.05.27-1.35.8v2.78c.3.53.75.79,1.36.79.48,0,.85-.19,1.14-.57.28-.38.42-.94.42-1.68Z"/>
    <path class="cls-1" d="M448.89,189.27c-.06-.11-.1-.32-.14-.61-.46.48-1.01.72-1.65.72-.57,0-1.04-.16-1.41-.49-.37-.32-.55-.73-.55-1.23,0-.6.23-1.08.69-1.41.46-.33,1.11-.5,1.94-.5h.97v-.46c0-.35-.1-.62-.31-.83-.21-.21-.51-.31-.92-.31-.35,0-.65.09-.89.27-.24.18-.36.4-.36.65h-1c0-.29.1-.57.31-.84.21-.27.48-.48.84-.64.35-.16.74-.24,1.16-.24.67,0,1.19.17,1.57.5.38.33.58.8.59,1.38v2.67c0,.53.07.96.2,1.27v.09h-1.04ZM447.25,188.51c.31,0,.61-.08.89-.24s.48-.37.61-.63v-1.19h-.78c-1.22,0-1.83.36-1.83,1.07,0,.31.1.56.31.73.21.18.47.26.8.26Z"/>
    <path class="cls-1" d="M452.23,183.46l.03.73c.44-.56,1.02-.84,1.74-.84,1.23,0,1.85.69,1.86,2.08v3.84h-.99v-3.85c0-.42-.1-.73-.29-.93-.19-.2-.48-.3-.88-.3-.32,0-.6.09-.85.26-.24.17-.43.4-.57.68v4.14h-.99v-5.81h.94Z"/>
    <path class="cls-1" d="M457.36,181.92c0-.16.05-.3.15-.41.1-.11.24-.17.44-.17s.34.06.44.17c.1.11.15.25.15.41s-.05.3-.15.4c-.1.11-.25.16-.44.16s-.34-.05-.44-.16c-.1-.11-.15-.24-.15-.4ZM458.44,189.27h-.99v-5.81h.99v5.81Z"/>
    <path class="cls-1" d="M462.44,189.38c-.79,0-1.43-.26-1.92-.78-.49-.52-.74-1.21-.74-2.08v-.18c0-.58.11-1.09.33-1.54.22-.45.53-.81.92-1.06.4-.26.82-.38,1.29-.38.76,0,1.34.25,1.76.75s.63,1.21.63,2.14v.41h-3.94c.01.57.18,1.04.5,1.39.32.35.73.53,1.22.53.35,0,.65-.07.89-.21.24-.14.46-.33.64-.57l.61.47c-.49.75-1.22,1.12-2.19,1.12ZM462.32,184.17c-.4,0-.74.15-1.01.44-.27.29-.44.7-.5,1.23h2.91v-.08c-.03-.5-.16-.9-.41-1.17-.24-.28-.57-.42-.99-.42Z"/>
    <path class="cls-1" d="M469.24,187.73c0-.27-.1-.48-.3-.63-.2-.15-.55-.28-1.06-.38-.5-.11-.9-.24-1.2-.39-.29-.15-.51-.33-.66-.54s-.21-.45-.21-.74c0-.48.2-.88.6-1.21.4-.33.92-.49,1.54-.49.66,0,1.19.17,1.6.51.41.34.61.78.61,1.31h-1c0-.27-.12-.51-.35-.7-.23-.2-.52-.3-.87-.3s-.64.08-.85.24-.31.36-.31.62c0,.24.09.42.29.54.19.12.53.24,1.03.35s.9.24,1.21.4c.31.15.54.34.68.56.15.22.22.48.22.79,0,.52-.21.94-.62,1.25-.42.31-.95.47-1.62.47-.47,0-.88-.08-1.24-.25-.36-.16-.64-.39-.84-.69-.2-.29-.3-.61-.3-.96h.99c.02.33.15.6.4.79.25.19.58.29.99.29.38,0,.68-.08.91-.23.23-.15.34-.36.34-.61Z"/>
    <path class="cls-1" d="M412.12,197.36c.44-.54,1.01-.81,1.72-.81,1.23,0,1.85.69,1.86,2.08v3.84h-.99v-3.85c0-.42-.1-.73-.29-.93-.19-.2-.48-.3-.88-.3-.32,0-.61.09-.85.26-.24.17-.43.4-.57.68v4.14h-.99v-8.25h.99v3.14Z"/>
    <path class="cls-1" d="M420.77,202.47c-.06-.11-.1-.32-.14-.61-.46.48-1.01.72-1.65.72-.57,0-1.04-.16-1.41-.49-.37-.32-.55-.73-.55-1.23,0-.6.23-1.08.69-1.41.46-.33,1.11-.5,1.94-.5h.97v-.46c0-.35-.1-.62-.31-.83-.21-.21-.51-.31-.92-.31-.35,0-.65.09-.89.27-.24.18-.36.4-.36.65h-1c0-.29.1-.57.31-.84.21-.27.49-.48.84-.64s.74-.24,1.16-.24c.67,0,1.19.17,1.57.5.38.33.58.8.59,1.38v2.67c0,.53.07.96.2,1.27v.09h-1.04ZM419.12,201.71c.31,0,.61-.08.89-.24s.48-.37.61-.63v-1.19h-.78c-1.22,0-1.83.36-1.83,1.07,0,.31.1.56.31.73.21.18.47.26.8.26Z"/>
    <path class="cls-1" d="M425,201.12l1.44-4.46h1.02l-2.08,5.81h-.76l-2.11-5.81h1.02l1.48,4.46Z"/>
    <path class="cls-1" d="M430.83,202.58c-.79,0-1.43-.26-1.92-.78-.49-.52-.74-1.21-.74-2.08v-.18c0-.58.11-1.09.33-1.54.22-.45.53-.81.92-1.06.4-.26.82-.38,1.29-.38.75,0,1.34.25,1.76.75s.63,1.21.63,2.14v.41h-3.94c.01.57.18,1.04.5,1.39.32.35.73.53,1.22.53.35,0,.65-.07.89-.21.24-.14.46-.33.64-.57l.61.47c-.49.75-1.22,1.12-2.19,1.12ZM430.7,197.37c-.4,0-.74.15-1.01.44-.27.29-.44.7-.5,1.23h2.91v-.08c-.03-.5-.17-.9-.41-1.17-.24-.28-.57-.42-.99-.42Z"/>
    <path class="cls-1" d="M441.88,199.63c0,.89-.2,1.6-.61,2.14-.41.54-.96.81-1.64.81-.73,0-1.3-.26-1.7-.78l-.05.67h-.91v-8.25h.99v3.08c.4-.5.95-.75,1.66-.75s1.26.27,1.66.8c.4.53.6,1.26.6,2.19v.09ZM440.89,199.51c0-.68-.13-1.2-.39-1.57-.26-.37-.64-.55-1.13-.55-.66,0-1.13.3-1.41.91v2.51c.3.61.78.91,1.42.91.48,0,.85-.18,1.11-.55.27-.37.4-.92.4-1.67Z"/>
    <path class="cls-1" d="M445.55,202.58c-.79,0-1.43-.26-1.92-.78-.49-.52-.74-1.21-.74-2.08v-.18c0-.58.11-1.09.33-1.54.22-.45.53-.81.92-1.06.4-.26.82-.38,1.29-.38.76,0,1.34.25,1.76.75s.63,1.21.63,2.14v.41h-3.94c.01.57.18,1.04.5,1.39.32.35.73.53,1.22.53.35,0,.65-.07.89-.21.24-.14.46-.33.64-.57l.61.47c-.49.75-1.22,1.12-2.19,1.12ZM445.42,197.37c-.4,0-.74.15-1.01.44-.27.29-.44.7-.5,1.23h2.91v-.08c-.03-.5-.16-.9-.41-1.17-.24-.28-.57-.42-.99-.42Z"/>
    <path class="cls-1" d="M451.29,201.76c.35,0,.66-.11.93-.32.27-.21.41-.48.44-.81h.94c-.02.33-.13.65-.34.95-.21.3-.49.54-.85.72-.35.18-.73.27-1.12.27-.79,0-1.42-.26-1.89-.79-.47-.53-.7-1.25-.7-2.17v-.17c0-.57.1-1.07.31-1.51.21-.44.51-.78.89-1.03.39-.24.85-.37,1.38-.37.65,0,1.19.2,1.62.59s.66.9.69,1.52h-.94c-.03-.38-.17-.68-.43-.93-.26-.24-.57-.36-.95-.36-.5,0-.9.18-1.17.54-.28.36-.42.89-.42,1.58v.19c0,.67.14,1.19.41,1.55.28.36.67.54,1.18.54Z"/>
    <path class="cls-1" d="M454.46,199.51c0-.57.11-1.08.34-1.54s.54-.81.93-1.05.85-.37,1.37-.37c.79,0,1.43.27,1.92.82.49.55.73,1.28.73,2.19v.07c0,.57-.11,1.07-.33,1.52-.22.45-.53.8-.93,1.05-.4.25-.87.38-1.39.38-.79,0-1.43-.27-1.92-.82-.49-.55-.73-1.27-.73-2.18v-.07ZM455.46,199.63c0,.64.15,1.16.45,1.55.3.39.7.59,1.2.59s.91-.2,1.2-.59c.3-.4.45-.95.45-1.66,0-.64-.15-1.15-.45-1.55-.3-.4-.71-.59-1.21-.59s-.89.2-1.19.59-.45.95-.45,1.68Z"/>
    <path class="cls-1" d="M461.93,196.66l.03.64c.43-.5,1-.75,1.72-.75.81,0,1.37.31,1.66.93.19-.28.45-.5.75-.68s.68-.26,1.1-.26c1.27,0,1.92.67,1.94,2.02v3.89h-.99v-3.83c0-.42-.09-.73-.28-.93-.19-.21-.51-.31-.96-.31-.37,0-.67.11-.92.33-.24.22-.38.52-.42.89v3.86h-1v-3.81c0-.85-.41-1.27-1.24-1.27-.65,0-1.1.28-1.34.83v4.24h-.99v-5.81h.94Z"/>
    <path class="cls-1" d="M473.05,202.58c-.79,0-1.43-.26-1.92-.78-.49-.52-.74-1.21-.74-2.08v-.18c0-.58.11-1.09.33-1.54.22-.45.53-.81.92-1.06.4-.26.82-.38,1.29-.38.76,0,1.34.25,1.76.75s.63,1.21.63,2.14v.41h-3.94c.01.57.18,1.04.5,1.39.32.35.73.53,1.22.53.35,0,.65-.07.89-.21.24-.14.46-.33.64-.57l.61.47c-.49.75-1.22,1.12-2.19,1.12ZM472.92,197.37c-.4,0-.74.15-1.01.44-.27.29-.44.7-.5,1.23h2.91v-.08c-.03-.5-.16-.9-.41-1.17-.24-.28-.57-.42-.99-.42Z"/>
    <path class="cls-1" d="M434.24,215.67h-1v-6.62l-2,.74v-.9l2.85-1.07h.16v7.86Z"/>
    <path class="cls-1" d="M442.06,212.33c0,1.16-.2,2.03-.6,2.59s-1.02.85-1.86.85-1.45-.28-1.85-.83c-.4-.55-.61-1.38-.62-2.48v-1.33c0-1.15.2-2,.6-2.56s1.02-.84,1.87-.84,1.46.27,1.86.81c.4.54.6,1.37.61,2.49v1.29ZM441.07,210.97c0-.84-.12-1.45-.35-1.84-.24-.38-.61-.58-1.12-.58s-.88.19-1.11.57c-.23.38-.35.97-.36,1.77v1.59c0,.85.12,1.47.37,1.87.25.4.62.6,1.11.6s.85-.19,1.09-.57.36-.98.37-1.79v-1.63Z"/>
    <path class="cls-1" d="M448.24,212.33c0,1.16-.2,2.03-.6,2.59s-1.02.85-1.86.85-1.45-.28-1.85-.83c-.4-.55-.61-1.38-.62-2.48v-1.33c0-1.15.2-2,.6-2.56s1.02-.84,1.87-.84,1.46.27,1.86.81c.4.54.6,1.37.61,2.49v1.29ZM447.24,210.97c0-.84-.12-1.45-.35-1.84-.24-.38-.61-.58-1.12-.58s-.88.19-1.11.57c-.23.38-.35.97-.36,1.77v1.59c0,.85.12,1.47.37,1.87.25.4.62.6,1.11.6s.85-.19,1.09-.57.36-.98.37-1.79v-1.63Z"/>
    <path class="cls-1" d="M452.32,210.84l1.87-3h1.21l-2.47,3.88,2.53,3.94h-1.22l-1.92-3.05-1.93,3.05h-1.22l2.54-3.94-2.48-3.88h1.21l1.89,3Z"/>
  </g>
  <rect class="cls-4" x="505.21" y="94.79" width="86.81" height="76.69" rx="5.41" ry="5.41"/>
  <polygon class="cls-4" points="561.64 170.06 548.62 186.66 534.83 170.06 561.64 170.06"/>
  <g>
    <path class="cls-1" d="M547.83,114.23h-5.12v-.71l2.71-3.01c.4-.45.68-.82.83-1.11.15-.29.23-.58.23-.88,0-.41-.12-.74-.37-1s-.58-.39-.99-.39c-.49,0-.88.14-1.15.42-.27.28-.41.67-.41,1.17h-.99c0-.72.23-1.3.7-1.75s1.08-.67,1.86-.67c.73,0,1.3.19,1.72.57.42.38.63.89.63,1.52,0,.77-.49,1.69-1.47,2.75l-2.09,2.27h3.93v.81Z"/>
    <path class="cls-1" d="M553.79,110.89c0,1.16-.2,2.03-.6,2.59s-1.02.85-1.86.85-1.45-.28-1.85-.83c-.4-.55-.61-1.38-.62-2.48v-1.33c0-1.15.2-2,.6-2.56s1.02-.84,1.87-.84,1.46.27,1.86.81c.4.54.6,1.37.61,2.49v1.29ZM552.79,109.53c0-.84-.12-1.45-.35-1.84-.24-.38-.61-.58-1.12-.58s-.88.19-1.11.57c-.23.38-.35.97-.36,1.77v1.59c0,.85.12,1.47.37,1.87.25.4.62.6,1.11.6s.86-.19,1.09-.57c.24-.38.36-.98.37-1.79v-1.63Z"/>
    <path class="cls-1" d="M527.16,124.95c-.1.83-.4,1.47-.92,1.92-.51.45-1.2.67-2.05.67-.92,0-1.66-.33-2.22-.99-.56-.66-.84-1.55-.84-2.66v-.75c0-.73.13-1.37.39-1.92s.63-.98,1.1-1.27c.48-.3,1.03-.44,1.65-.44.83,0,1.5.23,2,.7.5.46.79,1.11.88,1.93h-1.04c-.09-.62-.28-1.08-.58-1.36-.3-.28-.72-.42-1.25-.42-.66,0-1.17.24-1.55.73-.38.49-.56,1.18-.56,2.08v.76c0,.85.18,1.52.53,2.03.35.5.85.75,1.49.75.57,0,1.01-.13,1.32-.39.31-.26.51-.71.61-1.36h1.04Z"/>
    <path class="cls-1" d="M528.15,124.47c0-.57.11-1.08.33-1.54.22-.45.54-.81.93-1.05.4-.25.86-.37,1.37-.37.79,0,1.43.27,1.92.82.49.55.73,1.28.73,2.19v.07c0,.57-.11,1.07-.33,1.52-.22.45-.53.8-.93,1.05-.4.25-.87.38-1.39.38-.79,0-1.43-.27-1.92-.82-.49-.55-.73-1.27-.73-2.18v-.07ZM529.15,124.59c0,.64.15,1.16.45,1.55s.7.59,1.2.59.91-.2,1.2-.59c.3-.4.45-.95.45-1.66,0-.64-.15-1.15-.45-1.55-.3-.4-.7-.59-1.21-.59s-.89.2-1.19.59-.45.95-.45,1.68Z"/>
    <path class="cls-1" d="M535.62,121.62l.03.64c.43-.5,1-.75,1.72-.75.81,0,1.37.31,1.66.93.19-.28.44-.5.75-.68.31-.17.68-.26,1.1-.26,1.28,0,1.92.67,1.94,2.02v3.89h-.99v-3.83c0-.42-.09-.73-.29-.93-.19-.21-.51-.31-.96-.31-.37,0-.67.11-.92.33-.24.22-.38.52-.42.89v3.86h-1v-3.81c0-.85-.41-1.27-1.24-1.27-.65,0-1.1.28-1.34.83v4.24h-.99v-5.81h.94Z"/>
    <path class="cls-1" d="M549.24,124.59c0,.88-.2,1.6-.61,2.14-.4.54-.95.81-1.64.81s-1.26-.22-1.67-.67v2.8h-.99v-8.05h.91l.05.64c.4-.5.97-.75,1.69-.75s1.25.26,1.66.79c.41.53.61,1.26.61,2.2v.09ZM548.24,124.47c0-.66-.14-1.17-.42-1.55s-.66-.57-1.15-.57c-.6,0-1.05.27-1.35.8v2.78c.3.53.75.79,1.36.79.48,0,.86-.19,1.14-.57.28-.38.42-.94.42-1.68Z"/>
    <path class="cls-1" d="M554.08,127.43c-.06-.11-.1-.32-.14-.61-.46.48-1.01.72-1.65.72-.57,0-1.04-.16-1.41-.49-.37-.32-.55-.73-.55-1.23,0-.6.23-1.08.69-1.41.46-.33,1.11-.5,1.94-.5h.97v-.46c0-.35-.1-.62-.31-.83-.21-.21-.51-.31-.92-.31-.35,0-.65.09-.89.27-.24.18-.36.4-.36.65h-1c0-.29.1-.57.31-.84.21-.27.49-.48.84-.64s.74-.24,1.16-.24c.67,0,1.19.17,1.57.5.38.33.58.8.59,1.38v2.67c0,.53.07.96.2,1.27v.09h-1.04ZM552.44,126.67c.31,0,.61-.08.89-.24s.48-.37.61-.63v-1.19h-.78c-1.22,0-1.83.36-1.83,1.07,0,.31.1.56.31.73.21.18.47.26.8.26Z"/>
    <path class="cls-1" d="M557.42,121.62l.03.73c.44-.56,1.02-.84,1.74-.84,1.23,0,1.85.69,1.86,2.08v3.84h-.99v-3.85c0-.42-.1-.73-.29-.93-.19-.2-.48-.3-.88-.3-.32,0-.61.09-.85.26-.24.17-.43.4-.57.68v4.14h-.99v-5.81h.94Z"/>
    <path class="cls-1" d="M562.56,120.07c0-.16.05-.3.15-.41s.24-.17.44-.17.34.06.44.17c.1.11.15.25.15.41s-.05.3-.15.4c-.1.11-.25.16-.44.16s-.34-.05-.44-.16-.15-.24-.15-.4ZM563.63,127.43h-.99v-5.81h.99v5.81Z"/>
    <path class="cls-1" d="M567.63,127.54c-.79,0-1.43-.26-1.92-.78-.49-.52-.74-1.21-.74-2.08v-.18c0-.58.11-1.09.33-1.54.22-.45.53-.81.92-1.06.4-.26.82-.38,1.29-.38.75,0,1.34.25,1.76.75s.63,1.21.63,2.14v.41h-3.94c.01.57.18,1.04.5,1.39.32.35.73.53,1.22.53.35,0,.65-.07.89-.21.24-.14.46-.33.64-.57l.61.47c-.49.75-1.22,1.12-2.19,1.12ZM567.51,122.33c-.4,0-.74.15-1.01.44-.27.29-.44.7-.5,1.23h2.91v-.08c-.03-.5-.17-.9-.41-1.17-.24-.28-.57-.42-.99-.42Z"/>
    <path class="cls-1" d="M574.43,125.89c0-.27-.1-.48-.3-.63-.2-.15-.55-.28-1.06-.38s-.9-.24-1.2-.39c-.29-.15-.51-.33-.66-.54-.14-.21-.21-.45-.21-.74,0-.48.2-.88.6-1.21.4-.33.92-.49,1.54-.49.66,0,1.19.17,1.6.51s.62.78.62,1.31h-1c0-.27-.12-.51-.35-.7-.23-.2-.52-.3-.87-.3s-.64.08-.85.24-.31.36-.31.62c0,.24.09.42.28.54.19.12.53.24,1.03.35.5.11.9.24,1.21.4.31.15.54.34.68.56.15.22.22.48.22.79,0,.52-.21.94-.62,1.25-.42.31-.95.47-1.62.47-.46,0-.88-.08-1.24-.25-.36-.16-.64-.39-.84-.69-.2-.29-.3-.61-.3-.96h.99c.02.33.15.6.4.79.25.19.58.29.99.29.38,0,.68-.08.91-.23.23-.15.34-.36.34-.61Z"/>
    <path class="cls-1" d="M517.31,135.52c.44-.54,1.01-.81,1.72-.81,1.23,0,1.85.69,1.86,2.08v3.84h-.99v-3.85c0-.42-.1-.73-.29-.93-.19-.2-.48-.3-.88-.3-.32,0-.6.09-.85.26-.24.17-.43.4-.57.68v4.14h-.99v-8.25h.99v3.14Z"/>
    <path class="cls-1" d="M525.96,140.63c-.06-.11-.1-.32-.14-.61-.46.48-1.01.72-1.65.72-.57,0-1.04-.16-1.41-.49-.37-.32-.55-.73-.55-1.23,0-.6.23-1.08.69-1.41.46-.33,1.11-.5,1.94-.5h.97v-.46c0-.35-.1-.62-.31-.83-.21-.21-.51-.31-.92-.31-.35,0-.65.09-.89.27-.24.18-.36.4-.36.65h-1c0-.29.1-.57.31-.84.21-.27.48-.48.84-.64.35-.16.74-.24,1.16-.24.67,0,1.19.17,1.57.5.38.33.58.8.59,1.38v2.67c0,.53.07.96.2,1.27v.09h-1.04ZM524.31,139.87c.31,0,.61-.08.89-.24s.48-.37.61-.63v-1.19h-.78c-1.22,0-1.83.36-1.83,1.07,0,.31.1.56.31.73.21.18.47.26.8.26Z"/>
    <path class="cls-1" d="M530.2,139.28l1.44-4.46h1.01l-2.08,5.81h-.76l-2.11-5.81h1.01l1.48,4.46Z"/>
    <path class="cls-1" d="M536.02,140.73c-.79,0-1.43-.26-1.92-.78-.49-.52-.74-1.21-.74-2.08v-.18c0-.58.11-1.09.33-1.54.22-.45.53-.81.92-1.06.4-.26.82-.38,1.29-.38.76,0,1.34.25,1.76.75s.63,1.21.63,2.14v.41h-3.94c.01.57.18,1.04.5,1.39.32.35.73.53,1.22.53.35,0,.65-.07.89-.21.24-.14.46-.33.64-.57l.61.47c-.49.75-1.22,1.12-2.19,1.12ZM535.89,135.52c-.4,0-.74.15-1.01.44-.27.29-.44.7-.5,1.23h2.91v-.08c-.03-.5-.16-.9-.41-1.17-.24-.28-.57-.42-.99-.42Z"/>
    <path class="cls-1" d="M547.08,137.79c0,.89-.2,1.6-.61,2.14-.41.54-.96.81-1.64.81-.73,0-1.3-.26-1.7-.78l-.05.67h-.91v-8.25h.99v3.08c.4-.5.95-.75,1.66-.75s1.26.27,1.66.8c.4.53.6,1.26.6,2.19v.09ZM546.08,137.67c0-.68-.13-1.2-.39-1.57-.26-.37-.64-.55-1.13-.55-.66,0-1.13.3-1.41.91v2.51c.3.61.78.91,1.42.91.48,0,.85-.18,1.11-.55.26-.37.4-.92.4-1.67Z"/>
    <path class="cls-1" d="M550.74,140.73c-.79,0-1.43-.26-1.92-.78-.49-.52-.74-1.21-.74-2.08v-.18c0-.58.11-1.09.33-1.54.22-.45.53-.81.92-1.06.4-.26.82-.38,1.29-.38.75,0,1.34.25,1.76.75s.63,1.21.63,2.14v.41h-3.94c.01.57.18,1.04.5,1.39.32.35.73.53,1.22.53.35,0,.65-.07.89-.21.24-.14.46-.33.64-.57l.61.47c-.49.75-1.22,1.12-2.19,1.12ZM550.62,135.52c-.4,0-.74.15-1.01.44-.27.29-.44.7-.5,1.23h2.91v-.08c-.03-.5-.17-.9-.41-1.17-.24-.28-.57-.42-.99-.42Z"/>
    <path class="cls-1" d="M556.49,139.92c.35,0,.66-.11.93-.32.26-.21.41-.48.44-.81h.94c-.02.33-.13.65-.34.95-.21.3-.49.54-.85.72s-.73.27-1.12.27c-.79,0-1.42-.26-1.89-.79-.47-.53-.7-1.25-.7-2.17v-.17c0-.57.1-1.07.31-1.51.21-.44.51-.78.89-1.03s.85-.37,1.38-.37c.65,0,1.19.2,1.62.59.43.39.66.9.69,1.52h-.94c-.03-.38-.17-.68-.43-.93-.26-.24-.57-.36-.95-.36-.5,0-.9.18-1.17.54-.28.36-.42.89-.42,1.58v.19c0,.67.14,1.19.41,1.55.28.36.67.54,1.18.54Z"/>
    <path class="cls-1" d="M559.65,137.67c0-.57.11-1.08.33-1.54.22-.45.54-.81.93-1.05.4-.25.86-.37,1.37-.37.79,0,1.43.27,1.92.82.49.55.73,1.28.73,2.19v.07c0,.57-.11,1.07-.33,1.52-.22.45-.53.8-.93,1.05-.4.25-.87.38-1.39.38-.79,0-1.43-.27-1.92-.82-.49-.55-.73-1.27-.73-2.18v-.07ZM560.65,137.79c0,.64.15,1.16.45,1.55s.7.59,1.2.59.91-.2,1.2-.59c.3-.4.45-.95.45-1.66,0-.64-.15-1.15-.45-1.55-.3-.4-.7-.59-1.21-.59s-.89.2-1.19.59-.45.95-.45,1.68Z"/>
    <path class="cls-1" d="M567.12,134.82l.03.64c.43-.5,1-.75,1.72-.75.81,0,1.37.31,1.66.93.19-.28.44-.5.75-.68.31-.17.68-.26,1.1-.26,1.28,0,1.92.67,1.94,2.02v3.89h-.99v-3.83c0-.42-.09-.73-.29-.93-.19-.21-.51-.31-.96-.31-.37,0-.67.11-.92.33-.24.22-.38.52-.42.89v3.86h-1v-3.81c0-.85-.41-1.27-1.24-1.27-.65,0-1.1.28-1.34.83v4.24h-.99v-5.81h.94Z"/>
    <path class="cls-1" d="M578.24,140.73c-.79,0-1.43-.26-1.92-.78-.49-.52-.74-1.21-.74-2.08v-.18c0-.58.11-1.09.33-1.54.22-.45.53-.81.92-1.06.4-.26.82-.38,1.29-.38.75,0,1.34.25,1.76.75s.63,1.21.63,2.14v.41h-3.94c.01.57.18,1.04.5,1.39.32.35.73.53,1.22.53.35,0,.65-.07.89-.21.24-.14.46-.33.64-.57l.61.47c-.49.75-1.22,1.12-2.19,1.12ZM578.12,135.52c-.4,0-.74.15-1.01.44-.27.29-.44.7-.5,1.23h2.91v-.08c-.03-.5-.17-.9-.41-1.17-.24-.28-.57-.42-.99-.42Z"/>
    <path class="cls-1" d="M536.63,149.91l.4-3.9h4.01v.92h-3.16l-.24,2.13c.38-.23.82-.34,1.31-.34.71,0,1.28.24,1.7.71.42.47.63,1.11.63,1.91s-.22,1.44-.65,1.9c-.43.46-1.04.7-1.82.7-.69,0-1.25-.19-1.69-.57-.44-.38-.69-.91-.75-1.59h.94c.06.45.22.79.48,1.01.26.23.6.34,1.02.34.46,0,.82-.16,1.09-.47.26-.31.39-.75.39-1.31,0-.52-.14-.94-.43-1.26-.29-.32-.66-.48-1.14-.48-.43,0-.77.09-1.02.28l-.26.21-.79-.2Z"/>
    <path class="cls-1" d="M547.25,150.49c0,1.16-.2,2.03-.6,2.59s-1.02.85-1.86.85-1.45-.28-1.85-.83c-.4-.55-.61-1.38-.62-2.48v-1.33c0-1.15.2-2,.6-2.56s1.02-.84,1.87-.84,1.46.27,1.86.81c.4.54.6,1.37.61,2.49v1.29ZM546.26,149.13c0-.84-.12-1.45-.35-1.84-.24-.38-.61-.58-1.12-.58s-.88.19-1.11.57c-.23.38-.35.97-.36,1.77v1.59c0,.85.12,1.47.37,1.87.25.4.62.6,1.11.6s.85-.19,1.09-.57.36-.98.37-1.79v-1.63Z"/>
    <path class="cls-1" d="M553.43,150.49c0,1.16-.2,2.03-.6,2.59s-1.02.85-1.86.85-1.45-.28-1.85-.83c-.4-.55-.61-1.38-.62-2.48v-1.33c0-1.15.2-2,.6-2.56s1.02-.84,1.87-.84,1.46.27,1.86.81c.4.54.6,1.37.61,2.49v1.29ZM552.43,149.13c0-.84-.12-1.45-.35-1.84-.24-.38-.61-.58-1.12-.58s-.88.19-1.11.57c-.23.38-.35.97-.36,1.77v1.59c0,.85.12,1.47.37,1.87.25.4.62.6,1.11.6s.85-.19,1.09-.57.36-.98.37-1.79v-1.63Z"/>
    <path class="cls-1" d="M557.51,149l1.87-3h1.21l-2.47,3.88,2.53,3.94h-1.22l-1.92-3.05-1.93,3.05h-1.22l2.54-3.94-2.48-3.88h1.21l1.89,3Z"/>
  </g>
  <rect class="cls-4" x="616.79" y="33.51" width="86.81" height="76.69" rx="5.41" ry="5.41"/>
  <g>
    <path class="cls-1" d="M657.68,51.46h-1v-6.62l-2,.74v-.9l2.85-1.07h.16v7.86Z"/>
    <path class="cls-1" d="M665.49,48.13c0,1.16-.2,2.03-.6,2.59s-1.02.85-1.86.85-1.45-.28-1.85-.83c-.4-.55-.61-1.38-.62-2.48v-1.33c0-1.15.2-2,.6-2.56s1.02-.84,1.87-.84,1.46.27,1.86.81c.4.54.6,1.37.61,2.49v1.29ZM664.5,46.77c0-.84-.12-1.45-.35-1.84-.24-.38-.61-.58-1.12-.58s-.88.19-1.11.57c-.23.38-.35.97-.36,1.77v1.59c0,.85.12,1.47.37,1.87.25.4.62.6,1.11.6s.86-.19,1.09-.57c.24-.38.36-.98.37-1.79v-1.63Z"/>
    <path class="cls-1" d="M638.87,62.18c-.1.83-.4,1.47-.92,1.92-.51.45-1.2.67-2.05.67-.92,0-1.66-.33-2.22-.99-.56-.66-.84-1.55-.84-2.66v-.75c0-.73.13-1.37.39-1.92s.63-.98,1.1-1.27c.48-.3,1.03-.44,1.65-.44.83,0,1.5.23,2,.7.5.46.79,1.11.88,1.93h-1.04c-.09-.62-.28-1.08-.58-1.36-.3-.28-.72-.42-1.25-.42-.66,0-1.17.24-1.55.73-.38.49-.56,1.18-.56,2.08v.76c0,.85.18,1.52.53,2.03.35.5.85.75,1.49.75.57,0,1.01-.13,1.32-.39.31-.26.51-.71.61-1.36h1.04Z"/>
    <path class="cls-1" d="M639.86,61.7c0-.57.11-1.08.33-1.54.22-.45.54-.81.93-1.05.4-.25.86-.37,1.37-.37.79,0,1.43.27,1.92.82.49.55.73,1.28.73,2.19v.07c0,.57-.11,1.07-.33,1.52-.22.45-.53.8-.93,1.05-.4.25-.87.38-1.39.38-.79,0-1.43-.27-1.92-.82-.49-.55-.73-1.27-.73-2.18v-.07ZM640.85,61.82c0,.64.15,1.16.45,1.55s.7.59,1.2.59.91-.2,1.2-.59c.3-.4.45-.95.45-1.66,0-.64-.15-1.15-.45-1.55-.3-.4-.7-.59-1.21-.59s-.89.2-1.19.59-.45.95-.45,1.68Z"/>
    <path class="cls-1" d="M647.33,58.85l.03.64c.43-.5,1-.75,1.72-.75.81,0,1.37.31,1.66.93.19-.28.44-.5.75-.68.31-.17.68-.26,1.1-.26,1.28,0,1.92.67,1.94,2.02v3.89h-.99v-3.83c0-.42-.09-.73-.29-.93-.19-.21-.51-.31-.96-.31-.37,0-.67.11-.92.33-.24.22-.38.52-.42.89v3.86h-1v-3.81c0-.85-.41-1.27-1.24-1.27-.65,0-1.1.28-1.34.83v4.24h-.99v-5.81h.94Z"/>
    <path class="cls-1" d="M660.94,61.82c0,.88-.2,1.6-.61,2.14-.4.54-.95.81-1.64.81s-1.26-.22-1.67-.67v2.8h-.99v-8.05h.91l.05.64c.4-.5.97-.75,1.69-.75s1.25.26,1.66.79c.41.53.61,1.26.61,2.2v.09ZM659.95,61.71c0-.66-.14-1.17-.42-1.55s-.66-.57-1.15-.57c-.6,0-1.05.27-1.35.8v2.78c.3.53.75.79,1.36.79.48,0,.86-.19,1.14-.57.28-.38.42-.94.42-1.68Z"/>
    <path class="cls-1" d="M665.79,64.66c-.06-.11-.1-.32-.14-.61-.46.48-1.01.72-1.65.72-.57,0-1.04-.16-1.41-.49-.37-.32-.55-.73-.55-1.23,0-.6.23-1.08.69-1.41.46-.33,1.11-.5,1.94-.5h.97v-.46c0-.35-.1-.62-.31-.83-.21-.21-.51-.31-.92-.31-.35,0-.65.09-.89.27-.24.18-.36.4-.36.65h-1c0-.29.1-.57.31-.84.21-.27.49-.48.84-.64s.74-.24,1.16-.24c.67,0,1.19.17,1.57.5.38.33.58.8.59,1.38v2.67c0,.53.07.96.2,1.27v.09h-1.04ZM664.14,63.9c.31,0,.61-.08.89-.24s.48-.37.61-.63v-1.19h-.78c-1.22,0-1.83.36-1.83,1.07,0,.31.1.56.31.73.21.18.47.26.8.26Z"/>
    <path class="cls-1" d="M669.13,58.85l.03.73c.44-.56,1.02-.84,1.74-.84,1.23,0,1.85.69,1.86,2.08v3.84h-.99v-3.85c0-.42-.1-.73-.29-.93-.19-.2-.48-.3-.88-.3-.32,0-.61.09-.85.26-.24.17-.43.4-.57.68v4.14h-.99v-5.81h.94Z"/>
    <path class="cls-1" d="M674.26,57.31c0-.16.05-.3.15-.41s.24-.17.44-.17.34.06.44.17c.1.11.15.25.15.41s-.05.3-.15.4c-.1.11-.25.16-.44.16s-.34-.05-.44-.16-.15-.24-.15-.4ZM675.34,64.66h-.99v-5.81h.99v5.81Z"/>
    <path class="cls-1" d="M679.34,64.77c-.79,0-1.43-.26-1.92-.78-.49-.52-.74-1.21-.74-2.08v-.18c0-.58.11-1.09.33-1.54.22-.45.53-.81.92-1.06.4-.26.82-.38,1.29-.38.75,0,1.34.25,1.76.75s.63,1.21.63,2.14v.41h-3.94c.01.57.18,1.04.5,1.39.32.35.73.53,1.22.53.35,0,.65-.07.89-.21.24-.14.46-.33.64-.57l.61.47c-.49.75-1.22,1.12-2.19,1.12ZM679.21,59.56c-.4,0-.74.15-1.01.44-.27.29-.44.7-.5,1.23h2.91v-.08c-.03-.5-.17-.9-.41-1.17-.24-.28-.57-.42-.99-.42Z"/>
    <path class="cls-1" d="M686.14,63.12c0-.27-.1-.48-.3-.63-.2-.15-.55-.28-1.06-.38s-.9-.24-1.2-.39c-.29-.15-.51-.33-.66-.54-.14-.21-.21-.45-.21-.74,0-.48.2-.88.6-1.21.4-.33.92-.49,1.54-.49.66,0,1.19.17,1.6.51s.62.78.62,1.31h-1c0-.27-.12-.51-.35-.7-.23-.2-.52-.3-.87-.3s-.64.08-.85.24-.31.36-.31.62c0,.24.09.42.28.54.19.12.53.24,1.03.35.5.11.9.24,1.21.4.31.15.54.34.68.56.15.22.22.48.22.79,0,.52-.21.94-.62,1.25-.42.31-.95.47-1.62.47-.46,0-.88-.08-1.24-.25-.36-.16-.64-.39-.84-.69-.2-.29-.3-.61-.3-.96h.99c.02.33.15.6.4.79.25.19.58.29.99.29.38,0,.68-.08.91-.23.23-.15.34-.36.34-.61Z"/>
    <path class="cls-1" d="M629.02,72.75c.44-.54,1.01-.81,1.72-.81,1.23,0,1.85.69,1.86,2.08v3.84h-.99v-3.85c0-.42-.1-.73-.29-.93-.19-.2-.48-.3-.88-.3-.32,0-.6.09-.85.26-.24.17-.43.4-.57.68v4.14h-.99v-8.25h.99v3.14Z"/>
    <path class="cls-1" d="M637.67,77.86c-.06-.11-.1-.32-.14-.61-.46.48-1.01.72-1.65.72-.57,0-1.04-.16-1.41-.49-.37-.32-.55-.73-.55-1.23,0-.6.23-1.08.69-1.41.46-.33,1.11-.5,1.94-.5h.97v-.46c0-.35-.1-.62-.31-.83-.21-.21-.51-.31-.92-.31-.35,0-.65.09-.89.27-.24.18-.36.4-.36.65h-1c0-.29.1-.57.31-.84.21-.27.48-.48.84-.64.35-.16.74-.24,1.16-.24.67,0,1.19.17,1.57.5.38.33.58.8.59,1.38v2.67c0,.53.07.96.2,1.27v.09h-1.04ZM636.02,77.1c.31,0,.61-.08.89-.24s.48-.37.61-.63v-1.19h-.78c-1.22,0-1.83.36-1.83,1.07,0,.31.1.56.31.73.21.18.47.26.8.26Z"/>
    <path class="cls-1" d="M641.9,76.51l1.44-4.46h1.01l-2.08,5.81h-.76l-2.11-5.81h1.01l1.48,4.46Z"/>
    <path class="cls-1" d="M647.72,77.97c-.79,0-1.43-.26-1.92-.78-.49-.52-.74-1.21-.74-2.08v-.18c0-.58.11-1.09.33-1.54.22-.45.53-.81.92-1.06.4-.26.82-.38,1.29-.38.76,0,1.34.25,1.76.75s.63,1.21.63,2.14v.41h-3.94c.01.57.18,1.04.5,1.39.32.35.73.53,1.22.53.35,0,.65-.07.89-.21.24-.14.46-.33.64-.57l.61.47c-.49.75-1.22,1.12-2.19,1.12ZM647.6,72.76c-.4,0-.74.15-1.01.44-.27.29-.44.7-.5,1.23h2.91v-.08c-.03-.5-.16-.9-.41-1.17-.24-.28-.57-.42-.99-.42Z"/>
    <path class="cls-1" d="M658.78,75.02c0,.89-.2,1.6-.61,2.14-.41.54-.96.81-1.64.81-.73,0-1.3-.26-1.7-.78l-.05.67h-.91v-8.25h.99v3.08c.4-.5.95-.75,1.66-.75s1.26.27,1.66.8c.4.53.6,1.26.6,2.19v.09ZM657.79,74.91c0-.68-.13-1.2-.39-1.57-.26-.37-.64-.55-1.13-.55-.66,0-1.13.3-1.41.91v2.51c.3.61.78.91,1.42.91.48,0,.85-.18,1.11-.55.26-.37.4-.92.4-1.67Z"/>
    <path class="cls-1" d="M662.45,77.97c-.79,0-1.43-.26-1.92-.78-.49-.52-.74-1.21-.74-2.08v-.18c0-.58.11-1.09.33-1.54.22-.45.53-.81.92-1.06.4-.26.82-.38,1.29-.38.75,0,1.34.25,1.76.75s.63,1.21.63,2.14v.41h-3.94c.01.57.18,1.04.5,1.39.32.35.73.53,1.22.53.35,0,.65-.07.89-.21.24-.14.46-.33.64-.57l.61.47c-.49.75-1.22,1.12-2.19,1.12ZM662.32,72.76c-.4,0-.74.15-1.01.44-.27.29-.44.7-.5,1.23h2.91v-.08c-.03-.5-.17-.9-.41-1.17-.24-.28-.57-.42-.99-.42Z"/>
    <path class="cls-1" d="M668.19,77.16c.35,0,.66-.11.93-.32.26-.21.41-.48.44-.81h.94c-.02.33-.13.65-.34.95-.21.3-.49.54-.85.72s-.73.27-1.12.27c-.79,0-1.42-.26-1.89-.79-.47-.53-.7-1.25-.7-2.17v-.17c0-.57.1-1.07.31-1.51.21-.44.51-.78.89-1.03s.85-.37,1.38-.37c.65,0,1.19.2,1.62.59.43.39.66.9.69,1.52h-.94c-.03-.38-.17-.68-.43-.93-.26-.24-.57-.36-.95-.36-.5,0-.9.18-1.17.54-.28.36-.42.89-.42,1.58v.19c0,.67.14,1.19.41,1.55.28.36.67.54,1.18.54Z"/>
    <path class="cls-1" d="M671.36,74.9c0-.57.11-1.08.33-1.54.22-.45.54-.81.93-1.05.4-.25.86-.37,1.37-.37.79,0,1.43.27,1.92.82.49.55.73,1.28.73,2.19v.07c0,.57-.11,1.07-.33,1.52-.22.45-.53.8-.93,1.05-.4.25-.87.38-1.39.38-.79,0-1.43-.27-1.92-.82-.49-.55-.73-1.27-.73-2.18v-.07ZM672.36,75.02c0,.64.15,1.16.45,1.55s.7.59,1.2.59.91-.2,1.2-.59c.3-.4.45-.95.45-1.66,0-.64-.15-1.15-.45-1.55-.3-.4-.7-.59-1.21-.59s-.89.2-1.19.59-.45.95-.45,1.68Z"/>
    <path class="cls-1" d="M678.83,72.05l.03.64c.43-.5,1-.75,1.72-.75.81,0,1.37.31,1.66.93.19-.28.44-.5.75-.68.31-.17.68-.26,1.1-.26,1.28,0,1.92.67,1.94,2.02v3.89h-.99v-3.83c0-.42-.09-.73-.29-.93-.19-.21-.51-.31-.96-.31-.37,0-.67.11-.92.33-.24.22-.38.52-.42.89v3.86h-1v-3.81c0-.85-.41-1.27-1.24-1.27-.65,0-1.1.28-1.34.83v4.24h-.99v-5.81h.94Z"/>
    <path class="cls-1" d="M689.95,77.97c-.79,0-1.43-.26-1.92-.78-.49-.52-.74-1.21-.74-2.08v-.18c0-.58.11-1.09.33-1.54.22-.45.53-.81.92-1.06.4-.26.82-.38,1.29-.38.75,0,1.34.25,1.76.75s.63,1.21.63,2.14v.41h-3.94c.01.57.18,1.04.5,1.39.32.35.73.53,1.22.53.35,0,.65-.07.89-.21.24-.14.46-.33.64-.57l.61.47c-.49.75-1.22,1.12-2.19,1.12ZM689.82,72.76c-.4,0-.74.15-1.01.44-.27.29-.44.7-.5,1.23h2.91v-.08c-.03-.5-.17-.9-.41-1.17-.24-.28-.57-.42-.99-.42Z"/>
    <path class="cls-1" d="M648.05,91.06h-1v-6.62l-2,.74v-.9l2.85-1.07h.16v7.86Z"/>
    <path class="cls-1" d="M655.87,87.73c0,1.16-.2,2.03-.6,2.59s-1.02.85-1.86.85-1.45-.28-1.85-.83c-.4-.55-.61-1.38-.62-2.48v-1.33c0-1.15.2-2,.6-2.56s1.02-.84,1.87-.84,1.46.27,1.86.81c.4.54.6,1.37.61,2.49v1.29ZM654.88,86.37c0-.84-.12-1.45-.35-1.84-.24-.38-.61-.58-1.12-.58s-.88.19-1.11.57c-.23.38-.35.97-.36,1.77v1.59c0,.85.12,1.47.37,1.87.25.4.62.6,1.11.6s.86-.19,1.09-.57c.24-.38.36-.98.37-1.79v-1.63Z"/>
    <path class="cls-1" d="M662.05,87.73c0,1.16-.2,2.03-.6,2.59s-1.02.85-1.86.85-1.45-.28-1.85-.83c-.4-.55-.61-1.38-.62-2.48v-1.33c0-1.15.2-2,.6-2.56s1.02-.84,1.87-.84,1.46.27,1.86.81c.4.54.6,1.37.61,2.49v1.29ZM661.05,86.37c0-.84-.12-1.45-.35-1.84-.24-.38-.61-.58-1.12-.58s-.88.19-1.11.57c-.23.38-.35.97-.36,1.77v1.59c0,.85.12,1.47.37,1.87.25.4.62.6,1.11.6s.86-.19,1.09-.57c.24-.38.36-.98.37-1.79v-1.63Z"/>
    <path class="cls-1" d="M668.22,87.73c0,1.16-.2,2.03-.6,2.59s-1.02.85-1.86.85-1.45-.28-1.85-.83c-.4-.55-.61-1.38-.62-2.48v-1.33c0-1.15.2-2,.6-2.56s1.02-.84,1.87-.84,1.46.27,1.86.81c.4.54.6,1.37.61,2.49v1.29ZM667.23,86.37c0-.84-.12-1.45-.35-1.84-.24-.38-.61-.58-1.12-.58s-.88.19-1.11.57c-.23.38-.35.97-.36,1.77v1.59c0,.85.12,1.47.37,1.87.25.4.62.6,1.11.6s.86-.19,1.09-.57c.24-.38.36-.98.37-1.79v-1.63Z"/>
    <path class="cls-1" d="M672.3,86.24l1.88-3h1.21l-2.47,3.88,2.53,3.94h-1.22l-1.92-3.05-1.93,3.05h-1.22l2.54-3.94-2.48-3.88h1.21l1.88,3Z"/>
  </g>
  <polygon class="cls-4" points="673.21 108.79 660.19 125.38 646.4 108.79 673.21 108.79"/>
  <g>
    <g>
      <path class="cls-2" d="M773.66,374.21v4.14h11.64v2.56h-11.64v4.14h-2.1v-10.84h2.1Z"/>
      <path class="cls-2" d="M771.56,360.82h13.74v2.56h-6v6.45h6v2.57h-13.74v-2.57h5.91v-6.45h-5.91v-2.56Z"/>
      <path class="cls-2" d="M773.59,355.2h3.81v-4.81h1.97v4.81h3.89v-6.1h2.04v8.66h-13.74v-8.66h2.03v6.1Z"/>
      <path class="cls-2" d="M778.41,330.9h5.56c.51.7.89,1.44,1.13,2.23.24.79.36,1.63.36,2.53,0,1.12-.17,2.14-.52,3.04-.35.91-.83,1.69-1.45,2.33-.62.64-1.36,1.14-2.22,1.49s-1.8.52-2.82.52-1.98-.17-2.84-.5c-.86-.34-1.6-.81-2.22-1.43-.62-.62-1.1-1.37-1.44-2.25s-.51-1.87-.51-2.96c0-.56.04-1.08.13-1.56.09-.48.21-.93.37-1.35.16-.42.34-.79.56-1.14.22-.34.47-.66.73-.94l1.16.73c.18.11.3.26.34.45s0,.38-.14.6c-.12.21-.24.42-.36.63s-.22.44-.31.7-.16.54-.22.86c-.06.32-.08.69-.08,1.11,0,.68.11,1.29.34,1.84.23.55.55,1.01.98,1.4.42.39.93.68,1.53.89.6.21,1.26.31,2,.31.79,0,1.49-.11,2.1-.34.62-.23,1.14-.54,1.57-.95.43-.41.75-.9.98-1.48s.34-1.22.34-1.93c0-.51-.05-.96-.16-1.36s-.25-.79-.44-1.17h-2.49v1.73c0,.16-.05.29-.14.38-.09.09-.2.14-.34.14h-1.44v-4.56Z"/>
      <path class="cls-2" d="M785.3,317.7v2.31c0,.44-.17.75-.51.95l-4.4,2.89c-.17.11-.28.23-.35.36-.07.13-.1.32-.1.57v1.09h5.37v2.56h-13.74v-4.19c0-.93.1-1.73.29-2.4.19-.67.46-1.22.81-1.64.35-.43.76-.74,1.25-.95s1.02-.3,1.6-.3c.46,0,.9.07,1.31.2s.79.33,1.12.59.63.57.88.95c.25.38.45.81.6,1.29.1-.16.21-.32.34-.46.13-.14.28-.27.46-.38l5.07-3.44ZM778.1,324.27c0-.48-.06-.9-.18-1.26-.12-.36-.29-.65-.5-.88-.21-.23-.46-.4-.76-.52-.29-.11-.61-.17-.96-.17-.7,0-1.23.23-1.61.69-.37.46-.56,1.16-.56,2.1v1.63h4.56v-1.6Z"/>
      <path class="cls-2" d="M785.3,304.44v1.98c0,.22-.05.4-.17.54-.11.14-.25.24-.41.31l-2.8,1.03v5.69l2.8,1.03c.15.05.28.15.4.29.12.15.18.33.18.54v2l-13.74-5.41v-2.6l13.74-5.4ZM780.11,308.95l-4.57,1.67c-.2.08-.44.17-.72.26-.28.09-.58.18-.9.27.32.08.63.17.91.26.28.09.53.17.74.26l4.55,1.66v-4.37Z"/>
      <path class="cls-2" d="M771.56,298.55c0-.92.11-1.71.32-2.38.22-.67.52-1.23.9-1.66.39-.44.85-.76,1.39-.97.54-.21,1.13-.32,1.77-.32s1.27.11,1.83.33c.55.22,1.03.55,1.43,1,.4.44.71,1,.93,1.67.22.67.33,1.45.33,2.34v1.91h4.83v2.56h-13.74v-4.47ZM778.47,298.55c0-.47-.06-.88-.18-1.23-.12-.35-.29-.64-.5-.87-.22-.23-.48-.4-.8-.52-.31-.11-.66-.17-1.05-.17s-.7.06-1,.17c-.3.11-.55.29-.76.51-.21.23-.37.52-.48.86-.11.35-.17.76-.17,1.23v1.91h4.93v-1.91Z"/>
      <path class="cls-2" d="M771.56,279.67h13.74v2.56h-6v6.45h6v2.57h-13.74v-2.57h5.91v-6.45h-5.91v-2.56Z"/>
      <path class="cls-2" d="M785.3,269.43v2.57h-13.74v-2.57h13.74Z"/>
      <path class="cls-2" d="M774.06,259.05c.13.08.23.16.29.24.06.09.09.19.09.32,0,.13-.05.28-.15.43-.1.16-.21.34-.33.56s-.23.47-.33.76c-.1.29-.15.63-.15,1.02,0,.35.04.67.13.93.08.27.2.49.36.67.15.18.33.32.55.4.21.09.45.13.7.13.32,0,.59-.09.81-.27.21-.18.4-.42.55-.72.15-.3.29-.64.41-1.02.12-.38.25-.77.38-1.17.14-.4.29-.79.48-1.17.18-.38.41-.72.68-1.02.28-.3.61-.54,1.01-.72.4-.18.88-.27,1.45-.27.62,0,1.2.11,1.74.32.54.21,1.01.52,1.42.93.4.41.72.91.95,1.5.23.59.35,1.26.35,2.02,0,.44-.04.87-.13,1.29-.09.42-.21.83-.37,1.22s-.35.76-.57,1.1c-.22.34-.47.65-.74.91l-1.23-.75c-.09-.06-.16-.15-.22-.25-.06-.1-.09-.21-.09-.32,0-.16.06-.33.19-.51s.27-.4.43-.66c.16-.25.3-.55.43-.89.13-.34.2-.75.2-1.22,0-.73-.17-1.29-.52-1.69-.35-.4-.84-.6-1.49-.6-.36,0-.66.09-.88.27-.23.18-.42.42-.57.72s-.29.64-.39,1.02c-.11.38-.22.77-.35,1.16-.13.39-.28.78-.46,1.16-.18.38-.41.72-.69,1.02s-.64.54-1.07.72c-.43.18-.96.27-1.58.27-.5,0-.99-.1-1.46-.3-.47-.2-.9-.49-1.26-.87s-.66-.85-.88-1.41c-.22-.56-.33-1.2-.33-1.92,0-.81.13-1.56.38-2.24s.61-1.27,1.06-1.75l1.21.64Z"/>
      <path class="cls-2" d="M771.56,239.74h13.74v1.31c0,.2-.03.37-.1.51s-.18.27-.34.39l-9.16,7.17c.42-.04.8-.06,1.16-.06h8.44v2.25h-13.74v-1.34c0-.11,0-.2.01-.28,0-.08.03-.15.06-.21.03-.06.07-.12.12-.18.05-.06.12-.12.21-.19l9.2-7.2c-.22.02-.44.03-.66.05-.21.01-.41.02-.6.02h-8.35v-2.25Z"/>
      <path class="cls-2" d="M778.43,223.59c1.01,0,1.94.17,2.8.5s1.6.8,2.23,1.41c.63.61,1.12,1.34,1.47,2.19s.53,1.8.53,2.85-.18,1.99-.53,2.84-.84,1.59-1.47,2.2-1.37,1.08-2.23,1.42c-.86.34-1.79.5-2.8.5s-1.94-.17-2.8-.5c-.86-.34-1.6-.81-2.23-1.42s-1.12-1.34-1.47-2.2-.53-1.8-.53-2.84c0-.7.08-1.35.24-1.97s.39-1.18.68-1.69c.29-.51.65-.97,1.07-1.38.42-.41.89-.76,1.41-1.04.52-.29,1.08-.5,1.69-.65.61-.15,1.25-.22,1.92-.22ZM778.43,226.2c-.75,0-1.43.1-2.03.3s-1.11.49-1.52.86c-.42.37-.74.83-.96,1.36s-.33,1.14-.33,1.81.11,1.27.33,1.81.54.99.96,1.37c.42.38.93.67,1.52.87s1.27.3,2.03.3,1.43-.1,2.03-.3,1.11-.49,1.52-.87c.42-.38.73-.83.96-1.37s.33-1.14.33-1.81-.11-1.27-.33-1.81-.54-.99-.96-1.36c-.41-.37-.92-.66-1.52-.86s-1.27-.3-2.03-.3Z"/>
      <path class="cls-2" d="M773.66,211.74v4.14h11.64v2.56h-11.64v4.14h-2.1v-10.84h2.1Z"/>
      <path class="cls-2" d="M778.43,193.12c1.01,0,1.93.17,2.77.5.84.34,1.57.81,2.18,1.42.61.61,1.08,1.34,1.42,2.19.33.85.5,1.8.5,2.85v5.23h-13.74v-5.23c0-1.04.17-1.99.51-2.85.34-.86.81-1.59,1.42-2.19.61-.61,1.33-1.08,2.17-1.42.84-.34,1.77-.5,2.77-.5ZM778.43,195.74c-.75,0-1.43.1-2.03.3-.6.2-1.11.49-1.52.86-.41.38-.73.83-.95,1.37s-.33,1.14-.33,1.81v2.67h9.67v-2.67c0-.67-.11-1.27-.33-1.81s-.54-.99-.96-1.37c-.41-.38-.92-.67-1.52-.86-.6-.2-1.27-.3-2.03-.3Z"/>
      <path class="cls-2" d="M785.3,180.14v2.31c0,.44-.17.75-.51.95l-4.4,2.89c-.17.11-.28.23-.35.36-.07.13-.1.32-.1.57v1.09h5.37v2.56h-13.74v-4.19c0-.93.1-1.73.29-2.4.19-.67.46-1.22.81-1.64.35-.43.76-.74,1.25-.95s1.02-.3,1.6-.3c.46,0,.9.07,1.31.2s.79.33,1.12.59.63.57.88.95c.25.38.45.81.6,1.29.1-.16.21-.32.34-.46.13-.14.28-.27.46-.38l5.07-3.44ZM778.1,186.72c0-.48-.06-.9-.18-1.26-.12-.36-.29-.65-.5-.88-.21-.23-.46-.4-.76-.52-.29-.11-.61-.17-.96-.17-.7,0-1.23.23-1.61.69-.37.46-.56,1.16-.56,2.1v1.63h4.56v-1.6Z"/>
      <path class="cls-2" d="M785.3,166.88v1.98c0,.22-.05.4-.17.54-.11.14-.25.24-.41.31l-2.8,1.03v5.69l2.8,1.03c.15.05.28.15.4.29.12.15.18.33.18.54v2l-13.74-5.41v-2.6l13.74-5.4ZM780.11,171.39l-4.57,1.67c-.2.08-.44.17-.72.26-.28.09-.58.18-.9.27.32.08.63.17.91.26.28.09.53.17.74.26l4.55,1.66v-4.37Z"/>
      <path class="cls-2" d="M771.56,147.18l13.74,4.27v2.31l-9.39,3c-.23.08-.51.16-.84.23.16.04.31.08.45.11.14.04.27.08.39.12l9.39,3.03v2.32l-13.74,4.26v-2.14c0-.22.05-.41.16-.56.1-.15.25-.25.42-.3l8.22-2.34c.2-.05.42-.1.66-.15s.49-.1.75-.15c-.27-.05-.52-.11-.75-.17s-.45-.12-.66-.19l-8.22-2.7c-.15-.05-.28-.15-.4-.3-.12-.15-.18-.33-.18-.55v-.75c0-.22.05-.4.16-.54s.25-.24.42-.31l8.22-2.69c.39-.13.84-.25,1.36-.36-.5-.08-.95-.17-1.36-.28l-8.22-2.34c-.16-.04-.29-.13-.41-.29-.11-.16-.17-.34-.17-.56v-2Z"/>
      <path class="cls-2" d="M771.56,133.91h13.74v1.31c0,.2-.03.37-.1.51s-.18.27-.34.39l-9.16,7.17c.42-.04.8-.06,1.16-.06h8.44v2.25h-13.74v-1.34c0-.11,0-.2.01-.28,0-.08.03-.15.06-.21.03-.06.07-.12.12-.18.05-.06.12-.12.21-.19l9.2-7.2c-.22.02-.44.03-.66.05-.21.01-.41.02-.6.02h-8.35v-2.25Z"/>
    </g>
    <g>
      <path class="cls-2" d="M800.61,353.94v11.99h33.69v7.4h-33.69v11.99h-6.08v-31.38h6.08Z"/>
      <path class="cls-2" d="M814.42,310.79c2.92,0,5.62.48,8.1,1.44,2.48.96,4.63,2.32,6.45,4.08,1.82,1.76,3.23,3.88,4.25,6.35,1.02,2.48,1.53,5.23,1.53,8.25s-.51,5.75-1.53,8.22c-1.02,2.48-2.43,4.6-4.25,6.37-1.81,1.77-3.96,3.14-6.45,4.11-2.48.97-5.18,1.46-8.1,1.46s-5.61-.49-8.1-1.46c-2.48-.97-4.63-2.34-6.45-4.11-1.82-1.77-3.23-3.89-4.25-6.37s-1.53-5.22-1.53-8.22c0-2.02.23-3.91.7-5.69.47-1.78,1.13-3.41,1.98-4.9.85-1.48,1.89-2.82,3.11-4,1.22-1.18,2.58-2.19,4.08-3.01,1.5-.83,3.14-1.45,4.9-1.88s3.61-.65,5.55-.65ZM814.42,318.35c-2.18,0-4.14.29-5.87.88-1.73.59-3.2,1.42-4.41,2.5s-2.14,2.4-2.78,3.95c-.64,1.55-.96,3.3-.96,5.24s.32,3.69.96,5.24c.64,1.55,1.57,2.87,2.78,3.96,1.21,1.09,2.68,1.93,4.41,2.52,1.73.59,3.69.88,5.87.88s4.14-.29,5.87-.88c1.73-.59,3.2-1.43,4.4-2.52,1.2-1.09,2.12-2.41,2.76-3.96.64-1.55.96-3.29.96-5.24s-.32-3.69-.96-5.24c-.64-1.55-1.56-2.86-2.76-3.95s-2.67-1.92-4.4-2.5c-1.73-.59-3.69-.88-5.87-.88Z"/>
      <path class="cls-2" d="M801.77,269.73c.38.22.67.45.84.7.17.25.26.55.26.92,0,.38-.14.8-.43,1.25-.28.45-.6.99-.95,1.61-.35.62-.66,1.35-.95,2.19-.28.83-.43,1.82-.43,2.96,0,1.03.12,1.92.37,2.69s.59,1.42,1.03,1.94.97.91,1.58,1.17,1.29.38,2.02.38c.93,0,1.71-.26,2.34-.78s1.15-1.21,1.59-2.08c.44-.86.83-1.84,1.18-2.94.35-1.1.72-2.23,1.11-3.38.39-1.15.85-2.28,1.38-3.38s1.18-2.08,1.98-2.94c.8-.86,1.77-1.55,2.93-2.08,1.16-.52,2.56-.78,4.21-.78,1.8,0,3.48.31,5.05.92,1.57.61,2.93,1.51,4.1,2.69,1.16,1.18,2.08,2.63,2.75,4.33.67,1.71,1,3.66,1,5.86,0,1.27-.12,2.51-.37,3.74-.25,1.23-.6,2.41-1.06,3.53-.46,1.13-1.01,2.19-1.65,3.18-.64.99-1.36,1.87-2.14,2.64l-3.55-2.17c-.26-.18-.47-.42-.65-.71-.17-.29-.26-.6-.26-.94,0-.46.19-.95.56-1.48s.79-1.16,1.25-1.9c.46-.73.88-1.59,1.25-2.57.38-.98.56-2.16.56-3.53,0-2.11-.5-3.74-1.5-4.9-1-1.15-2.43-1.73-4.3-1.73-1.04,0-1.9.26-2.56.78s-1.21,1.21-1.66,2.08c-.45.86-.83,1.84-1.14,2.94-.31,1.1-.65,2.22-1.02,3.35s-.81,2.25-1.32,3.35c-.51,1.1-1.18,2.08-2.01,2.94-.82.86-1.86,1.55-3.09,2.08-1.24.52-2.76.78-4.58.78-1.45,0-2.86-.29-4.23-.87-1.38-.58-2.59-1.42-3.66-2.52-1.06-1.1-1.92-2.46-2.56-4.07s-.96-3.47-.96-5.56c0-2.35.37-4.51,1.1-6.49.73-1.98,1.76-3.67,3.08-5.06l3.49,1.84Z"/>
      <path class="cls-2" d="M824.92,233.44c0-.4.16-.76.47-1.07l3.16-2.92c2,1.61,3.53,3.6,4.59,5.95s1.59,5.18,1.59,8.48c0,2.95-.5,5.61-1.51,7.96-1.01,2.36-2.41,4.37-4.21,6.04-1.8,1.67-3.94,2.95-6.43,3.84-2.49.89-5.22,1.33-8.17,1.33s-5.72-.48-8.21-1.43-4.62-2.3-6.42-4.03c-1.8-1.73-3.19-3.8-4.19-6.2-1-2.4-1.5-5.06-1.5-7.98s.48-5.47,1.43-7.71c.95-2.25,2.2-4.16,3.74-5.73l3.44,2.48c.22.15.41.33.58.56.17.23.25.55.25.95,0,.27-.08.56-.23.85-.16.29-.35.61-.58.96-.23.35-.48.75-.76,1.21-.28.46-.53.99-.76,1.6s-.42,1.31-.58,2.1-.23,1.72-.23,2.76c0,1.78.32,3.41.95,4.88.63,1.48,1.55,2.75,2.75,3.81,1.2,1.06,2.67,1.89,4.4,2.48,1.73.59,3.71.88,5.93.88s4.23-.32,5.97-.95c1.74-.63,3.21-1.49,4.4-2.57,1.19-1.08,2.1-2.36,2.74-3.82s.95-3.04.95-4.73c0-1.01-.05-1.92-.17-2.74-.11-.82-.28-1.57-.52-2.25s-.55-1.34-.92-1.95c-.38-.61-.84-1.22-1.39-1.83-.17-.18-.3-.38-.4-.58-.1-.2-.15-.41-.15-.63Z"/>
      <path class="cls-2" d="M834.3,190.29v5.72c0,.64-.16,1.16-.48,1.57-.32.4-.72.71-1.2.91l-8.11,2.97v16.47l8.11,2.97c.42.15.81.43,1.15.85.35.42.52.94.52,1.57v5.78l-39.77-15.65v-7.53l39.77-15.62ZM819.28,203.35l-13.23,4.84c-.59.24-1.28.49-2.09.74-.81.26-1.68.51-2.61.77.94.24,1.81.49,2.63.74s1.53.5,2.13.74l13.17,4.81v-12.65Z"/>
      <path class="cls-2" d="M828.19,162.87h6.11v23.29h-39.77v-7.4h33.66v-15.9Z"/>
      <path class="cls-2" d="M800.42,150.17h11.03v-13.92h5.69v13.92h11.25v-17.65h5.91v25.08h-39.77v-25.08h5.88v17.65Z"/>
    </g>
  </g>
  <g>
    <path class="cls-7" d="M270.88,5.96v.93c0,.09-.03.16-.08.22s-.14.09-.24.09h-.86v2.29h-1.4v-2.29h-3.96c-.11,0-.2-.03-.29-.1-.08-.07-.13-.15-.16-.25l-.17-.81,4.45-5.95h1.52v5.86h1.18ZM268.3,5.96v-3.07c0-.29.02-.61.06-.96l-2.92,4.04h2.86Z"/>
    <path class="cls-7" d="M273.85,3.52c.21-.04.41-.07.6-.09.19-.02.38-.03.55-.03.49,0,.93.07,1.31.22.38.15.69.35.95.61.26.26.45.56.58.91s.19.72.19,1.13c0,.5-.09.95-.26,1.36-.18.41-.42.76-.73,1.06s-.68.52-1.11.68c-.43.16-.89.24-1.39.24-.29,0-.57-.03-.84-.09-.26-.06-.51-.14-.74-.24-.23-.1-.45-.22-.64-.35-.2-.13-.37-.27-.53-.42l.49-.68c.1-.15.24-.22.41-.22.11,0,.22.03.33.1.11.07.24.15.39.23.15.08.32.16.51.23.2.07.43.1.71.1.29,0,.55-.05.78-.14.23-.1.41-.23.56-.4s.26-.38.34-.61c.08-.24.11-.49.11-.77,0-.51-.15-.91-.45-1.2s-.74-.43-1.32-.43c-.45,0-.9.08-1.37.25l-1-.29.78-4.56h4.64v.68c0,.23-.07.42-.21.56-.14.14-.39.21-.73.21h-2.58l-.33,1.96Z"/>
    <path class="cls-7" d="M285.97,4.8c0,.82-.09,1.53-.26,2.14-.18.6-.42,1.1-.73,1.5-.31.39-.68.69-1.1.88-.42.19-.88.29-1.37.29s-.94-.1-1.36-.29c-.42-.19-.78-.49-1.09-.88-.31-.39-.55-.89-.72-1.5s-.26-1.32-.26-2.14.09-1.54.26-2.14c.17-.6.41-1.1.72-1.5.31-.39.67-.69,1.09-.88.42-.19.87-.29,1.36-.29s.95.1,1.37.29c.42.19.79.49,1.1.88.31.39.55.89.73,1.5.18.6.26,1.31.26,2.14ZM284.31,4.8c0-.68-.05-1.24-.15-1.69-.1-.45-.23-.8-.4-1.07-.17-.26-.36-.45-.58-.56-.22-.11-.44-.16-.68-.16s-.45.05-.67.16c-.21.11-.4.29-.57.56-.16.26-.3.62-.39,1.07-.1.45-.15,1.01-.15,1.69s.05,1.24.15,1.69c.1.45.23.8.39,1.07.16.26.35.45.57.56s.44.16.67.16.46-.05.68-.16c.22-.11.41-.29.58-.56.17-.26.3-.62.4-1.07.1-.45.15-1.01.15-1.69Z"/>
    <path class="cls-7" d="M293.51,4.8c0,.82-.09,1.53-.26,2.14-.18.6-.42,1.1-.73,1.5-.31.39-.68.69-1.1.88-.42.19-.88.29-1.37.29s-.94-.1-1.36-.29c-.42-.19-.78-.49-1.09-.88-.31-.39-.55-.89-.72-1.5s-.26-1.32-.26-2.14.09-1.54.26-2.14c.17-.6.41-1.1.72-1.5.31-.39.67-.69,1.09-.88.42-.19.87-.29,1.36-.29s.95.1,1.37.29c.42.19.79.49,1.1.88.31.39.55.89.73,1.5.18.6.26,1.31.26,2.14ZM291.85,4.8c0-.68-.05-1.24-.15-1.69-.1-.45-.23-.8-.4-1.07-.17-.26-.36-.45-.58-.56-.22-.11-.44-.16-.68-.16s-.45.05-.67.16c-.21.11-.4.29-.57.56-.16.26-.3.62-.39,1.07-.1.45-.15,1.01-.15,1.69s.05,1.24.15,1.69c.1.45.23.8.39,1.07.16.26.35.45.57.56s.44.16.67.16.46-.05.68-.16c.22-.11.41-.29.58-.56.17-.26.3-.62.4-1.07.1-.45.15-1.01.15-1.69Z"/>
    <path class="cls-7" d="M303.54,8.06v1.44h-5.51V.1h1.75v7.96h3.76Z"/>
    <path class="cls-7" d="M306.55,9.5h-1.75V.1h1.75v9.4Z"/>
    <path class="cls-7" d="M313.65,1.81c-.05.09-.11.16-.17.2s-.13.06-.22.06c-.09,0-.19-.03-.3-.1-.11-.07-.23-.14-.38-.22-.15-.08-.32-.16-.52-.22-.2-.07-.43-.1-.7-.1-.24,0-.46.03-.64.09-.18.06-.33.14-.46.24-.12.1-.21.23-.28.37-.06.15-.09.3-.09.48,0,.22.06.41.19.55.12.15.29.27.49.38.2.1.43.2.7.28.26.08.53.17.8.26.27.09.54.2.8.33s.49.28.7.47c.2.19.37.42.49.69.12.27.18.6.18.99,0,.42-.07.82-.22,1.19-.15.37-.36.69-.64.97s-.62.49-1.02.65-.86.24-1.38.24c-.3,0-.59-.03-.88-.09s-.57-.14-.83-.25-.52-.24-.75-.39c-.23-.15-.44-.32-.62-.51l.51-.84c.04-.06.1-.11.17-.15.07-.04.14-.06.22-.06.11,0,.23.04.35.13.12.09.27.19.45.3.17.11.38.21.61.3.23.09.51.13.83.13.5,0,.88-.12,1.16-.35.27-.24.41-.58.41-1.02,0-.25-.06-.45-.19-.6-.12-.16-.29-.29-.49-.39-.2-.11-.44-.2-.7-.27s-.52-.15-.79-.24c-.27-.09-.53-.19-.79-.31-.26-.12-.49-.28-.7-.47-.2-.19-.37-.44-.49-.73-.12-.29-.18-.65-.18-1.08,0-.34.07-.68.2-1,.14-.32.33-.61.59-.86.26-.25.58-.45.96-.6.38-.15.82-.23,1.31-.23.55,0,1.07.09,1.53.26s.87.42,1.2.73l-.44.83Z"/>
    <path class="cls-7" d="M322.34,1.54h-2.83v7.96h-1.75V1.54h-2.83V.1h7.42v1.44Z"/>
    <path class="cls-7" d="M325.33,1.5v2.61h3.29v1.35h-3.29v2.66h4.17v1.4h-5.93V.1h5.93v1.39h-4.17Z"/>
    <path class="cls-7" d="M339.4,4.8c0,.69-.12,1.32-.34,1.9-.23.58-.55,1.07-.97,1.49s-.92.74-1.5.97c-.58.23-1.24.34-1.95.34h-3.58V.1h3.58c.71,0,1.37.12,1.95.35s1.08.55,1.5.97c.42.41.74.91.97,1.48.23.58.34,1.21.34,1.9ZM337.6,4.8c0-.52-.07-.98-.21-1.39-.14-.41-.33-.76-.59-1.04-.26-.28-.57-.5-.94-.65-.37-.15-.78-.23-1.24-.23h-1.83v6.62h1.83c.46,0,.87-.08,1.24-.23.37-.15.68-.37.94-.65.26-.28.46-.63.59-1.04.14-.41.21-.87.21-1.39Z"/>
    <path class="cls-7" d="M350.55,7.29c.1,0,.18.04.25.11l.69.75c-.38.47-.85.83-1.41,1.09s-1.22.38-2,.38c-.7,0-1.33-.12-1.88-.36s-1.03-.57-1.43-.99-.7-.93-.91-1.52c-.21-.59-.32-1.23-.32-1.93s.11-1.35.34-1.94c.23-.59.54-1.09.95-1.52.41-.42.9-.75,1.47-.99.57-.24,1.2-.35,1.88-.35s1.29.11,1.82.34c.53.23.98.52,1.36.88l-.58.81c-.04.05-.08.1-.13.14-.05.04-.13.06-.22.06-.07,0-.13-.02-.2-.06-.07-.04-.14-.08-.23-.14-.08-.05-.18-.11-.29-.18s-.23-.12-.38-.18c-.14-.05-.31-.1-.5-.14-.19-.04-.41-.06-.65-.06-.42,0-.8.07-1.15.22-.35.15-.65.37-.9.65s-.45.63-.58,1.04c-.14.41-.21.88-.21,1.4s.08,1,.22,1.41.35.76.61,1.04.56.5.9.65c.35.15.72.22,1.12.22.24,0,.45-.01.65-.04.19-.03.37-.07.53-.12.16-.06.32-.13.46-.22.14-.09.29-.2.43-.33.04-.04.09-.07.14-.09s.1-.04.15-.04Z"/>
    <path class="cls-7" d="M361.66,4.8c0,.69-.11,1.33-.34,1.91-.23.59-.55,1.1-.96,1.52-.42.43-.92.76-1.5,1-.58.24-1.24.36-1.95.36s-1.36-.12-1.94-.36c-.58-.24-1.09-.58-1.5-1-.42-.43-.74-.94-.97-1.52-.23-.59-.34-1.23-.34-1.91s.12-1.33.34-1.91c.23-.59.55-1.1.97-1.52.42-.43.92-.76,1.5-1,.58-.24,1.23-.36,1.94-.36.48,0,.93.06,1.35.17.42.11.81.27,1.16.47.35.2.67.45.95.73.28.29.52.61.71.97s.34.74.45,1.16.15.85.15,1.31ZM359.87,4.8c0-.52-.07-.98-.21-1.39-.14-.41-.34-.76-.59-1.04-.25-.29-.57-.5-.93-.66-.37-.15-.78-.23-1.24-.23s-.87.08-1.24.23c-.37.15-.68.37-.94.66-.26.29-.46.63-.59,1.04-.14.41-.21.87-.21,1.39s.07.98.21,1.39c.14.41.34.76.59,1.04.26.28.57.5.94.65.37.15.78.23,1.24.23s.87-.08,1.24-.23c.37-.15.68-.37.93-.65.26-.28.45-.63.59-1.04.14-.41.21-.87.21-1.39Z"/>
    <path class="cls-7" d="M373.39.1v9.4h-1.54V3.43c0-.24.01-.5.04-.79l-2.84,5.34c-.13.26-.34.38-.62.38h-.25c-.28,0-.48-.13-.62-.38l-2.87-5.36c.01.14.02.28.03.42s.01.27.01.38v6.07h-1.54V.1h1.32c.08,0,.15,0,.2,0,.06,0,.11.02.15.03.04.02.09.05.12.08s.07.09.11.16l2.81,5.22c.07.14.14.28.21.43.06.15.12.3.18.46.06-.16.12-.31.19-.46.06-.15.13-.29.21-.43l2.78-5.21c.03-.06.07-.12.11-.16s.08-.07.13-.08c.04-.02.1-.03.15-.03s.12,0,.2,0h1.32Z"/>
    <path class="cls-7" d="M378.54.1c.63,0,1.17.07,1.63.22.46.15.84.35,1.14.62.3.26.52.58.67.95.14.37.22.77.22,1.21s-.08.87-.23,1.25c-.15.38-.38.71-.68.98s-.68.49-1.14.64c-.46.15-.99.23-1.6.23h-1.31v3.31h-1.75V.1h3.05ZM378.54,4.83c.32,0,.6-.04.84-.12.24-.08.44-.19.59-.34s.28-.33.35-.55c.08-.21.12-.45.12-.72s-.04-.48-.12-.68c-.08-.2-.2-.38-.35-.52s-.35-.25-.59-.33-.52-.11-.84-.11h-1.31v3.37h1.31Z"/>
    <path class="cls-7" d="M391.59,9.5h-1.35c-.15,0-.28-.04-.37-.11-.1-.08-.17-.17-.21-.28l-.7-1.92h-3.89l-.7,1.92c-.04.1-.1.19-.2.27-.1.08-.22.12-.37.12h-1.37l3.7-9.4h1.78l3.69,9.4ZM388.5,5.95l-1.14-3.13c-.06-.14-.12-.3-.18-.49-.06-.19-.12-.4-.18-.62-.06.22-.12.43-.18.62s-.12.36-.18.5l-1.14,3.11h2.99Z"/>
    <path class="cls-7" d="M400.48.1v9.4h-.9c-.14,0-.25-.02-.35-.07-.09-.05-.18-.12-.27-.23l-4.91-6.27c.03.29.04.55.04.79v5.77h-1.54V.1h.92c.07,0,.14,0,.19,0,.05,0,.1.02.14.04s.08.05.12.08c.04.04.08.09.13.15l4.93,6.29c-.01-.15-.02-.3-.03-.45s-.01-.28-.01-.41V.1h1.54Z"/>
    <path class="cls-7" d="M404.33,9.5h-1.75V.1h1.75v9.4Z"/>
    <path class="cls-7" d="M408.19,1.5v2.61h3.29v1.35h-3.29v2.66h4.17v1.4h-5.93V.1h5.93v1.39h-4.17Z"/>
    <path class="cls-7" d="M418.91,1.81c-.05.09-.11.16-.17.2s-.13.06-.22.06-.19-.03-.3-.1c-.11-.07-.23-.14-.38-.22-.15-.08-.32-.16-.52-.22-.2-.07-.43-.1-.7-.1-.24,0-.46.03-.64.09s-.33.14-.46.24c-.12.1-.22.23-.28.37-.06.15-.09.3-.09.48,0,.22.06.41.18.55.12.15.29.27.49.38s.44.2.7.28c.26.08.53.17.8.26.27.09.54.2.8.33.26.12.49.28.7.47.2.19.37.42.49.69.12.27.19.6.19.99,0,.42-.07.82-.22,1.19-.15.37-.36.69-.64.97s-.62.49-1.02.65c-.4.16-.86.24-1.38.24-.3,0-.59-.03-.88-.09-.29-.06-.57-.14-.83-.25s-.52-.24-.75-.39c-.23-.15-.44-.32-.62-.51l.51-.84c.04-.06.1-.11.17-.15.07-.04.14-.06.22-.06.11,0,.22.04.35.13s.28.19.45.3c.17.11.38.21.61.3.23.09.51.13.83.13.5,0,.88-.12,1.16-.35.27-.24.41-.58.41-1.02,0-.25-.06-.45-.19-.6-.12-.16-.29-.29-.49-.39-.2-.11-.44-.2-.7-.27-.26-.07-.52-.15-.79-.24-.27-.09-.53-.19-.79-.31-.26-.12-.49-.28-.7-.47-.2-.19-.37-.44-.49-.73-.12-.29-.19-.65-.19-1.08,0-.34.07-.68.21-1,.14-.32.33-.61.59-.86s.58-.45.96-.6c.38-.15.82-.23,1.31-.23.55,0,1.07.09,1.53.26s.87.42,1.2.73l-.44.83Z"/>
    <path class="cls-7" d="M427.43.1c.62,0,1.14.06,1.58.18.44.12.8.28,1.08.5.28.22.48.48.61.79.13.31.19.65.19,1.04,0,.22-.03.43-.1.63-.06.2-.17.39-.3.57s-.31.33-.52.48c-.21.14-.46.26-.75.36,1.29.29,1.94.99,1.94,2.09,0,.4-.08.77-.23,1.1-.15.34-.37.63-.66.87s-.65.44-1.07.58-.91.21-1.46.21h-3.55V.1h3.24ZM425.94,1.46v2.72h1.39c.6,0,1.05-.11,1.35-.32.31-.22.46-.56.46-1.03s-.14-.84-.42-1.05-.71-.31-1.3-.31h-1.49ZM427.71,8.14c.33,0,.6-.04.82-.12.22-.08.4-.18.53-.31.13-.13.23-.28.29-.46s.09-.36.09-.55-.03-.39-.1-.55c-.07-.16-.17-.3-.31-.42s-.32-.2-.54-.26c-.22-.06-.48-.09-.79-.09h-1.76v2.76h1.77Z"/>
    <path class="cls-7" d="M434.51,1.5v2.61h3.29v1.35h-3.29v2.66h4.17v1.4h-5.93V.1h5.93v1.39h-4.17Z"/>
    <path class="cls-7" d="M446.8,1.54h-2.83v7.96h-1.75V1.54h-2.83V.1h7.42v1.44Z"/>
    <path class="cls-7" d="M460.54.1l-2.92,9.4h-1.58l-2.05-6.42c-.06-.16-.11-.35-.16-.57-.03.11-.05.21-.08.31-.03.1-.05.18-.08.27l-2.07,6.42h-1.59l-2.91-9.4h1.46c.15,0,.28.04.38.11.1.07.17.17.21.29l1.6,5.62c.03.14.07.29.1.45s.07.33.1.51c.04-.18.07-.35.11-.51.04-.16.08-.31.13-.45l1.85-5.62c.04-.1.1-.19.21-.27.1-.08.23-.12.37-.12h.51c.15,0,.27.04.37.11s.17.17.21.29l1.84,5.62c.09.27.17.58.25.93.06-.34.12-.65.19-.93l1.6-5.62c.03-.11.09-.2.2-.28.11-.08.23-.12.38-.12h1.37Z"/>
    <path class="cls-7" d="M463.45,1.5v2.61h3.29v1.35h-3.29v2.66h4.17v1.4h-5.93V.1h5.93v1.39h-4.17Z"/>
    <path class="cls-7" d="M470.92,1.5v2.61h3.29v1.35h-3.29v2.66h4.17v1.4h-5.93V.1h5.93v1.39h-4.17Z"/>
    <path class="cls-7" d="M484.57.1v9.4h-.9c-.14,0-.25-.02-.35-.07-.09-.05-.18-.12-.27-.23l-4.91-6.27c.03.29.04.55.04.79v5.77h-1.54V.1h.92c.07,0,.14,0,.19,0,.05,0,.1.02.14.04s.08.05.12.08c.04.04.08.09.13.15l4.93,6.29c-.01-.15-.02-.3-.03-.45s-.01-.28-.01-.41V.1h1.54Z"/>
    <path class="cls-7" d="M495.15,8.01c.17,0,.31.05.41.15.1.1.15.23.15.39v.96h-6.45v-.53c0-.11.02-.22.07-.34.05-.12.12-.23.22-.32l2.85-2.86c.24-.24.45-.47.64-.7s.35-.44.47-.66c.12-.22.22-.44.29-.66s.1-.46.1-.71c0-.23-.03-.42-.1-.59-.06-.17-.16-.32-.28-.43-.12-.12-.26-.21-.43-.26-.17-.06-.35-.09-.56-.09-.19,0-.37.03-.53.08-.16.05-.31.13-.43.23s-.23.21-.32.34-.15.27-.2.43c-.07.2-.17.33-.29.4-.12.06-.29.08-.51.05l-.84-.15c.07-.45.19-.85.38-1.19.19-.34.42-.62.7-.85.28-.23.6-.4.96-.51.36-.11.75-.17,1.17-.17s.83.06,1.19.19c.36.13.67.31.92.54.25.23.46.52.6.85.14.33.21.7.21,1.1,0,.35-.05.67-.15.96-.1.29-.24.58-.41.84-.17.27-.37.53-.6.78-.23.25-.47.51-.72.77l-2.12,2.16c.2-.06.41-.11.61-.14.2-.03.39-.05.58-.05h2.41Z"/>
    <path class="cls-7" d="M503.53,4.8c0,.82-.09,1.53-.26,2.14-.17.6-.42,1.1-.73,1.5-.31.39-.68.69-1.1.88-.42.19-.88.29-1.37.29s-.94-.1-1.36-.29c-.42-.19-.78-.49-1.09-.88-.31-.39-.55-.89-.72-1.5-.17-.6-.26-1.32-.26-2.14s.09-1.54.26-2.14c.17-.6.41-1.1.72-1.5.31-.39.67-.69,1.09-.88.42-.19.87-.29,1.36-.29s.95.1,1.37.29.79.49,1.1.88c.31.39.55.89.73,1.5.18.6.26,1.31.26,2.14ZM501.87,4.8c0-.68-.05-1.24-.15-1.69-.1-.45-.23-.8-.4-1.07-.17-.26-.36-.45-.58-.56-.22-.11-.44-.16-.68-.16s-.45.05-.67.16c-.21.11-.4.29-.57.56-.16.26-.3.62-.39,1.07-.1.45-.15,1.01-.15,1.69s.05,1.24.15,1.69c.1.45.23.8.39,1.07.17.26.35.45.57.56.21.11.44.16.67.16s.46-.05.68-.16.41-.29.58-.56c.17-.26.3-.62.4-1.07.1-.45.15-1.01.15-1.69Z"/>
    <path class="cls-7" d="M511.07,4.8c0,.82-.09,1.53-.26,2.14s-.42,1.1-.73,1.5c-.31.39-.68.69-1.1.88-.42.19-.88.29-1.37.29s-.94-.1-1.36-.29c-.42-.19-.78-.49-1.09-.88-.31-.39-.55-.89-.72-1.5-.17-.6-.26-1.32-.26-2.14s.09-1.54.26-2.14c.17-.6.41-1.1.72-1.5.31-.39.67-.69,1.09-.88s.87-.29,1.36-.29.95.1,1.37.29c.42.19.79.49,1.1.88.31.39.55.89.73,1.5.18.6.26,1.31.26,2.14ZM509.41,4.8c0-.68-.05-1.24-.15-1.69s-.23-.8-.4-1.07c-.17-.26-.36-.45-.58-.56-.22-.11-.44-.16-.68-.16s-.45.05-.67.16c-.21.11-.4.29-.57.56-.17.26-.3.62-.39,1.07s-.15,1.01-.15,1.69.05,1.24.15,1.69.23.8.39,1.07c.16.26.35.45.57.56.21.11.44.16.67.16s.46-.05.68-.16c.22-.11.41-.29.58-.56.17-.26.3-.62.4-1.07s.15-1.01.15-1.69Z"/>
    <path class="cls-7" d="M518.6,5.96v.93c0,.09-.03.16-.08.22-.06.06-.14.09-.24.09h-.86v2.29h-1.4v-2.29h-3.96c-.11,0-.2-.03-.29-.1-.08-.07-.13-.15-.16-.25l-.17-.81,4.45-5.95h1.52v5.86h1.18ZM516.02,5.96v-3.07c0-.29.02-.61.06-.96l-2.92,4.04h2.86Z"/>
    <path class="cls-7" d="M519.69,4.29h3.37v1.34h-3.37v-1.34Z"/>
    <path class="cls-7" d="M530.2,8.01c.17,0,.31.05.41.15.1.1.15.23.15.39v.96h-6.45v-.53c0-.11.02-.22.07-.34.05-.12.12-.23.22-.32l2.85-2.86c.24-.24.45-.47.64-.7.19-.22.35-.44.47-.66.12-.22.22-.44.29-.66.07-.22.1-.46.1-.71,0-.23-.03-.42-.1-.59-.06-.17-.16-.32-.28-.43-.12-.12-.26-.21-.43-.26-.17-.06-.35-.09-.56-.09-.19,0-.37.03-.53.08-.16.05-.31.13-.43.23s-.23.21-.32.34-.15.27-.2.43c-.07.2-.17.33-.29.4-.12.06-.29.08-.51.05l-.84-.15c.07-.45.19-.85.38-1.19.19-.34.42-.62.7-.85.28-.23.6-.4.96-.51.36-.11.75-.17,1.17-.17s.83.06,1.19.19c.36.13.67.31.92.54s.46.52.6.85c.14.33.21.7.21,1.1,0,.35-.05.67-.15.96-.1.29-.24.58-.41.84-.17.27-.37.53-.6.78-.23.25-.47.51-.72.77l-2.12,2.16c.2-.06.41-.11.61-.14.2-.03.39-.05.57-.05h2.41Z"/>
    <path class="cls-7" d="M538.58,4.8c0,.82-.09,1.53-.26,2.14-.18.6-.42,1.1-.73,1.5-.31.39-.68.69-1.1.88-.42.19-.88.29-1.37.29s-.94-.1-1.36-.29c-.42-.19-.78-.49-1.09-.88-.31-.39-.55-.89-.72-1.5s-.26-1.32-.26-2.14.09-1.54.26-2.14c.17-.6.41-1.1.72-1.5.31-.39.67-.69,1.09-.88.42-.19.87-.29,1.36-.29s.95.1,1.37.29c.42.19.79.49,1.1.88.31.39.55.89.73,1.5.17.6.26,1.31.26,2.14ZM536.92,4.8c0-.68-.05-1.24-.15-1.69s-.23-.8-.4-1.07c-.17-.26-.36-.45-.58-.56-.22-.11-.44-.16-.68-.16s-.45.05-.67.16c-.21.11-.4.29-.57.56-.17.26-.3.62-.39,1.07s-.15,1.01-.15,1.69.05,1.24.15,1.69.23.8.39,1.07c.16.26.35.45.57.56s.44.16.67.16.46-.05.68-.16.41-.29.58-.56c.17-.26.3-.62.4-1.07s.15-1.01.15-1.69Z"/>
    <path class="cls-7" d="M545.28,8.01c.17,0,.31.05.41.15.1.1.15.23.15.39v.96h-6.45v-.53c0-.11.02-.22.07-.34.04-.12.12-.23.22-.32l2.85-2.86c.24-.24.45-.47.64-.7s.35-.44.47-.66c.13-.22.22-.44.29-.66s.1-.46.1-.71c0-.23-.03-.42-.1-.59-.06-.17-.16-.32-.28-.43-.12-.12-.26-.21-.43-.26-.17-.06-.35-.09-.56-.09-.19,0-.37.03-.53.08s-.31.13-.43.23c-.12.1-.23.21-.32.34s-.15.27-.19.43c-.07.2-.17.33-.29.4-.12.06-.29.08-.51.05l-.85-.15c.07-.45.19-.85.38-1.19.19-.34.42-.62.7-.85s.6-.4.96-.51c.36-.11.75-.17,1.17-.17s.83.06,1.19.19c.36.13.67.31.92.54s.46.52.6.85c.14.33.21.7.21,1.1,0,.35-.05.67-.15.96-.1.29-.24.58-.41.84-.17.27-.37.53-.6.78-.23.25-.47.51-.72.77l-2.12,2.16c.2-.06.41-.11.61-.14.2-.03.39-.05.58-.05h2.41Z"/>
    <path class="cls-7" d="M553.65,5.96v.93c0,.09-.03.16-.08.22s-.14.09-.24.09h-.86v2.29h-1.4v-2.29h-3.96c-.11,0-.2-.03-.29-.1-.08-.07-.13-.15-.16-.25l-.17-.81,4.45-5.95h1.52v5.86h1.18ZM551.07,5.96v-3.07c0-.29.02-.61.06-.96l-2.92,4.04h2.86Z"/>
  </g>
</svg>