<?xml version="1.0" encoding="UTF-8"?>
<svg id="Characters" xmlns="http://www.w3.org/2000/svg" width="466.96" height="447.59" viewBox="0 0 466.96 447.59">
  <defs>
    <style>
      .cls-1 {
        fill: #263238;
      }

      .cls-2 {
        opacity: .3;
      }

      .cls-3 {
        fill: #fff;
      }

      .cls-4 {
        fill: #e0e0e0;
      }

      .cls-5 {
        fill: #ae7461;
      }

      .cls-6 {
        fill: #455a64;
      }

      .cls-7 {
        fill: #6f4439;
      }

      .cls-8 {
        fill: #ffbf9d;
      }

      .cls-9 {
        fill: #ebebeb;
      }

      .cls-10 {
        fill: #ff9a6c;
      }

      .cls-11 {
        fill: #f5f5f5;
      }

      .cls-12 {
        fill: #ff725e;
      }
    </style>
  </defs>
  <path class="cls-4" d="M318.71,326.5v116.23l143.4.06c2.55-5.82,2.49-14.12-.91-19.49-3.4-5.37-9.57-8.87-15.92-9.05,2.55-8.71.98-18.53-4.17-26-5.15-7.47-13.77-12.44-22.81-13.15,1.55-11.32-3.18-23.31-12.06-30.51-8.87-7.2-21.58-9.38-32.34-5.53-3.46-10.82-12.93-19.51-24.01-22.03-11.08-2.52-23.37,1.22-31.17,9.48"/>
  <path class="cls-4" d="M26.3,424.64c-4.47-14.63-.11-31.59,10.86-42.25,10.97-10.66,28.05-14.53,42.54-9.64-.29-16.29,9.05-32.39,23.33-40.21,14.29-7.83,32.88-7.03,46.45,1.99,7.62-14.56,27.86-20.82,42.36-13.1,14.51,7.72,20.63,28,12.81,42.45,11.89-2.94,25.37,2.55,31.83,12.96,6.45,10.41,5.37,24.93-2.55,34.27,23.73-10.45,54.9,10.56,54.11,36.48l-288.06-.83c2.05-3.85,9.16-21.43,26.3-22.12Z"/>
  <rect class="cls-11" x="353.56" y="184.8" width="28.96" height="223.62"/>
  <g>
    <g>
      <path class="cls-4" d="M336.25,45.76c-1.68-2.24-5-2.36-6.78-.21-3.1,3.76-7.17,10.31-7.17,18.84v104.56h19.19s1.2-90.78,1.2-104.56c0-8.38-3.6-14.85-6.43-18.63Z"/>
      <path class="cls-9" d="M342.4,126c0,.11-4.36.2-9.75.2s-9.75-.09-9.75-.2,4.36-.2,9.75-.2,9.75.09,9.75.2Z"/>
      <path class="cls-9" d="M342.4,138.14c0,.11-4.36.2-9.75.2s-9.75-.09-9.75-.2,4.36-.2,9.75-.2,9.75.09,9.75.2Z"/>
      <path class="cls-9" d="M342.4,65.31c0,.11-4.36.2-9.75.2s-9.75-.09-9.75-.2,4.36-.2,9.75-.2,9.75.09,9.75.2Z"/>
      <path class="cls-9" d="M342.4,77.44c0,.11-4.36.2-9.75.2s-9.75-.09-9.75-.2,4.36-.2,9.75-.2,9.75.09,9.75.2Z"/>
      <path class="cls-9" d="M342.4,89.58c0,.11-4.36.2-9.75.2s-9.75-.09-9.75-.2,4.36-.2,9.75-.2,9.75.09,9.75.2Z"/>
      <path class="cls-9" d="M342.4,101.72c0,.11-4.36.2-9.75.2s-9.75-.09-9.75-.2,4.36-.2,9.75-.2,9.75.09,9.75.2Z"/>
      <path class="cls-9" d="M342.4,113.86c0,.11-4.36.2-9.75.2s-9.75-.09-9.75-.2,4.36-.2,9.75-.2,9.75.09,9.75.2Z"/>
    </g>
    <g>
      <path class="cls-4" d="M406.66,46.21c-1.68-2.24-5-2.36-6.78-.21-3.1,3.76-7.17,10.31-7.17,18.84v104.56h19.19s1.2-90.78,1.2-104.56c0-8.38-3.6-14.85-6.43-18.63Z"/>
      <path class="cls-9" d="M412.77,65.75c0,.11-4.36.2-9.75.2s-9.75-.09-9.75-.2,4.36-.2,9.75-.2,9.75.09,9.75.2Z"/>
      <path class="cls-9" d="M412.77,77.89c0,.11-4.36.2-9.75.2s-9.75-.09-9.75-.2,4.36-.2,9.75-.2,9.75.09,9.75.2Z"/>
      <path class="cls-9" d="M412.77,90.03c0,.11-4.36.2-9.75.2s-9.75-.09-9.75-.2,4.36-.2,9.75-.2,9.75.09,9.75.2Z"/>
      <path class="cls-9" d="M412.77,102.17c0,.11-4.36.2-9.75.2s-9.75-.09-9.75-.2,4.36-.2,9.75-.2,9.75.09,9.75.2Z"/>
      <path class="cls-9" d="M412.77,114.31c0,.11-4.36.2-9.75.2s-9.75-.09-9.75-.2,4.36-.2,9.75-.2,9.75.09,9.75.2Z"/>
      <path class="cls-9" d="M412.77,126.45c0,.11-4.36.2-9.75.2s-9.75-.09-9.75-.2,4.36-.2,9.75-.2,9.75.09,9.75.2Z"/>
      <path class="cls-9" d="M412.77,138.59c0,.11-4.36.2-9.75.2s-9.75-.09-9.75-.2,4.36-.2,9.75-.2,9.75.09,9.75.2Z"/>
    </g>
    <g>
      <g>
        <path class="cls-11" d="M374.93,11.03c-4.17-3.15-10.06-2.6-14.13.79-12.13,10.08-18.12,25.17-18.12,37.12v135.08h47.81s2.99-115.78,2.99-135.08c0-11.73-7.91-29.88-18.55-37.91Z"/>
        <path class="cls-4" d="M374.93,11.03s.24.18.7.55c.45.39,1.18.89,1.99,1.72,1.7,1.56,4.03,4.11,6.47,7.8,1.19,1.86,2.48,3.96,3.66,6.39,1.2,2.41,2.38,5.11,3.36,8.12.99,3,1.86,6.29,2.27,9.87.04.45.12.9.14,1.35.02.46.04.92.06,1.38.06.93,0,1.86.02,2.81-.02,1.9-.04,3.85-.06,5.85-.49,31.98-1.57,76.59-2.85,127.14v.19h-.2c-9.98,0-20.45,0-31.1,0-5.72,0-11.4,0-16.71,0h-.2v-.2c0-27.03.01-52.6.02-75.76,0-11.58.01-22.55.02-32.8,0-5.12,0-10.07.01-14.81,0-2.37,0-4.7,0-6.97.02-2.27-.04-4.49.07-6.67.24-4.35,1.16-8.42,2.39-12.13,1.24-3.71,2.84-7.05,4.6-10.01,3.54-5.91,7.68-10.27,11.41-13.31,1.91-1.51,4-2.25,5.83-2.54,1.85-.26,3.44-.07,4.66.27,1.23.34,2.07.84,2.63,1.16.53.37.8.57.8.57,0,0-.28-.18-.82-.53-.57-.31-1.41-.79-2.63-1.12-1.21-.33-2.8-.5-4.62-.24-1.81.3-3.88,1.04-5.76,2.54-3.71,3.05-7.81,7.4-11.32,13.3-1.74,2.95-3.32,6.28-4.55,9.98-1.21,3.69-2.12,7.75-2.35,12.07,0,34.71,0,82.93,0,136.99l-.2-.2c5.32,0,10.99,0,16.71,0,10.65,0,21.12,0,31.1,0l-.2.19c1.29-50.55,2.42-95.16,2.98-127.14.02-2,.05-3.95.07-5.85,0-.95.05-1.89-.01-2.81-.02-.46-.04-.92-.05-1.37-.02-.45-.09-.9-.14-1.34-.4-3.56-1.25-6.84-2.23-9.83-.97-3-2.13-5.69-3.32-8.11-1.16-2.43-2.45-4.53-3.62-6.39-2.41-3.69-4.72-6.25-6.4-7.83-.8-.83-1.52-1.35-1.96-1.74-.45-.38-.68-.58-.68-.58Z"/>
      </g>
      <path class="cls-3" d="M365.31,12.8s-18.4,14.78-18.56,34.6v52.81h7.89l-.48-46.01s-1-8.74,3.75-24.1c3-9.69,7.4-17.3,7.4-17.3Z"/>
      <path class="cls-4" d="M392.56,54.2c0,.11-10.97.2-24.5.2s-24.5-.09-24.5-.2,10.97-.2,24.5-.2,24.5.09,24.5.2Z"/>
      <path class="cls-4" d="M392.56,72.58c0,.11-10.97.2-24.5.2s-24.5-.09-24.5-.2,10.97-.2,24.5-.2,24.5.09,24.5.2Z"/>
      <path class="cls-4" d="M392.56,90.96c0,.11-10.97.2-24.5.2s-24.5-.09-24.5-.2,10.97-.2,24.5-.2,24.5.09,24.5.2Z"/>
      <path class="cls-4" d="M392.56,109.34c0,.11-10.97.2-24.5.2s-24.5-.09-24.5-.2,10.97-.2,24.5-.2,24.5.09,24.5.2Z"/>
    </g>
    <g>
      <rect class="cls-4" x="324.24" y="182.69" width="12.55" height="8.14"/>
      <path class="cls-4" d="M320.65,195.28h0c0-1.28.33-2.42,1.76-3.82l1.83-1.76,12.55.15,1.11.98c1.01.79,1.99,2.33,1.99,3.57v.18l-19.24.7Z"/>
      <rect class="cls-4" x="319.37" y="194.57" width="22.05" height="2.22" rx=".95" ry=".95"/>
    </g>
    <g>
      <polygon class="cls-11" points="308.7 181.05 308.7 157.45 340.6 126.15 354.19 83.57 354.19 187.38 308.7 181.05"/>
      <polygon class="cls-9" points="308.7 173.26 354.19 179.31 354.19 187.38 308.7 181.05 308.7 173.26"/>
      <path class="cls-4" d="M308.7,181.05s.28.03.82.1c.55.07,1.34.18,2.38.31,2.09.28,5.16.7,9.1,1.23,7.88,1.08,19.24,2.63,33.22,4.54l-.17.15c-.01-22.65-.03-52.64-.05-85.43,0-6.24,0-12.39,0-18.38l.39.06c-4.88,15.27-9.48,29.64-13.62,42.58v.04s-.04.03-.04.03c-12.78,12.5-23.71,23.2-31.94,31.25l.03-.08c-.03,7.44-.05,13.33-.06,17.37-.01,2.01-.02,3.57-.03,4.63,0,.52,0,.92-.01,1.2,0,.27-.01.41-.01.41,0,0,0-.13-.01-.39,0-.27,0-.67-.01-1.18,0-1.05-.02-2.6-.03-4.6-.01-4.05-.04-9.96-.06-17.43v-.05s.03-.03.03-.03c8.21-8.08,19.12-18.8,31.86-31.34l-.04.07c4.12-12.94,8.7-27.31,13.57-42.59l.39-1.21v1.27c0,6,0,12.14,0,18.38-.02,32.79-.04,62.78-.05,85.43v.17s-.17-.02-.17-.02c-14.01-1.98-25.39-3.59-33.28-4.71-3.92-.56-6.97-1-9.06-1.3-1.02-.15-1.81-.27-2.35-.34-.53-.08-.79-.13-.79-.13Z"/>
    </g>
    <g>
      <rect class="cls-4" x="397.14" y="182.69" width="12.55" height="8.14"/>
      <path class="cls-4" d="M393.56,195.28h0c0-1.28.33-2.42,1.76-3.82l1.83-1.76,12.55.15,1.11.98c1.01.79,1.99,2.33,1.99,3.57v.18l-19.24.7Z"/>
      <rect class="cls-4" x="392.27" y="194.57" width="22.05" height="2.22" rx=".95" ry=".95"/>
    </g>
    <circle class="cls-9" cx="398.37" cy="170.77" r="1.07"/>
    <g>
      <path class="cls-11" d="M382.7,71.14c-.07-6.49-3.65-12.23-7.26-17.84-1.52-2.36-2.99-3.79-4.19-4.64-1.68-1.2-4-1.2-5.67.02-1.18.86-2.62,2.28-4.13,4.62-3.61,5.61-7.19,11.35-7.26,17.84-.09,7.6,0,116.24,0,116.24h28.51s.09-108.65,0-116.24Z"/>
      <path class="cls-9" d="M376.42,55.09c-1.73-2.85-3.41-4.57-4.77-5.61-1.91-1.45-4.56-1.45-6.46.02-1.34,1.04-2.98,2.75-4.71,5.58-2.38,3.91-4.31,7.76-5.66,12.02l27.22-.09c-1.22-4.09-3.28-8.07-5.63-11.93Z"/>
      <path class="cls-4" d="M382.05,66.41c0,.11-6.09.22-13.61.24-7.52.02-13.61-.04-13.61-.15,0-.11,6.09-.22,13.61-.24,7.52-.02,13.61.04,13.61.15Z"/>
      <path class="cls-4" d="M358.54,64.05c0,.28-.23.52-.52.52s-.52-.23-.52-.52.23-.52.52-.52.52.23.52.52Z"/>
      <path class="cls-4" d="M363.46,64.05c0,.28-.23.52-.52.52s-.52-.23-.52-.52.23-.52.52-.52.52.23.52.52Z"/>
      <path class="cls-4" d="M368.38,64.05c0,.28-.23.52-.52.52s-.52-.23-.52-.52.23-.52.52-.52.52.23.52.52Z"/>
      <path class="cls-4" d="M373.3,64.05c0,.28-.23.52-.52.52s-.52-.23-.52-.52.23-.52.52-.52.52.23.52.52Z"/>
      <path class="cls-4" d="M378.23,64.05c0,.28-.23.52-.52.52s-.52-.23-.52-.52.23-.52.52-.52.52.23.52.52Z"/>
      <path class="cls-4" d="M382.7,71.14s.01.19.02.57c0,.38,0,.94.02,1.67,0,1.48.02,3.66.03,6.48.01,5.66.03,13.89.06,24.22.02,20.68.04,49.73.07,83.31v.19s-.19,0-.19,0c-9.17,0-18.71,0-28.51,0h-.2s0-.2,0-.2c0-4.64,0-9.57,0-14.55,0-22,.01-42.96.02-62.02,0-9.53.01-18.59.02-27.06,0-4.24,0-8.33.01-12.26-.02-3.99,1.3-7.68,2.93-10.89.82-1.61,1.71-3.13,2.62-4.59.92-1.45,1.78-2.88,2.76-4.19.99-1.3,2.08-2.47,3.36-3.36,1.31-.87,2.98-1.02,4.36-.53.7.23,1.3.65,1.84,1.09.54.44,1.03.92,1.48,1.41.9.99,1.65,2.04,2.31,3.08,1.32,2.06,2.51,3.97,3.47,5.75,1.96,3.54,2.92,6.57,3.27,8.66.09.52.16.99.19,1.39.04.4.08.74.08,1.01.02.54.02.82.02.82,0,0-.03-.28-.06-.82,0-.27-.04-.61-.1-1.01-.04-.4-.11-.86-.21-1.38-.37-2.08-1.35-5.09-3.32-8.6-.97-1.76-2.16-3.66-3.49-5.72-.66-1.03-1.4-2.07-2.3-3.04-.45-.49-.93-.95-1.47-1.39-.53-.44-1.1-.83-1.77-1.05-1.32-.46-2.91-.31-4.15.52-1.24.86-2.32,2.02-3.29,3.31-.96,1.29-1.81,2.74-2.73,4.18-.9,1.46-1.79,2.97-2.59,4.58-1.6,3.19-2.9,6.83-2.87,10.76,0,3.93,0,8.03.01,12.26,0,8.48.01,17.53.02,27.06,0,19.06.01,40.02.02,62.02,0,4.98,0,9.92,0,14.55l-.2-.2c9.8,0,19.34,0,28.51,0l-.19.19c.03-33.57.05-62.63.07-83.3.02-10.33.04-18.56.06-24.22.01-2.82.02-5,.03-6.48,0-.73.01-1.29.02-1.67,0-.38.02-.57.02-.57Z"/>
    </g>
    <path class="cls-4" d="M368.08,77.63c-4.06,0-7.35,3.29-7.35,7.35h14.69c0-4.06-3.29-7.35-7.35-7.35Z"/>
    <path class="cls-4" d="M353.06,195.14h0c0-2.1,1.02-4.08,2.76-5.38l3.19-2.38h20.2l2.8,2.2c1.66,1.3,2.61,3.23,2.61,5.27v.29h-31.57Z"/>
    <rect class="cls-4" x="350.96" y="195.14" width="36.18" height="3.64" rx="1.56" ry="1.56"/>
    <g>
      <path class="cls-9" d="M368.69,189.46h-18.32v-18.15c0-4.91,3.98-8.9,8.9-8.9h.53c4.91,0,8.9,3.98,8.9,8.9v18.15Z"/>
      <path class="cls-4" d="M368.69,189.46s0-.08-.01-.23c0-.17,0-.38-.01-.64,0-.59-.02-1.4-.03-2.44-.02-2.13-.04-5.16-.07-8.89-.01-1.87-.02-3.92-.04-6.11-.02-2.17-.95-4.49-2.73-6.16-.89-.83-1.97-1.5-3.17-1.91-1.21-.43-2.52-.53-3.85-.44-2.65.12-5.29,1.61-6.8,3.98-.57.88-.98,1.86-1.19,2.87-.22,1.01-.19,2.04-.2,3.08,0,2.06,0,4.08,0,6.03,0,3.9-.02,7.56-.03,10.87l-.17-.17c5.48.04,10.04.06,13.26.09,1.58.02,2.84.03,3.73.04.41,0,.74.01.99.02.23,0,.35.01.35.02,0,0-.1.01-.32.02-.24,0-.56.01-.96.02-.88.01-2.12.02-3.69.04-3.24.02-7.83.05-13.36.09h-.16s0-.17,0-.17c0-3.32-.02-6.97-.03-10.87,0-1.95,0-3.97,0-6.03,0-1.02-.03-2.1.2-3.16.22-1.06.65-2.08,1.24-3,1.58-2.48,4.35-4.04,7.12-4.15,1.36-.09,2.75.02,4,.47,1.26.43,2.38,1.14,3.3,2.01,1.86,1.74,2.81,4.17,2.81,6.42,0,2.22-.01,4.29-.02,6.19-.03,3.74-.06,6.78-.07,8.92-.01,1.02-.02,1.82-.03,2.4,0,.25-.01.46-.01.62,0,.14,0,.21-.01.2Z"/>
    </g>
    <g>
      <polygon class="cls-11" points="428.24 181.05 428.24 157.45 396.34 126.15 382.74 83.57 382.74 187.38 428.24 181.05"/>
      <polygon class="cls-9" points="382.7 187.38 382.74 180.32 428.24 174.56 428.24 181.05 382.7 187.38"/>
      <path class="cls-4" d="M428.24,181.05s-.26.05-.79.13c-.54.08-1.32.19-2.35.34-2.08.3-5.13.74-9.06,1.3-7.89,1.12-19.27,2.73-33.28,4.71l-.17.02v-.17c-.01-22.65-.03-52.64-.05-85.43,0-6.24,0-12.39,0-18.38v-1.27s.39,1.21.39,1.21c4.87,15.28,9.45,29.65,13.57,42.59l-.04-.07c12.74,12.54,23.64,23.26,31.86,31.34l.03.03v.05c-.03,7.47-.05,13.38-.06,17.43-.01,2-.02,3.55-.03,4.6,0,.51,0,.9-.01,1.18,0,.26-.01.39-.01.39,0,0,0-.14-.01-.41,0-.28,0-.68-.01-1.2,0-1.06-.02-2.61-.03-4.63-.01-4.04-.04-9.92-.06-17.37l.03.08c-8.24-8.06-19.17-18.75-31.94-31.25l-.03-.03v-.04c-4.15-12.94-8.75-27.31-13.63-42.58l.39-.06c0,6,0,12.14,0,18.38-.02,32.79-.04,62.78-.05,85.43l-.17-.15c13.98-1.91,25.34-3.46,33.22-4.54,3.94-.53,7-.94,9.1-1.23,1.04-.14,1.83-.24,2.38-.31.54-.07.82-.1.82-.1Z"/>
    </g>
    <g>
      <path class="cls-9" d="M387.14,189.46h-18.32v-18.15c0-4.91,3.98-8.9,8.9-8.9h.53c4.91,0,8.9,3.98,8.9,8.9v18.15Z"/>
      <path class="cls-4" d="M387.14,189.46s0-.08-.01-.23c0-.17,0-.38-.01-.64,0-.59-.02-1.4-.03-2.44-.02-2.13-.04-5.16-.07-8.89-.01-1.87-.02-3.92-.04-6.11-.02-2.17-.95-4.49-2.73-6.16-.89-.83-1.97-1.5-3.17-1.91-1.21-.43-2.52-.53-3.85-.44-2.65.12-5.29,1.61-6.8,3.98-.57.88-.98,1.86-1.19,2.87-.22,1.01-.19,2.04-.2,3.08,0,2.06,0,4.08,0,6.03,0,3.9-.02,7.56-.02,10.87l-.17-.17c5.48.04,10.04.06,13.26.09,1.58.02,2.84.03,3.73.04.41,0,.74.01.99.02.23,0,.35.01.35.02s-.1.01-.32.02c-.24,0-.56.01-.96.02-.88.01-2.12.02-3.69.04-3.24.02-7.83.05-13.36.09h-.16s0-.17,0-.17c0-3.32-.02-6.97-.02-10.87,0-1.95,0-3.97,0-6.03,0-1.02-.03-2.1.2-3.16.22-1.06.65-2.08,1.24-3,1.58-2.48,4.35-4.04,7.12-4.15,1.36-.09,2.75.02,4,.47,1.26.43,2.38,1.14,3.3,2.01,1.86,1.74,2.81,4.17,2.81,6.42,0,2.22-.01,4.29-.02,6.19-.03,3.74-.06,6.78-.07,8.92-.01,1.02-.02,1.82-.03,2.4,0,.25-.01.46-.01.62,0,.14,0,.21-.01.2Z"/>
    </g>
    <path class="cls-4" d="M382.44,107.03c0,.11-6.26.2-13.99.2s-13.99-.09-13.99-.2,6.26-.2,13.99-.2,13.99.09,13.99.2Z"/>
    <path class="cls-4" d="M382.44,137.15c0,.11-6.26.2-13.99.2s-13.99-.09-13.99-.2,6.26-.2,13.99-.2,13.99.09,13.99.2Z"/>
    <g class="cls-2">
      <path class="cls-3" d="M369.05,77.7l-6.1,7.28h4.19l4.86-6.21s-1.79-1.01-2.96-1.07Z"/>
    </g>
  </g>
  <path class="cls-11" d="M450.02,426.89c2.02-10.09-1-21.07-7.9-28.7-6.9-7.63-17.52-11.74-27.76-10.75.32-7.87-3.7-15.79-10.24-20.18-6.54-4.39-15.39-5.11-22.55-1.84-3.53-15.6-22.12-24.49-37.75-21.1-15.63,3.4-27.81,16.22-34.86,30.58-14.08-3.19-29.54.35-40.83,9.36-11.29,9.01-18.17,23.3-18.17,37.74-17.54-3.73-37.03,5.88-44.75,22.07l261.35,2.31c2.48-9.65-6.6-20.36-16.53-19.49Z"/>
  <path class="cls-9" d="M160.28,199.64c2.09-1.26,4.31-2.22,6.6-2.87l1.36-6.54,11.05-.19,1.59,6.49c2.31.57,4.57,1.45,6.7,2.64l5.58-3.66,7.95,7.67-3.46,5.71c1.26,2.09,2.22,4.31,2.87,6.61l6.54,1.36.19,11.05-6.49,1.59c-.57,2.31-1.45,4.57-2.64,6.7l3.66,5.58-7.67,7.95-5.71-3.46c-2.09,1.26-4.31,2.22-6.61,2.87l-1.36,6.54-11.05.19-1.59-6.49c-2.31-.57-4.57-1.45-6.7-2.64l-5.58,3.66-7.95-7.67,3.46-5.71c-1.26-2.09-2.22-4.31-2.87-6.61l-6.54-1.36-.19-11.05,6.49-1.59c.57-2.31,1.45-4.57,2.64-6.7l-3.66-5.58,7.67-7.95,5.71,3.46h0ZM166.17,214.36c-4.55,4.71-4.41,12.21.29,16.76,4.71,4.55,12.21,4.41,16.76-.29,4.55-4.71,4.41-12.21-.29-16.76-4.71-4.55-12.21-4.41-16.76.29Z"/>
  <path class="cls-4" d="M311.69,258.51c1.42-.86,2.92-1.5,4.48-1.95l.92-4.43,7.49-.13,1.08,4.39c1.57.39,3.1.98,4.54,1.79l3.78-2.48,5.39,5.2-2.34,3.87c.86,1.42,1.5,2.92,1.95,4.48l4.43.92.13,7.48-4.39,1.08c-.39,1.57-.98,3.1-1.79,4.54l2.48,3.78-5.2,5.39-3.87-2.35c-1.42.86-2.92,1.5-4.48,1.94l-.92,4.43-7.48.13-1.08-4.39c-1.57-.39-3.1-.98-4.54-1.79l-3.78,2.48-5.39-5.2,2.34-3.87c-.86-1.42-1.5-2.92-1.95-4.48l-4.43-.92-.13-7.48,4.39-1.08c.39-1.57.98-3.1,1.79-4.54l-2.48-3.78,5.2-5.39,3.87,2.35h0ZM315.68,268.49c-3.08,3.19-2.99,8.27.2,11.36,3.19,3.08,8.27,2.99,11.36-.2,3.08-3.19,2.99-8.27-.2-11.36-3.19-3.08-8.27-2.99-11.36.2Z"/>
  <path class="cls-4" d="M242.5,193.37c1.42-.86,2.92-1.5,4.48-1.95l.92-4.43,7.49-.13,1.08,4.39c1.57.39,3.1.98,4.54,1.79l3.78-2.48,5.39,5.2-2.34,3.87c.86,1.42,1.5,2.92,1.95,4.48l4.43.92.13,7.48-4.39,1.08c-.39,1.57-.98,3.1-1.79,4.54l2.48,3.78-5.2,5.39-3.87-2.35c-1.42.86-2.92,1.5-4.48,1.94l-.92,4.43-7.48.13-1.08-4.39c-1.57-.39-3.1-.98-4.54-1.79l-3.78,2.48-5.39-5.2,2.34-3.87c-.86-1.42-1.5-2.92-1.95-4.48l-4.43-.92-.13-7.48,4.39-1.08c.39-1.57.98-3.1,1.79-4.54l-2.48-3.78,5.2-5.39,3.87,2.35h0ZM246.49,203.34c-3.08,3.19-2.99,8.28.2,11.36,3.19,3.08,8.27,2.99,11.36-.2,3.08-3.19,2.99-8.27-.2-11.36-3.19-3.08-8.27-2.99-11.36.2Z"/>
  <path class="cls-9" d="M64.89,167.59c.84-2.74.02-5.92-2.04-7.92s-5.26-2.72-7.98-1.81c.06-3.05-1.7-6.07-4.38-7.54-2.68-1.47-6.17-1.32-8.71.37-1.43-2.73-5.22-3.9-7.94-2.46-2.72,1.45-3.87,5.25-2.4,7.96-2.23-.55-4.76.48-5.97,2.43-1.21,1.95-1.01,4.67.48,6.43-4.45-1.96-10.29,1.98-10.15,6.84l54.01-.16c-.39-.72-1.72-4.02-4.93-4.15Z"/>
  <path class="cls-9" d="M191.41,93.14c.84-2.74.02-5.92-2.04-7.92s-5.26-2.72-7.98-1.81c.06-3.05-1.7-6.07-4.38-7.54s-6.17-1.32-8.71.37c-1.43-2.73-5.22-3.9-7.94-2.46-2.72,1.45-3.87,5.25-2.4,7.96-2.23-.55-4.76.48-5.97,2.43-1.21,1.95-1.01,4.67.48,6.43-4.45-1.96-10.29,1.98-10.15,6.84l54.01-.16c-.39-.72-1.72-4.02-4.93-4.15Z"/>
  <path class="cls-11" d="M85.77,25.01c.84-2.74.02-5.92-2.04-7.92s-5.26-2.72-7.98-1.81c.06-3.05-1.7-6.07-4.38-7.54-2.68-1.47-6.17-1.32-8.71.37-1.43-2.73-5.22-3.9-7.94-2.46-2.72,1.45-3.87,5.25-2.4,7.96-2.23-.55-4.76.48-5.97,2.43-1.21,1.95-1.01,4.67.48,6.43-4.45-1.96-10.29,1.98-10.15,6.84l54.01-.16c-.39-.72-1.72-4.02-4.93-4.15Z"/>
  <path class="cls-11" d="M446.23,239.3c.84-2.74.02-5.92-2.04-7.92-2.06-2-5.26-2.72-7.98-1.81.06-3.05-1.7-6.07-4.38-7.54-2.68-1.47-6.17-1.32-8.71.37-1.43-2.73-5.22-3.9-7.94-2.46-2.72,1.45-3.87,5.25-2.4,7.96-2.23-.55-4.76.48-5.97,2.43-1.21,1.95-1.01,4.67.48,6.43-4.45-1.96-10.29,1.98-10.15,6.84l54.01-.16c-.39-.72-1.72-4.02-4.93-4.15Z"/>
  <path class="cls-1" d="M453.14,446.26c0,.14-98.31.26-219.56.26s-219.59-.12-219.59-.26,98.29-.26,219.59-.26,219.56.12,219.56.26Z"/>
  <g>
    <path class="cls-3" d="M37.52,430.3c-3.21-10.51-.08-22.69,7.8-30.35,7.88-7.66,20.15-10.43,30.56-6.92-.21-11.7,6.5-23.26,16.76-28.88,10.26-5.62,23.62-5.05,33.36,1.43,5.47-10.46,20.01-14.95,30.43-9.41,10.42,5.54,14.82,20.11,9.21,30.49,8.54-2.11,18.23,1.83,22.86,9.31,4.64,7.48,3.86,17.91-1.83,24.62,17.04-7.51,39.44,7.59,38.87,26.2l-206.93-.6c1.48-2.77,6.58-15.39,18.89-15.89Z"/>
    <path class="cls-1" d="M37.52,430.3s-.54.07-1.66.2c-1.11.14-2.73.51-4.74,1.38-2,.88-4.28,2.47-6.43,4.88-2.21,2.38-4.13,5.63-5.97,9.48l-.1-.16c37.08.08,114.39.25,206.93.45l-.26.25c.07-3.19-.5-6.43-1.74-9.45-1.22-3.03-3.04-5.85-5.29-8.3-4.49-4.91-10.65-8.5-17.38-9.71-4.75-.86-9.74-.42-14.1,1.51l-1.03.46.73-.86c5.79-6.87,6.32-17.41,1.57-24.67-4.77-7.29-14.22-10.85-22.34-8.84l-.55.14.27-.5c2.95-5.49,3.04-12.11,1.08-17.76-1.93-5.68-6.03-10.58-11.35-12.94-5.31-2.39-11.42-2.27-16.65-.41-5.26,1.85-9.8,5.51-12.29,10.25l-.12.22-.21-.14c-5.57-3.66-12.1-5.33-18.34-5.25-6.26.08-12.26,1.96-17.09,5.21-4.84,3.25-8.53,7.7-10.94,12.49-2.4,4.8-3.52,9.94-3.47,14.82v.24s-.22-.08-.22-.08c-4.89-1.64-9.91-1.81-14.44-1.07-2.28.36-4.43,1.02-6.43,1.81-2.01.79-3.87,1.78-5.54,2.91-3.39,2.21-5.95,5.04-7.88,7.87-1.89,2.87-3.13,5.79-3.92,8.48-1.57,5.42-1.37,9.87-.99,12.75.22,1.45.43,2.54.64,3.27.18.73.27,1.09.27,1.09-.04-.14-.12-.43-.31-1.1-.22-.7-.45-1.8-.68-3.25-.4-2.89-.64-7.35.91-12.81.78-2.71,2.01-5.65,3.91-8.55,1.94-2.86,4.51-5.73,7.92-7.96,1.68-1.15,3.55-2.15,5.58-2.95,2.02-.8,4.19-1.48,6.49-1.84,4.57-.76,9.65-.61,14.6,1.04l-.22.16c-.07-4.93,1.06-10.13,3.48-14.99,2.42-4.84,6.15-9.36,11.04-12.65,4.89-3.3,10.97-5.22,17.3-5.3,6.32-.09,12.94,1.58,18.59,5.3l-.32.08c2.55-4.85,7.18-8.6,12.53-10.48,5.33-1.9,11.56-2.03,17.01.41,5.46,2.42,9.65,7.43,11.62,13.22,2,5.76,1.92,12.52-1.11,18.16l-.28-.36c8.35-2.06,17.98,1.57,22.89,9.05,4.88,7.47,4.34,18.22-1.6,25.29l-.3-.41c4.46-1.98,9.56-2.43,14.4-1.55,6.85,1.24,13.1,4.88,17.67,9.88,2.29,2.5,4.14,5.37,5.39,8.46,1.26,3.09,1.85,6.4,1.77,9.66v.25s-.26,0-.26,0c-92.54-.33-169.84-.61-206.93-.75h-.17s.08-.16.08-.16c1.85-3.83,3.8-7.11,6.04-9.49,2.18-2.42,4.49-4,6.51-4.87,2.02-.86,3.68-1.22,4.77-1.33,1.04-.09,1.5-.13,1.68-.14Z"/>
  </g>
  <g>
    <path class="cls-3" d="M430.76,426.19c-6.54-4.02-15.44-3.82-21.79.51-.9-10.39-7.83-20.03-17.39-24.19-9.56-4.17-21.34-2.68-29.56,3.73.83-10.68-5.19-21.59-14.67-26.58-9.48-4.99-21.88-3.78-30.21,2.95v63.66l123-.39c1-7.62-2.83-15.66-9.38-19.68Z"/>
    <path class="cls-1" d="M430.76,426.19s.45.26,1.28.83c.8.6,1.99,1.53,3.28,3.01,1.28,1.48,2.67,3.51,3.7,6.18,1.01,2.66,1.69,5.99,1.23,9.68v.11s-.13,0-.13,0c-25.31.11-70.03.29-123,.52h-.26s0-.26,0-.26c0-10.83,0-22.08,0-33.59,0-10.26,0-20.32,0-30.07v-.12l.1-.08c4.6-3.68,10.3-5.66,15.93-5.99,5.64-.34,11.27.98,15.9,3.8,4.64,2.81,8.21,6.97,10.5,11.56,2.29,4.59,3.3,9.66,2.94,14.48l-.36-.19c2.63-2.01,5.53-3.51,8.52-4.52,2.99-1,6.06-1.48,9.05-1.55,5.99-.16,11.64,1.55,16.06,4.43,4.45,2.87,7.77,6.69,9.95,10.63,1.1,1.97,1.93,3.97,2.54,5.93.58,1.97.92,3.89,1.1,5.72l-.2-.09c3.13-2.1,6.44-2.98,9.28-3.27,2.86-.26,5.29.07,7.18.54,1.89.48,3.23,1.13,4.12,1.57.86.49,1.29.76,1.29.76,0,0-.12-.05-.34-.17-.23-.12-.56-.3-.98-.53-.9-.41-2.24-1.04-4.12-1.5-1.88-.45-4.29-.76-7.12-.48-2.81.31-6.08,1.2-9.15,3.29l-.17.12-.02-.21c-.19-1.81-.53-3.71-1.12-5.66-.61-1.94-1.44-3.91-2.54-5.86-2.17-3.89-5.48-7.66-9.87-10.48-4.38-2.83-9.95-4.5-15.86-4.33-2.95.07-5.97.56-8.92,1.55-2.94,1-5.8,2.49-8.38,4.47l-.39.3.04-.49c.35-4.74-.65-9.72-2.91-14.24-2.25-4.51-5.78-8.59-10.33-11.35-4.54-2.76-10.08-4.05-15.62-3.72-5.53.33-11.13,2.27-15.64,5.89l.1-.2c0,9.75,0,19.81,0,30.07,0,11.51,0,22.76,0,33.59l-.26-.26c52.97-.11,97.69-.21,123-.26l-.13.11c.47-3.64-.18-6.94-1.17-9.58-1.01-2.65-2.37-4.68-3.62-6.16-1.26-1.49-2.44-2.42-3.22-3.04-.4-.28-.71-.5-.93-.65-.21-.15-.31-.23-.31-.23Z"/>
  </g>
  <g>
    <path class="cls-3" d="M430.64,281.78c-1.87-2.18-4.54-3.59-7.41-3.73-3.32-.16-6.7.85-9.29,2.94-4.06,3.29-5.91,9.06-4.53,14.09-6.28-2.28-13.98,1.5-16.33,7.76-2.35,6.26.69,13.95,6.52,17.21,5.83,3.27,13.72,2.01,18.52-2.65,3.48,6.68,12.75,9.56,19.4,6.03,6.65-3.53,9.47-12.82,5.89-19.44,6.42-.84,11.9-6.48,12.54-12.92.65-6.44-3.59-13.06-9.72-15.16-6.13-2.1-12.16.37-15.61,5.86h0Z"/>
    <path class="cls-1" d="M430.64,281.78s.04-.08.13-.23c.11-.17.25-.39.43-.67.41-.57,1.03-1.42,2.03-2.33.99-.92,2.36-1.93,4.19-2.66.92-.34,1.95-.63,3.07-.76,1.12-.12,2.33-.11,3.58.09,2.48.41,5.16,1.59,7.36,3.69,2.19,2.08,3.98,5.02,4.6,8.48.66,3.45-.19,7.36-2.44,10.56-1.13,1.59-2.59,3.01-4.3,4.13-1.72,1.11-3.71,1.88-5.83,2.19l.19-.37c3.02,5.58,1.68,13.56-3.64,18.21-2.66,2.31-6.36,3.4-9.97,3.09-3.61-.28-7.21-1.82-9.85-4.5-.95-.92-1.68-2.03-2.31-3.14l.45.07c-4.25,4.05-10.53,5.49-15.85,3.92-2.68-.74-5.03-2.34-6.77-4.37-.86-1.02-1.58-2.14-2.16-3.31-.55-1.19-.97-2.42-1.23-3.68-.24-1.26-.32-2.54-.25-3.79.1-1.25.38-2.47.79-3.63.9-2.3,2.44-4.24,4.29-5.63,1.83-1.44,3.98-2.3,6.11-2.72,2.15-.37,4.32-.2,6.24.49l-.28.26c-.7-2.59-.53-5.22.16-7.51.7-2.3,1.9-4.29,3.4-5.79,1.48-1.52,3.25-2.52,4.95-3.12,1.71-.6,3.38-.82,4.86-.81,3.02,0,5.16,1.25,6.37,2.19,1.23.98,1.69,1.67,1.69,1.67,0,0-.15-.14-.43-.42-.28-.28-.71-.69-1.34-1.15-1.22-.9-3.34-2.09-6.3-2.05-1.46,0-3.09.24-4.76.84-1.66.61-3.37,1.59-4.8,3.09-1.45,1.47-2.61,3.42-3.27,5.66-.66,2.23-.81,4.79-.12,7.29l.11.39-.39-.14c-1.85-.65-3.94-.8-6.01-.44-2.06.41-4.14,1.26-5.9,2.65-1.79,1.36-3.26,3.23-4.11,5.43-.39,1.11-.66,2.28-.74,3.49-.06,1.21.01,2.44.25,3.65.26,1.21.66,2.4,1.2,3.55.56,1.13,1.26,2.21,2.09,3.2,1.68,1.95,3.93,3.48,6.51,4.19,5.12,1.51,11.22.11,15.3-3.8l.26-.25.18.32c.61,1.06,1.3,2.12,2.22,3.01,2.53,2.57,6.01,4.06,9.49,4.33,3.48.29,7.01-.74,9.57-2.95,2.56-2.2,4.16-5.29,4.79-8.44.63-3.16.16-6.43-1.24-9.11l-.17-.32.36-.05c2.04-.29,3.97-1.03,5.63-2.1,1.66-1.08,3.08-2.45,4.18-3.99,2.2-3.09,3.03-6.87,2.41-10.21-.59-3.36-2.31-6.24-4.44-8.28-2.14-2.06-4.73-3.23-7.16-3.65-1.22-.2-2.4-.22-3.49-.12-1.1.12-2.1.39-3.01.71-1.81.69-3.17,1.67-4.17,2.56-2,1.81-2.63,3.17-2.7,3.12Z"/>
  </g>
  <g>
    <path class="cls-3" d="M110.85,106.48c1.35-4.43.03-9.57-3.29-12.8s-8.5-4.4-12.89-2.92c.09-4.93-2.74-9.81-7.07-12.18-4.33-2.37-9.96-2.13-14.07.6-2.31-4.41-8.44-6.31-12.83-3.97-4.4,2.34-6.25,8.48-3.88,12.86-3.6-.89-7.69.77-9.64,3.93-1.96,3.15-1.63,7.55.77,10.38-7.19-3.17-16.63,3.2-16.39,11.05l87.27-.25c-.62-1.17-2.77-6.49-7.97-6.7Z"/>
    <path class="cls-1" d="M110.85,106.48s.25.01.71.05c.45.04,1.16.19,2.02.55.86.37,1.84,1.03,2.77,2.05.95,1,1.78,2.4,2.57,4l.08.16h-.17c-15.69.07-48.27.22-87.27.4h-.26s0-.25,0-.25c.01-1.39.22-2.81.76-4.13.57-1.3,1.31-2.56,2.3-3.61,1.95-2.12,4.61-3.68,7.53-4.21,2.06-.38,4.24-.19,6.16.65l-.3.41c-2.55-3.04-2.78-7.63-.68-10.84,2.11-3.21,6.23-4.76,9.81-3.88l-.28.37c-2.57-4.91-.2-11.35,4.51-13.43,4.73-2.06,10.45.15,12.63,4.32l-.32-.08c4.86-3.17,11.14-2.82,15.28.02,4.19,2.84,6.25,7.59,6.16,11.76l-.22-.16c4.26-1.38,8.5-.31,11.32,1.61,2.9,1.95,4.36,4.74,5,7.02.65,2.31.54,4.2.36,5.42-.1.61-.2,1.08-.3,1.36-.09.3-.15.46-.15.46,0,0,.03-.15.1-.46.08-.32.17-.78.26-1.39.15-1.21.22-3.08-.44-5.36-.65-2.24-2.12-4.96-4.97-6.85-2.78-1.86-6.94-2.88-11.07-1.51l-.22.07v-.24c.02-2.04-.45-4.19-1.46-6.2-1.01-2-2.56-3.86-4.58-5.22-4.01-2.74-10.12-3.05-14.8.03l-.21.14-.12-.22c-2.06-3.94-7.58-6.05-12.04-4.08-4.44,1.95-6.7,8.15-4.26,12.75l.27.5-.55-.14c-3.36-.83-7.29.65-9.26,3.67-1.97,3-1.75,7.39.65,10.23l.73.86-1.03-.45c-1.81-.8-3.88-.98-5.86-.62-2.8.5-5.37,2-7.24,4.04-.96,1.01-1.66,2.21-2.2,3.45-.52,1.26-.71,2.6-.73,3.93l-.26-.25c39-.05,71.58-.09,87.27-.1l-.1.16c-.77-1.63-1.57-2.99-2.5-3.99-.9-1.02-1.85-1.68-2.69-2.06-1.68-.73-2.73-.64-2.68-.7Z"/>
  </g>
  <g>
    <path class="cls-3" d="M440.43,156.38c1.17-3.81.03-8.24-2.83-11.02-2.86-2.78-7.32-3.79-11.1-2.51.08-4.25-2.36-8.45-6.09-10.49-3.73-2.04-8.58-1.83-12.11.52-1.99-3.8-7.26-5.43-11.05-3.42-3.78,2.01-5.38,7.3-3.34,11.07-3.1-.77-6.62.66-8.3,3.38-1.68,2.71-1.4,6.5.66,8.94-6.19-2.73-14.32,2.75-14.11,9.51l75.13-.22c-.54-1-2.39-5.59-6.86-5.77Z"/>
    <path class="cls-1" d="M440.43,156.38s.22,0,.61.04c.39.04,1,.16,1.74.47.74.31,1.58.89,2.38,1.77.82.86,1.54,2.06,2.21,3.45l.07.14h-.15c-13.51.06-41.55.19-75.13.35h-.22s0-.22,0-.22c0-1.2.19-2.42.66-3.56.49-1.12,1.12-2.2,1.98-3.11,1.68-1.83,3.97-3.17,6.49-3.62,1.78-.33,3.65-.16,5.3.56l-.26.35c-2.2-2.61-2.39-6.57-.59-9.34,1.82-2.76,5.36-4.1,8.45-3.34l-.24.31c-2.21-4.23-.17-9.77,3.88-11.56,4.07-1.77,9,.13,10.87,3.71l-.28-.07c4.19-2.73,9.59-2.43,13.15.01,3.61,2.45,5.38,6.54,5.3,10.12l-.19-.14c3.67-1.19,7.31-.27,9.75,1.39,2.5,1.68,3.76,4.08,4.3,6.04.56,1.99.47,3.62.31,4.67-.09.53-.18.93-.26,1.18-.08.26-.13.4-.13.4,0,0,.02-.13.08-.39.07-.27.15-.67.22-1.19.13-1.05.19-2.65-.38-4.61-.56-1.93-1.82-4.27-4.28-5.89-2.39-1.6-5.97-2.48-9.53-1.3l-.19.06v-.2c.02-1.75-.39-3.61-1.26-5.34-.87-1.72-2.2-3.33-3.94-4.49-3.45-2.36-8.71-2.62-12.74.02l-.18.12-.1-.19c-1.77-3.39-6.52-5.21-10.36-3.52-3.82,1.68-5.77,7.01-3.67,10.98l.23.43-.47-.12c-2.89-.72-6.28.56-7.97,3.16-1.7,2.59-1.5,6.36.56,8.8l.63.74-.89-.39c-1.56-.69-3.34-.84-5.04-.53-2.41.43-4.62,1.72-6.23,3.48-.82.87-1.43,1.91-1.9,2.97-.45,1.09-.62,2.24-.63,3.38l-.22-.21c33.57-.04,61.62-.07,75.13-.09l-.08.14c-.67-1.4-1.35-2.58-2.15-3.44-.78-.87-1.6-1.45-2.32-1.77-1.45-.63-2.35-.55-2.31-.6Z"/>
  </g>
  <g>
    <path class="cls-3" d="M289.88,22.92c-.84-2.76-.02-5.97,2.05-7.98,2.07-2.01,5.3-2.74,8.04-1.82-.06-3.08,1.71-6.12,4.41-7.6,2.7-1.48,6.21-1.33,8.78.38,1.44-2.75,5.26-3.93,8-2.48,2.74,1.46,3.9,5.29,2.42,8.02,2.25-.56,4.79.48,6.01,2.45,1.22,1.97,1.02,4.71-.48,6.47,4.48-1.97,10.37,2,10.22,6.89l-54.42-.16c.39-.73,1.73-4.05,4.97-4.18Z"/>
    <path class="cls-1" d="M289.88,22.92s-.63,0-1.66.45c-1.06.45-2.3,1.72-3.21,3.78l-.1-.16c9.75-.05,30.08-.05,54.42,0l-.26.25c.11-3.32-2.83-6.42-6.27-7.02-1.22-.22-2.48-.11-3.6.38l-1.03.45.73-.86c1.47-1.73,1.6-4.43.4-6.26-1.2-1.85-3.62-2.76-5.67-2.25l-.55.14.27-.5c1.5-2.82.11-6.63-2.61-7.82-2.73-1.21-6.13.09-7.39,2.5l-.12.22-.21-.14c-2.89-1.9-6.67-1.71-9.14-.03-2.52,1.69-3.78,4.55-3.75,7.06v.24s-.22-.08-.22-.08c-2.55-.85-5.13-.23-6.85.92-1.77,1.16-2.68,2.85-3.09,4.24-.42,1.41-.38,2.57-.29,3.33.1.76.23,1.17.2,1.15,0-.02-.17-.37-.3-1.14-.12-.76-.19-1.94.21-3.39.39-1.43,1.3-3.18,3.12-4.41,1.77-1.21,4.43-1.89,7.11-1.02l-.22.16c-.06-2.62,1.22-5.6,3.86-7.39,2.6-1.79,6.55-2.01,9.61-.02l-.32.08c1.38-2.64,4.99-4.04,7.99-2.73,2.99,1.33,4.48,5.39,2.86,8.5l-.28-.37c2.28-.56,4.88.42,6.22,2.46,1.33,2.04,1.19,4.95-.43,6.88l-.3-.41c1.21-.54,2.59-.65,3.9-.41,1.85.33,3.52,1.31,4.75,2.65.63.66,1.1,1.46,1.45,2.28.34.84.48,1.73.48,2.62v.25s-.26,0-.26,0c-24.34-.08-44.68-.2-54.42-.31h-.17s.07-.16.07-.16c.93-2.05,2.26-3.35,3.35-3.78.54-.22.98-.31,1.26-.33.28-.02.45-.02.45-.02Z"/>
  </g>
  <g>
    <g>
      <path class="cls-3" d="M179.92,49.67l-5.06,1.75c-2.04,3.5-5.15,6.44-9.17,8.27-9.47,4.33-20.9.66-26.1-8.35-6.02-10.42-1.8-23.77,9.23-28.8,9.36-4.27,20.64-.75,25.92,8.08,2.62,4.38,3.41,9.31,2.62,13.92h0s2.56,5.13,2.56,5.13Z"/>
      <path class="cls-1" d="M179.92,49.67s-.07-.12-.19-.34c-.12-.24-.29-.56-.51-.99-.45-.87-1.09-2.14-1.93-3.78h.13s0,0,0,0c-.02.04-.06.05-.1.04-.03-.01-.05-.05-.04-.08.4-2.48.51-5.93-.77-9.74-.63-1.9-1.61-3.85-2.98-5.71-1.38-1.85-3.18-3.58-5.36-4.97-2.18-1.38-4.75-2.41-7.53-2.88-2.78-.47-5.78-.43-8.7.4-2.92.8-5.74,2.3-8.14,4.41-2.42,2.1-4.31,4.89-5.47,8-.63,1.56-.95,3.22-1.18,4.85-.06.82-.13,1.64-.12,2.46l.06,1.22.03.61.09.6c.42,3.2,1.63,6.2,3.33,8.74,1.69,2.55,3.98,4.55,6.43,6,2.45,1.45,5.1,2.32,7.68,2.68,2.58.34,5.09.18,7.35-.35.56-.16,1.11-.32,1.65-.47.54-.17,1.04-.4,1.54-.59,1.01-.4,1.93-.9,2.78-1.42,3.43-2.11,5.55-4.82,6.83-6.95,0-.02.02-.03.04-.03,1.62-.54,2.88-.96,3.75-1.25.42-.14.75-.25.99-.32.22-.07.35-.11.35-.11,0,0-.1.04-.31.12-.23.08-.55.2-.96.35-.88.31-2.14.77-3.77,1.35l.04-.03c-1.25,2.17-3.37,4.92-6.83,7.08-.86.53-1.79,1.05-2.81,1.46-.51.2-1.02.43-1.56.61-.55.16-1.1.32-1.67.49-2.29.55-4.83.73-7.45.39-2.62-.35-5.31-1.23-7.81-2.69-2.49-1.47-4.82-3.49-6.55-6.09-1.73-2.58-2.97-5.63-3.4-8.89l-.09-.61-.03-.62c-.02-.41-.04-.83-.06-1.24,0-.83.06-1.67.12-2.5.24-1.66.56-3.34,1.2-4.94,1.19-3.17,3.11-6.01,5.58-8.15,2.44-2.15,5.32-3.67,8.29-4.48,2.97-.84,6.03-.87,8.85-.39,2.83.49,5.43,1.54,7.64,2.95,2.21,1.42,4.03,3.18,5.41,5.07,1.37,1.9,2.36,3.88,2.98,5.8,1.26,3.86,1.12,7.35.69,9.84l-.14-.04s0-.01,0-.01c.02-.04.06-.05.1-.04.02,0,.03.02.04.04.81,1.67,1.44,2.97,1.87,3.86.2.42.36.75.47.99.1.22.15.33.15.33Z"/>
    </g>
    <polygon class="cls-12" points="148.33 41.92 150.88 39.18 156.14 43.54 165.83 33.56 168.38 36.13 155.94 48.66 148.33 41.92"/>
  </g>
  <rect class="cls-6" x="183.53" y="210.78" width="137.69" height="235.55"/>
  <g>
    <path class="cls-8" d="M168.89,146.68c-.07-.25,8.02-10.9,8.02-10.9l-7.14-7.47-8.03,6.3,7.14,12.06Z"/>
    <g>
      <path class="cls-8" d="M299.12,92.46l1.87,6.52s4.01,5.94,5.42,6.65c.37.19.73.47,1.07.59,1.27.46,2.94.01,2.6-1.48,0,0,1.32.2,1.95-1.05.57-1.12-.67-2.48-.67-2.48,0,0,1.44.37,2.09-.61.54-.81-.23-1.87-.23-1.87,0,0,.65-1.11.32-1.71-.32-.61-1.58-1.84-1.58-1.84,0,0-1.39-3.2-2.61-4.98-1.15-1.69-3.05-3.06-3.05-3.06l-7.19,5.33Z"/>
      <path class="cls-10" d="M313.37,98.85c.05-.09-.59-.49-1.24-1.13-.65-.63-1.06-1.26-1.16-1.21-.09.04.2.79.9,1.47.69.68,1.45.95,1.49.87Z"/>
      <path class="cls-10" d="M311.61,101.4c.04-.1-.58-.46-1.22-1.05-.65-.58-1.07-1.17-1.16-1.11-.09.04.22.76.91,1.38.69.63,1.43.86,1.47.78Z"/>
      <path class="cls-10" d="M306.4,101.11c-.1.03.33,1.18,1.4,2.16,1.06.98,2.1,1.5,2.14,1.43.06-.09-.88-.75-1.89-1.7-1.03-.94-1.56-1.94-1.66-1.89Z"/>
    </g>
    <g>
      <g>
        <g>
          <path class="cls-5" d="M51.47,268.42c-.09.19-1.26,2.4-.94,3.2.32.8,1.32.93,1.32.93,0,0,.11,1.11.79,1.67.67.56,1.79.51,1.79.51l.54.64c.79.93,1.55.74,1.55.74,0,0,.96-.41,1.82-.14.86.27,2.66-1.83,3.6-2.8,1-1.03,2.22-2.26,1.57-4.29-.87-2.73-2-6.28-2-6.28l1.82-5.17-8.91.3-.39,2.25s-1.23.59-2.08,3.12c-.86,2.53-.48,5.31-.48,5.31Z"/>
          <g>
            <path class="cls-5" d="M61,262.79s2.54,5.9,2.51,6.09c-.02.19-2.51,5.38-3.7,6.17-1.19.79-2.75,1.67-2.75,1.67,0,0-1.34-.64-.19-2.6,1.14-1.96,2.48-3.92,2.48-3.92l-.85-2.04s-4.37-2.22-3.17-6.59"/>
            <path class="cls-7" d="M55.34,261.58s-.07.19-.15.55c-.06.18-.08.41-.09.68-.04.27,0,.58.01.93.09.69.35,1.53.91,2.35.56.81,1.37,1.59,2.44,2.2l-.06-.07c.27.65.55,1.33.84,2.04v-.13c-.61.91-1.24,1.88-1.88,2.92-.31.52-.66,1.03-.91,1.65-.11.31-.19.65-.17,1,.02.35.17.71.44.96.09.09.18.16.3.22l.07.04.07-.04c.51-.31,1.01-.61,1.5-.91.25-.15.49-.3.73-.45.24-.16.49-.26.72-.48.43-.41.73-.87,1.03-1.32.3-.45.56-.91.81-1.35.5-.9.94-1.76,1.33-2.58.09-.21.19-.41.28-.61l.07-.16s.02-.07.03-.1c0-.04-.01-.08-.02-.12-.04-.12-.07-.21-.11-.31-.16-.39-.31-.76-.46-1.12-.6-1.42-1.11-2.56-1.46-3.34-.17-.37-.31-.66-.42-.9-.1-.2-.15-.31-.16-.3,0,0,.03.12.11.33.1.24.22.55.36.92.34.84.8,1.98,1.37,3.38.14.36.29.73.44,1.12l.1.29v.02s.01,0,.01,0h0s-.03,0,.06.02c-.08,0-.06,0-.06,0h0s-.01.04-.01.04l-.06.14c-.09.2-.19.4-.28.6-.4.81-.85,1.67-1.35,2.55-.26.44-.52.89-.81,1.33-.29.44-.6.9-.98,1.25-.17.17-.45.3-.68.45-.24.15-.48.29-.73.44-.49.3-.99.6-1.49.9h.14c-.06-.04-.15-.1-.21-.17-.44-.41-.41-1.08-.2-1.63.22-.55.58-1.08.88-1.6.63-1.03,1.26-2.01,1.87-2.92l.04-.06-.03-.07c-.3-.71-.58-1.39-.86-2.03l-.02-.04-.04-.02c-1.02-.56-1.83-1.32-2.38-2.09-.55-.78-.82-1.57-.93-2.24-.16-1.36.15-2.13.09-2.14Z"/>
          </g>
        </g>
        <rect class="cls-6" x="29.96" y="276.81" width="51.48" height="36.37" transform="translate(5.83 -1.04) rotate(1.13)"/>
        <path class="cls-1" d="M75.84,277.38s-.1.18-.32.5c-.26.36-.59.82-1,1.39-.89,1.19-2.12,2.95-3.86,4.98-1.74,2.02-4.06,4.23-7.03,6.17-2.96,1.9-6.65,3.56-10.79,3.71-4.16.16-7.95-1.46-10.84-3.47-2.92-2.02-5.07-4.42-6.72-6.5-1.65-2.09-2.83-3.89-3.64-5.14-.37-.59-.67-1.07-.91-1.45-.2-.34-.3-.52-.28-.53.02,0,.14.15.37.47.26.36.59.83.99,1.39.86,1.21,2.08,2.97,3.76,5.02,1.68,2.03,3.83,4.38,6.71,6.33,2.84,1.95,6.53,3.5,10.55,3.34,4.01-.14,7.63-1.75,10.55-3.59,2.93-1.89,5.25-4.05,7.01-6.01,1.76-1.97,3.04-3.7,3.97-4.85.44-.54.8-.98,1.08-1.33.25-.3.39-.45.41-.44Z"/>
        <path class="cls-6" d="M42.81,279.79c0-.26,1.85-8.69,5.59-12.07,2.06-1.86,6.43-3.52,10.95,2.49l-1.57,2.22s-4.75-6.53-7.47-3.27c-1.46,1.75-4.1,5.79-4.28,9.91l-3.22.72Z"/>
        <g>
          <path class="cls-5" d="M57.72,272.5c.29-.3.53-.65.71-1.03.18-.38.29-.86.08-1.22-.18-.3-.55-.46-.9-.43-.35.02-.67.2-.93.43-.26.23-.47.52-.67.81"/>
          <path class="cls-7" d="M56,271.05c-.05-.04.05-.34.38-.78.17-.21.42-.46.79-.61.36-.15.89-.17,1.29.15.44.32.47.91.36,1.26-.1.38-.28.65-.44.87-.33.43-.62.61-.66.56-.05-.05.13-.31.35-.75.11-.22.23-.49.28-.78.06-.29,0-.58-.21-.74-.49-.37-1.16-.01-1.49.3-.36.33-.59.57-.65.53Z"/>
        </g>
        <g>
          <path class="cls-5" d="M54.16,268.67c.33-.48.88-.88,1.53-.95.64-.07,1.34.26,1.5.8.14.45-.11.93-.36,1.35-.71,1.19-1.53,2.33-2.45,3.42"/>
          <path class="cls-7" d="M54.38,273.29c-.13-.09,1.21-1.73,2.43-3.93.29-.54.17-1-.27-1.24-.42-.24-.89-.23-1.25-.12-.75.24-1.05.72-1.12.66-.05-.01.14-.61.99-1.01.41-.18,1.03-.26,1.61.04.28.14.58.41.68.8.1.39-.02.77-.17,1.08-1.29,2.32-2.8,3.79-2.9,3.7Z"/>
        </g>
        <g>
          <path class="cls-5" d="M51.64,268.32c.17-.44.56-.95.95-1.22.39-.27.9-.39,1.35-.25.45.14.83.56.85,1.03.02.41-.21.79-.43,1.13-.7,1.07-1.47,2.4-2.28,3.39"/>
          <path class="cls-7" d="M52.07,272.39c-.06-.05.24-.5.69-1.25.26-.44.53-.88.79-1.32.27-.5.71-1.06.92-1.58.21-.52-.16-1.03-.61-1.17-.46-.15-.95.03-1.26.26-.65.51-.88,1.03-.95,1-.06-.01.03-.61.72-1.28.35-.32.95-.61,1.63-.43.34.09.65.31.86.64.22.32.25.8.11,1.16-.13.37-.34.65-.51.91-.17.26-.33.51-.5.76-.32.49-.62.92-.89,1.27-.53.71-.94,1.09-.99,1.05Z"/>
        </g>
        <path class="cls-1" d="M56.06,294.12c0,1.38-1.11,2.49-2.49,2.49s-2.49-1.11-2.49-2.49,1.11-2.49,2.49-2.49,2.49,1.11,2.49,2.49Z"/>
      </g>
      <path class="cls-4" d="M97.55,187.04s-8.96,2.85-12.03,5.82c-7.95,7.67-19.76,19.92-23.13,25.28-2.1,3.35-9.2,39.97-9.2,39.97l15.85.76,7.87-36.94,13.49-13.49,7.14-21.39Z"/>
      <g>
        <path class="cls-1" d="M168.29,275.67l9.79,8.8,1.54.94s10.66-14.92,13.86-14.32l-8.29,33.03-2.65-.76-17.78-11.63,3.53-16.06Z"/>
        <path class="cls-4" d="M175.66,295.84c.01.68.62,1.31,1.31,1.32.68.01,1.32-.6,1.32-1.28,0-.68-.71-1.45-1.39-1.39-.68.06-1.39.82-1.22,1.49"/>
        <path class="cls-1" d="M185.38,304.15l-2.65-.76,8.94-31.39s1.01-1.31,2-.88l-8.29,33.03Z"/>
        <path class="cls-6" d="M179.62,285.4c.16.05.03.87.35,1.79.3.93.89,1.52.79,1.65-.07.14-.97-.34-1.34-1.47-.38-1.12.06-2.05.2-1.98Z"/>
        <path class="cls-6" d="M181.93,282.3c.17,0,.26.77.81,1.49.52.73,1.23,1.06,1.18,1.22-.01.16-.99.03-1.65-.87-.67-.9-.5-1.87-.34-1.83Z"/>
        <path class="cls-6" d="M186.57,281.37c0,.16-.86.18-1.64-.46-.78-.63-.94-1.48-.79-1.51.16-.06.51.55,1.15,1.06.64.53,1.3.74,1.28.91Z"/>
        <path class="cls-1" d="M175.66,284.72c.13.1-.28.79-.45,1.72-.19.92-.06,1.71-.22,1.76-.14.06-.56-.78-.35-1.87.2-1.09.91-1.72,1.01-1.61Z"/>
      </g>
      <g>
        <path class="cls-1" d="M127.08,144.49c1.06-.96,2.76-1.12,3.99-.39,2.01-.64,4.4.31,5.42,2.15,1.43-.25,2.97.29,3.92,1.38.95,1.09,1.27,2.7.82,4.07,1.44.29,2.62,1.57,2.79,3.03.17,1.46-.67,2.98-2,3.6,1.3,1.03,1.63,3.08.74,4.48-.9,1.39-2.9,1.93-4.38,1.18l-12.1-15.59c-.6-1.3-.26-2.97.8-3.93Z"/>
        <g>
          <g>
            <path class="cls-5" d="M138.67,163.98c2.06-7.19-1.76-14.75-8.76-17.38l-.7-.26c-7.67-2.38-13.97,2.81-16.13,10.54l-8.35,26.88h0l5.8,14.72,9.51-4.7,2.74-6.69s7.63,1.58,10.43-5.59c1.35-3.47,3.55-10.83,5.46-17.52Z"/>
            <path class="cls-7" d="M122.77,187.74s-4.63-1.45-8.33-6.3c0,0,.26,6.03,7.62,8.08l.72-1.77Z"/>
            <path class="cls-1" d="M134.08,170.52c-.18.55-.8.85-1.38.67-.58-.18-.9-.78-.71-1.33.18-.55.8-.85,1.38-.67.58.18.9.78.71,1.33Z"/>
            <path class="cls-1" d="M135.74,167.97c-.18.09-.74-.78-1.85-1.2-1.1-.43-2.13-.16-2.2-.34-.04-.08.18-.28.64-.4.44-.13,1.13-.15,1.82.11.69.26,1.17.73,1.41,1.12.24.39.27.68.18.71Z"/>
            <path class="cls-1" d="M124.4,167.43c-.18.55-.8.85-1.38.67-.58-.18-.9-.78-.71-1.33.18-.55.8-.85,1.38-.67.58.18.9.78.71,1.33Z"/>
            <path class="cls-1" d="M125.2,163.83c-.18.09-.74-.78-1.85-1.2-1.1-.43-2.13-.16-2.2-.34-.04-.08.18-.28.64-.4.44-.13,1.13-.15,1.82.11.69.26,1.17.73,1.41,1.12.24.39.27.68.18.71Z"/>
            <path class="cls-1" d="M121.71,174.14c.2-.03.46.98,1.38,1.72.91.75,1.97.82,1.98,1.02,0,.09-.26.2-.73.18-.46-.02-1.12-.21-1.7-.68-.57-.47-.88-1.07-.99-1.51-.11-.45-.04-.72.05-.73Z"/>
            <path class="cls-1" d="M125.77,173.42c.02-.07.75.07,1.92.35.29.08.58.12.7-.05.14-.18.14-.53.13-.91,0-.78-.02-1.61-.03-2.47-.01-3.5.09-6.34.23-6.34.14,0,.26,2.84.28,6.35,0,.86,0,1.68-.01,2.47-.01.36.03.8-.27,1.17-.16.18-.42.26-.62.24-.2-.01-.36-.07-.51-.11-1.15-.36-1.84-.62-1.83-.68Z"/>
            <path class="cls-1" d="M126.38,159.09c-.13.31-1.16.07-2.4.14-1.24.04-2.26.36-2.4.06-.06-.14.14-.43.56-.71.42-.28,1.08-.52,1.82-.55.74-.03,1.4.16,1.83.4.43.24.64.51.58.66Z"/>
            <path class="cls-1" d="M136.63,164.83c-.27.2-.98-.29-1.92-.57-.93-.31-1.79-.32-1.9-.64-.04-.15.16-.38.57-.52.41-.15,1.04-.18,1.69.02.64.2,1.14.6,1.39.96.26.36.29.66.17.76Z"/>
            <path class="cls-1" d="M139.22,161.05s-.21-5.23-1.99-7.1c-2.16-2.26-4.38.2-6.63-1.44-2.25-1.64-4.31-3.81-7.6-2.83-3.61,1.07-2.85,3.06-4.22,6.19-5.57,12.71-9.31,15.49-7.7,9.12.18-.7-1.48-1.93-.7-4.86,1.02-3.8,2.55-8.31,4.34-10.6,1.51-1.93,3.33-2.98,6.2-3.81,4.53-1.31,9.41.46,12.59,2.03,3.18,1.57,8.12,7.76,5.7,13.3Z"/>
            <path class="cls-5" d="M111.61,164.97c.37-1.13-.26-2.37-1.41-2.68-1.39-.38-3.18-.17-4.13,2.64-1.69,4.99,3.67,5.66,3.72,5.52.04-.1,1.12-3.38,1.81-5.48Z"/>
            <path class="cls-7" d="M109.35,168.2s-.11.03-.28.05c-.17.02-.43-.02-.65-.21-.46-.37-.62-1.36-.34-2.27.14-.46.38-.86.67-1.16.28-.31.6-.49.88-.45.28.03.42.25.43.41.02.16-.05.25-.02.27,0,.02.14-.05.17-.27.01-.11,0-.24-.09-.38-.09-.14-.25-.25-.44-.29-.39-.1-.86.13-1.17.47-.33.33-.61.77-.77,1.29-.31,1.02-.11,2.13.54,2.58.32.21.65.2.84.14.2-.07.26-.17.25-.19Z"/>
          </g>
          <path class="cls-1" d="M115.29,155.46c.48.68.98,1.38,1.73,1.75.74.37,1.79.25,2.21-.46.19-.32.25-.75.58-.93.39-.22.85.07,1.24.27,1.38.69,3.22.23,4.11-1.03.16.68,1.02.98,1.71.83.69-.15,1.26-.6,1.88-.93.62-.33,1.39-.55,2.01-.21.35.19.6.53.98.64.67.19,1.27-.45,1.61-1.06.34-.61.7-1.33,1.38-1.47.63-.13,1.22.3,1.78.61.56.31,1.38.46,1.76-.07.19-.28.18-.65.11-.98-.31-1.5-1.79-2.66-3.32-2.62.13-1.81-.92-3.65-2.54-4.46-1.62-.81-3.72-.55-5.09.64-.69-1.34-2.05-2.3-3.54-2.5-1.49-.2-3.06.36-4.08,1.47-1.08-.77-2.62-.81-3.75-.12-1.13.7-1.78,2.09-1.58,3.4-1.08.17-2.17.77-2.57,1.78-.4,1.01.21,2.4,1.3,2.5-.7.65-.78,1.85-.17,2.58.6.73,1.8.88,2.56.32"/>
        </g>
        <path class="cls-6" d="M112.85,152.36s-.25.38-.05,1.06c.1.33.34.72.77.96.42.24,1,.34,1.56.12l-.2-.11c.08.52.24,1.07.52,1.6.18.34.4.65.69.9.28.25.64.4.96.46.65.17,1.32.03,1.73-.28.41-.3.64-.65.78-.88.14-.23.2-.37.19-.38-.02-.01-.11.11-.28.32-.17.2-.42.52-.81.77-.73.53-2.39.32-2.99-1.04-.26-.49-.42-1.02-.51-1.5l-.03-.18-.16.07c-.46.19-.96.13-1.33-.07-.37-.19-.6-.52-.72-.81-.23-.6-.07-1-.12-1Z"/>
        <path class="cls-6" d="M126.39,144.6s.12.08.3.26c.18.17.43.48.52.94l.02.12.1-.07c.69-.45,1.76-.95,3.11-1.04.67-.04,1.4.04,2.1.3.7.26,1.36.74,1.86,1.38.39.5.66,1.07.8,1.64.13.58.12,1.16-.02,1.69l-.04.16.16.02c.82.07,1.52.5,1.96,1.02.45.52.63,1.13.67,1.62.07,1.02-.29,1.56-.24,1.58.01,0,.1-.12.21-.38.1-.26.22-.67.2-1.21-.02-.52-.19-1.18-.66-1.76-.46-.57-1.21-1.05-2.11-1.15l.12.18c.16-.57.17-1.21.04-1.83-.15-.62-.44-1.23-.85-1.76-.53-.68-1.25-1.2-2-1.47-.75-.28-1.52-.34-2.22-.29-1.4.12-2.49.67-3.18,1.16l.13.05c-.13-.5-.42-.81-.62-.97-.21-.16-.35-.2-.36-.19Z"/>
      </g>
      <g>
        <g>
          <path class="cls-1" d="M106.17,375.08h0l1.14,17.81s14.15,15.5,13.05,18.74l-33.13-13.59,1.19-2.65,3.23-7.07-2.99-12.81,17.5-.43Z"/>
          <path class="cls-4" d="M95.19,390.18c-.71-.09-1.45.45-1.57,1.16-.16.95.88,1.99,1.91,1.41.86-.48,1.05-1.7.28-2.32-.22-.18-.49-.29-.76-.26"/>
          <path class="cls-1" d="M87.23,398.04l1.19-2.65,31.32,14.02s1.21,1.25.62,2.22l-33.13-13.59Z"/>
          <path class="cls-6" d="M108.82,394.88c-.07.16-.91-.1-1.92.09-1.01.17-1.71.7-1.84.57-.14-.09.5-.96,1.73-1.17,1.22-.22,2.12.37,2.03.5Z"/>
          <path class="cls-6" d="M111.32,397.63c-.03.17-.84.16-1.67.62-.84.43-1.29,1.12-1.44,1.04-.16-.04.11-1.03,1.16-1.58,1.04-.56,2.02-.24,1.96-.08Z"/>
          <path class="cls-6" d="M111.18,402.59c-.16-.03-.05-.93.72-1.64.77-.72,1.68-.76,1.69-.59.04.17-.65.44-1.28,1.04-.64.58-.97,1.25-1.14,1.2Z"/>
          <path class="cls-6" d="M107.16,390.31c-.07.16-.88-.06-1.86.03-.99.07-1.75.42-1.84.28-.1-.12.63-.79,1.79-.88,1.16-.1,2,.43,1.91.57Z"/>
        </g>
        <path class="cls-1" d="M64.7,249.01s-3.36,5.31-4.24,10.92c-.47,3.04-1.3,8.96.92,15.46,1.32,3.85,19.6,53.47,19.6,53.47l2.09,26.05,6.32,32.69,19.8-.97s-1.83-51.48-2.62-59.03c-.86-8.15-11.94-58.3-11.94-58.3l7.23-18.05-33.63-11.22-3.53,8.99Z"/>
        <path class="cls-6" d="M120.12,409.9c-.06.13-7.2-3.01-15.96-7.01-8.75-4.01-15.8-7.36-15.74-7.49.06-.13,7.2,3.01,15.96,7.02,8.75,4,15.8,7.36,15.74,7.49Z"/>
        <path class="cls-6" d="M109.19,386.66c0,.14-4.42.47-9.89.73-5.47.26-9.9.35-9.91.21,0-.14,4.42-.47,9.89-.73,5.47-.26,9.9-.35,9.91-.21Z"/>
      </g>
      <g>
        <path class="cls-4" d="M124.12,189.52l-1.12-2.53c-7.42-3.09-12.83-6.18-17.35-6.11l-3.49,3.42c-4.05,2.54-11.98,6.44-14.12,9.43l-9.8,18.94-13.53,31.75c-1.25,1.94-3.92,4.81-.95,7.67l27.01,3.03,9.6.16c1.96-.26,7.11,1.19,7.72-1.98,1.09-5.62,18.88-43.39,20.15-48.33l-.56-8.13-3.55-7.31Z"/>
        <path class="cls-12" d="M127.46,204.84c-2.01,5.33-3.43,13.57-10.93,18.52-4.15,2.74-10.24,4.38-14.98,5.88-5.61,1.78-13.07,4.05-13.07,4.05l-4.73,8.68,8.43,1.1s9.92-3.16,13.83-4.79c8.42-3.5,5.53-2.36,8.44-4.32,4.17-2.6,9.86-10.26,14.04-29.63"/>
        <path class="cls-1" d="M107.58,190.61c0,.08-1.01.02-2.62-.06-1.61-.07-3.84-.14-6.3-.01-2.45.11-4.66.44-6.23.78-1.57.34-2.52.66-2.55.57-.01-.03.21-.14.64-.32.42-.18,1.05-.38,1.83-.61,1.57-.44,3.81-.82,6.29-.94,2.48-.13,4.73,0,6.35.17,1.62.17,2.6.36,2.6.42Z"/>
        <path class="cls-1" d="M121.58,186.49c-.02.07-1.12-.12-2.9-.45-1.78-.32-4.24-.77-6.97-1.11-2.73-.33-5.22-.45-7.02-.41-1.8.03-2.91.16-2.93.07,0-.04.27-.1.77-.19.5-.1,1.23-.18,2.14-.25,1.82-.13,4.35-.08,7.1.26,2.76.34,5.22.85,6.98,1.26,1.77.42,2.84.74,2.83.81Z"/>
        <path class="cls-6" d="M88.04,193.73s-.08.22-.26.61c-.22.44-.5,1.01-.85,1.71-.76,1.54-1.8,3.68-3.08,6.29-2.57,5.33-6,12.75-9.85,20.92-1.93,4.08-3.8,7.96-5.56,11.46-.88,1.75-1.73,3.4-2.56,4.94-.81,1.54-1.63,2.94-2.23,4.28-.6,1.33-.99,2.61-1.12,3.76-.13,1.15-.02,2.16.19,2.95.43,1.59,1.15,2.25,1.09,2.28,0,0-.19-.14-.44-.5-.25-.36-.6-.92-.84-1.73-.25-.8-.39-1.84-.28-3.03.1-1.19.48-2.51,1.07-3.88.59-1.37,1.39-2.79,2.18-4.33.81-1.54,1.64-3.2,2.51-4.95,1.74-3.5,3.59-7.38,5.52-11.47,3.84-8.17,7.32-15.57,9.99-20.86,1.33-2.65,2.44-4.77,3.23-6.22.38-.68.69-1.24.93-1.66.22-.38.34-.57.36-.56Z"/>
      </g>
      <g>
        <path class="cls-1" d="M80.45,286.47c1.4.44,48.4-17.8,48.4-17.8l39.85,30.3,2.91,1.17,6.49-18.03s-27.9-27.63-37.35-36.58c-2.5-2.37-7.33-4.79-11.6-4.17-9.91,1.43-47.55,14.04-47.55,14.04l-1.15,31.08Z"/>
        <path class="cls-2" d="M82.76,282.3s4.77,3.36,10.57,3.1l4.72-.49-.92-4.25s-11.23,2.14-14.37,1.63Z"/>
        <path class="cls-6" d="M104.71,278.15s-.31.19-.91.45c-.6.26-1.48.6-2.58,1-2.19.78-5.28,1.77-8.79,2.42-3.51.66-6.78.76-9.11.51-.58-.04-1.11-.13-1.57-.21-.46-.07-.85-.15-1.17-.23-.64-.16-.98-.26-.97-.29.02-.09,1.43.23,3.74.37,2.31.15,5.51,0,8.99-.65,3.47-.64,6.55-1.57,8.77-2.26,2.21-.7,3.58-1.17,3.61-1.09Z"/>
        <path class="cls-6" d="M129.6,261.84c.15.04-.17,1.53-.26,3.39-.1,1.86.07,3.37-.08,3.4-.13.03-.54-1.5-.44-3.43.09-1.93.65-3.41.78-3.36Z"/>
      </g>
      <g>
        <g>
          <polygon class="cls-5" points="156.77 150.12 150.51 159.8 162.82 164.81 168.02 151 160.32 148.16 156.77 150.12"/>
          <path class="cls-5" d="M151.5,141.88s-.5-.79-.21-1.8,1.62-2.02,1.62-2.02c0,0,.5,3.03.41,3.08s-1.82.74-1.82.74Z"/>
          <path class="cls-5" d="M157.13,152.11l-4.49-7.33.27-6.01s-.23-4.49,1.92-5.24c0,0,1.3-.69,2.12.2,0,0,.24-1.13,1.94-1.06l1.19.66s.79-1.04,1.62-1.03,1.78.92,1.78.92c0,0,.43-.88,1.73-.5s2.68,2.79,3.04,3.62c.36.83,1.63,7.59,1.5,9.31-.13,1.72-2.01,6.02-2.01,6.02l-10.62.44Z"/>
          <path class="cls-8" d="M153.3,139.24s-2.15,2.01-2.6,2.59c-.45.59-.73,2.12-1.06,2.79s-1.3,1.47-.49,2.03c.81.56,1.89.17,2.48-.45s2.52-4.7,2.52-4.7l-.85-2.27Z"/>
          <path class="cls-8" d="M150.56,146.15s-.88,1.26-.51,2.78c.37,1.52,1.99,1.41,1.99,1.41,0,0-.03,2.14,2.16,1.86,0,0-.6.66.51,1.11l3.16-4.06s.44-.37.42-1.67c0-.88-.42-2.29-1.61-1.93,0,0-.16-1.53-1.24-1.89s-1.39.4-1.39.4c0,0-.26-.57-1.12-.49-.86.08-2.37,2.48-2.37,2.48Z"/>
        </g>
        <g>
          <path class="cls-4" d="M107.49,205.72c-3.17-3.62-3.82-9.41-.1-13.5.59-.64,1.28-1.22,2.1-1.67,5.24-2.91,30.77-12.18,30.77-12.18l13.07-25.06,13.82,3.17s-10.28,31.64-17.93,36.33c-8.78,5.38-24.02,13.68-29.57,15.42"/>
          <path class="cls-1" d="M119.65,208.23s.11-.06.35-.15c.23-.09.58-.21,1.03-.4.89-.37,2.21-.93,3.87-1.73,3.33-1.59,8.1-4.05,13.92-7.31,2.91-1.63,6.09-3.45,9.45-5.5.87-.5,1.65-1.05,2.36-1.77.7-.72,1.34-1.52,1.95-2.38,1.22-1.7,2.3-3.58,3.34-5.55,2.07-3.94,3.95-8.25,5.78-12.78,1.81-4.54,3.57-9.31,5.22-14.27l.19.33c-2.91-.67-6-1.38-9.12-2.09-1.58-.36-3.14-.72-4.7-1.08l.29-.13c-4.63,8.87-9.04,17.31-13.09,25.05l-.04.08-.09.03c-6.99,2.54-13.44,4.95-19.16,7.17-2.86,1.11-5.53,2.18-7.99,3.23-1.23.52-2.4,1.05-3.48,1.61-1.07.56-1.96,1.33-2.63,2.2-1.41,1.71-2,3.69-2.12,5.4-.09,1.73.25,3.19.67,4.31.89,2.24,1.91,3.15,1.84,3.19,0,0-.06-.05-.17-.18-.1-.12-.26-.3-.46-.55-.37-.51-.9-1.28-1.36-2.42-.45-1.12-.82-2.62-.75-4.38.05-.88.22-1.82.55-2.77.34-.95.87-1.9,1.56-2.79.68-.9,1.6-1.72,2.7-2.3,1.09-.58,2.26-1.12,3.49-1.65,2.45-1.07,5.13-2.16,7.98-3.29,5.71-2.25,12.15-4.69,19.14-7.25l-.13.11c4.03-7.75,8.43-16.2,13.05-25.07l.09-.18.2.05c1.55.36,3.12.72,4.7,1.08,3.12.72,6.21,1.43,9.12,2.1l.28.06-.09.27c-1.65,4.97-3.42,9.75-5.25,14.29-1.83,4.54-3.74,8.86-5.83,12.81-1.05,1.98-2.15,3.87-3.39,5.59-.62.86-1.28,1.68-2,2.42-.73.74-1.6,1.34-2.45,1.82-3.38,2.04-6.57,3.84-9.5,5.45-5.85,3.22-10.64,5.64-14,7.18-1.68.78-3.01,1.31-3.92,1.65-.45.17-.81.27-1.05.35-.24.07-.36.11-.36.1Z"/>
        </g>
      </g>
    </g>
    <g>
      <g>
        <path class="cls-1" d="M224.1,110.28c-2.22,1.32-31.74,22.61-34.27,29.86s6.92,59.69,6.92,59.69l21.03-1.02-5.59-49.84,42.01-24.88,2.83-25.98-32.94,12.18Z"/>
        <path class="cls-1" d="M248.96,121.13l23.6,25.38s3.23,11.55,6.02,19.1c2.82,7.66,7.43,20.13,7.43,20.13l5.08,16.72,16.42-3.63s-6.13-26.75-7.71-37.06-5.34-21.62-5.34-21.62l-13.05-33.02-14.22-18.57-18.22,32.58Z"/>
        <path class="cls-2" d="M211.54,119.49s18.43,7.07,24.54,5.8,16.3-16.31,16.3-16.31l14.97,15.19,18.21-6.52-1.46-5.86s-26.06-6.73-26.11-6.81c-.05-.08-9.44,0-9.44,0l-15.78,10.89-17.08.22-4.15,3.39Z"/>
        <g>
          <path class="cls-1" d="M300.97,185.93l5.43,17.18,8.21,12.35c.59.89.31,2.1-.62,2.63h0c-.52.3-1.15.33-1.69.07-3.45-1.61-15.86-7.53-16.46-8.86-.63-1.39-6.93-17.74-6.93-17.74l12.06-5.63Z"/>
          <path class="cls-4" d="M313.99,218.09l-18.54-9.94.25.72c.21.62.64,1.15,1.21,1.49,1.52.9,5.76,3.3,15.35,7.81.56.26,1.21.23,1.74-.09h0Z"/>
          <path class="cls-3" d="M307.55,211.97c.11.01.19-1.01,1.04-1.84.83-.85,1.85-.93,1.83-1.05,0-.05-.26-.11-.68-.03-.42.08-.97.33-1.44.79-.46.46-.71,1.02-.79,1.44-.08.42-.02.68.03.68Z"/>
          <path class="cls-3" d="M309.55,213.84c.11.05.46-.7,1.26-1.25.78-.57,1.6-.67,1.59-.78.02-.1-.92-.19-1.82.46-.9.64-1.13,1.56-1.03,1.57Z"/>
          <path class="cls-3" d="M304.29,209.81c.11.05.65-1.09,1.81-2.06,1.15-.99,2.36-1.34,2.33-1.45,0-.1-1.35.1-2.58,1.15-1.24,1.04-1.66,2.34-1.56,2.36Z"/>
          <path class="cls-3" d="M302.21,204.73c.08.09.89-.63,2.1-1.09,1.2-.48,2.28-.5,2.28-.62.02-.1-1.13-.26-2.43.25-1.3.5-2.04,1.4-1.95,1.46Z"/>
        </g>
        <path class="cls-6" d="M206.82,145.5c.01-.13,1.58.04,3.19,1.05,1.62,1,2.46,2.34,2.35,2.41-.12.1-1.09-1.02-2.62-1.96-1.52-.96-2.95-1.34-2.92-1.49Z"/>
        <path class="cls-6" d="M290.6,149.22s-.33.47-1.08.96c-.75.5-1.91,1.03-3.27,1.26-1.36.23-2.63.12-3.5-.09-.88-.21-1.37-.49-1.35-.54.04-.16,2.15.6,4.76.12,2.62-.43,4.35-1.85,4.44-1.71Z"/>
        <g>
          <path class="cls-1" d="M200.82,186.01l.7,15.92s-15.95,6.06-16.1,9.01l30.91-.25-1.19-22.71-14.32-1.97Z"/>
          <path class="cls-4" d="M216.33,210.69l-.11-2.5-29.6,1.17s-1.37.61-1.21,1.58l30.91-.25Z"/>
          <path class="cls-3" d="M201.02,201.77c0,.15.76.21,1.51.69.76.46,1.15,1.11,1.29,1.05.14-.03-.09-.93-1.01-1.5-.91-.57-1.82-.39-1.79-.25Z"/>
          <path class="cls-3" d="M197.79,203.14c-.03.15.62.4,1.14,1.03.54.62.67,1.31.82,1.3.14.02.24-.86-.42-1.64-.65-.78-1.54-.84-1.54-.69Z"/>
          <path class="cls-3" d="M195.98,207.03c.14.03.34-.72-.05-1.55-.39-.83-1.1-1.15-1.17-1.02-.08.12.38.56.69,1.25.33.67.38,1.31.53,1.32Z"/>
        </g>
      </g>
      <g>
        <path class="cls-12" d="M199.34,68.38l19.81,27.57,8.05,5.83-2.36,6.18-11.2,9.94s18.54,7.69,25.36,3.25c6.82-4.43,13.33-15.2,13.33-15.2l16.72,15.93,21-8.37s-9.18-18.32-21.89-28.77l-7.64-23.18-13.94-21.44-17.02,5.54-24.18,16.85-6.04,5.85Z"/>
        <path class="cls-3" d="M215.12,58.04c1.14,0,13.88,7.46,13.88,7.46l2.77-15.96-2.07-3.77,4.13,1.5,6.65,6.41,16.55,26.1c-1.19,6.64-5.26,16.51-5.37,20.06,0,0-17.59-1.5-21.63-10.05-4.04-8.55-12.64-23.99-12.64-23.99l-2.29-7.76Z"/>
        <path class="cls-12" d="M232.65,75.3c0,1.43,4.65,21.36,8.54,22.44,3.88,1.08,9.93,2.11,9.93,2.11v-9.58l-15.62-18.29-.47-4.89-5.73-.66-1.41,7.13,4.75,1.74Z"/>
        <path class="cls-12" d="M204.26,64.69s-3.85,3.38-4.92,3.7c-1.07.32-5.17,11.4-5.17,11.4l-10.49,26.05-18.45,24.63,10.39,9.68s23.28-23.48,24.92-29.8l11.45-23.71-7.72-21.95Z"/>
        <path class="cls-1" d="M252.37,104.98c-.06-.06.91-1.05,2.34-2.77,1.44-1.71,3.31-4.17,5.3-6.94,1.95-2.72,3.7-5.18,5.09-7.12.66-.9,1.21-1.63,1.6-2.12.39-.49.62-.75.65-.73.06.04-.71,1.2-1.95,3.06-1.25,1.86-2.97,4.43-4.97,7.21-2,2.78-3.93,5.21-5.45,6.87-.75.84-1.4,1.48-1.86,1.91-.46.43-.73.65-.76.62Z"/>
        <path class="cls-1" d="M240.26,101.3c-.01.07-1.14-.06-2.94-.39-1.8-.32-4.27-.85-6.97-1.57-2.7-.72-5.11-1.49-6.83-2.11-1.72-.62-2.76-1.06-2.74-1.13.03-.07,1.11.25,2.85.78,1.75.53,4.16,1.24,6.85,1.96,2.69.72,5.14,1.3,6.91,1.72,1.78.42,2.88.67,2.86.75Z"/>
        <path class="cls-1" d="M203.68,76.19s.27.23.69.71c.42.48,1,1.19,1.72,2.07,1.44,1.76,3.39,4.21,5.53,6.94,2.14,2.73,4.05,5.22,5.41,7.04.68.91,1.22,1.65,1.59,2.17.37.52.55.82.53.84-.03.02-.27-.23-.69-.72-.42-.48-1-1.19-1.72-2.07-1.44-1.76-3.39-4.21-5.53-6.94-2.13-2.73-4.04-5.22-5.41-7.03-.68-.91-1.23-1.65-1.59-2.17-.37-.52-.56-.82-.53-.84Z"/>
        <path class="cls-1" d="M238.53,52.12c.07,0,.09,1.35.05,3.51-.04,2.17-.12,5.16-.25,8.47-.05,1.15-.09,2.25-.14,3.29v.27s-.25-.03-.25-.03c-2.51-.29-4.67-.56-6.21-.78-1.53-.21-2.44-.37-2.43-.43,0-.06.92-.01,2.46.11,1.53.13,3.69.33,6.17.59l-.24.24c.04-1.04.08-2.14.12-3.29.13-3.3.27-6.3.4-8.46.13-2.16.25-3.5.32-3.5Z"/>
        <path class="cls-1" d="M218.82,68.71c.04-.06.96.46,2.41,1.35,1.45.89,3.44,2.15,5.62,3.57.34.22.67.44.99.65l-.39.14c.6-2.2.96-4.25,1.28-5.69.3-1.45.51-2.32.57-2.31.06.01-.02.91-.23,2.37-.23,1.47-.52,3.49-1.12,5.78l-.09.33-.3-.19c-.32-.21-.65-.42-.99-.64-2.18-1.42-4.14-2.73-5.54-3.7-1.4-.97-2.25-1.6-2.21-1.66Z"/>
        <path class="cls-12" d="M246.51,40.15s4.61-1.55,7.05-.44c4.71,2.14,35.22,18.56,36.48,19.44s17.82,27.58,17.82,27.58l-11.35,7.03-16.18-22.22-29.5-11.08s-4.47-5.76-5.18-10.61c-.72-4.85.86-9.69.86-9.69Z"/>
        <path class="cls-1" d="M260.52,61.58c.07-.02.48,1.22,1.19,3.21.77,2.12,1.73,4.8,2.8,7.76,2.21,6.05,3.89,11.03,3.64,11.1-.04,0-.13-.3-.35-.85-.25-.66-.55-1.44-.89-2.33-.76-1.97-1.79-4.7-2.89-7.74-1.1-3.03-2.04-5.8-2.66-7.82-.31-1.01-.54-1.84-.68-2.41-.14-.58-.2-.9-.16-.91Z"/>
        <path class="cls-1" d="M254.67,55.04s-.64-.46-1.48-1.42c-.83-.95-1.88-2.37-2.79-4.07-.91-1.71-1.52-3.36-1.85-4.58-.33-1.22-.43-2-.37-2.01.16-.04.86,3,2.68,6.34,1.79,3.36,3.93,5.63,3.81,5.73Z"/>
        <path class="cls-1" d="M249.95,103.67c0,.07-1.02.27-2.69.45-1.68.18-4.01.31-6.58.24-2.58-.08-4.9-.34-6.56-.62-1.66-.28-2.67-.54-2.66-.61.01-.08,1.04.06,2.71.24,1.67.18,3.97.39,6.52.47,2.55.07,4.87,0,6.54-.08,1.67-.09,2.71-.16,2.72-.08Z"/>
        <path class="cls-1" d="M232.77,46.88s.15,0,.43.02c.28.04.71.03,1.25.16,1.07.25,2.61.77,4.38,1.78,3.53,2.02,7.98,5.72,12.48,10.76l.15.16-.16.16c-.68.69-1.41,1.44-2.16,2.21l-.18-.42c.84,0,1.74,0,2.66,0h.17s.06.16.06.16c.9,2.32,1.83,4.75,2.79,7.24,1.08,2.81,2.13,5.54,3.11,8.11l.02.05v.05c-.28,4.04-1.6,7.6-2.74,10.73-1.17,3.13-2.17,5.92-2.7,8.31-.55,2.39-.66,4.36-.61,5.71.05,1.35.19,2.07.15,2.08-.01,0-.06-.18-.13-.52-.07-.35-.15-.87-.19-1.54-.1-1.35-.04-3.35.47-5.78.49-2.43,1.46-5.26,2.6-8.39,1.11-3.14,2.39-6.67,2.64-10.61l.02.11c-.99-2.57-2.04-5.3-3.13-8.11-.96-2.49-1.89-4.92-2.78-7.24l.24.16c-.92,0-1.82,0-2.66,0h-.6s.42-.42.42-.42c.75-.76,1.49-1.5,2.17-2.2v.33c-4.44-5.02-8.83-8.76-12.27-10.82-1.73-1.03-3.22-1.59-4.26-1.88-1.06-.23-1.65-.28-1.64-.33Z"/>
        <path class="cls-1" d="M213.24,87.27c0,.14-3,.42-6.72.62-3.72.2-6.74.24-6.75.1,0-.14,3-.42,6.72-.62,3.72-.2,6.74-.24,6.75-.1Z"/>
        <path class="cls-1" d="M236.5,97.5s-.15,0-.43-.06c-.28-.07-.7-.12-1.22-.31-1.06-.29-2.55-.91-4.26-1.94-1.72-1.03-3.6-2.53-5.55-4.37-1.94-1.85-3.96-4.04-6.08-6.38l-.16-.18.17-.17c.83-.87,1.55-1.95,2.48-2.93l.31.41c-.26.14-.54.29-.82.44-1.05.57-2.09,1.13-3.07,1.66l-.28.15-.09-.3c-1.99-6.34-3.11-12.14-3.67-16.31-.28-2.09-.45-3.77-.53-4.94-.05-.58-.07-1.03-.08-1.34-.01-.31,0-.47,0-.47s.05.16.09.46c.05.36.1.79.17,1.33.14,1.15.36,2.83.69,4.9.65,4.15,1.82,9.9,3.82,16.21l-.37-.15c.98-.53,2.02-1.09,3.07-1.67.28-.15.56-.3.82-.44l1.46-.79-1.14,1.2c-.89.93-1.61,2.02-2.48,2.93v-.35c2.12,2.34,4.11,4.54,6.02,6.4,1.91,1.85,3.75,3.36,5.41,4.41,3.34,2.14,5.79,2.47,5.74,2.59Z"/>
        <path class="cls-1" d="M251.27,99.84c0,.07-1.1,0-2.85-.25-1.75-.25-4.17-.67-6.76-1.47-2.6-.79-4.83-1.86-6.35-2.78-1.52-.92-2.37-1.62-2.33-1.67.05-.07.96.53,2.51,1.35,1.55.83,3.76,1.82,6.32,2.6,5.13,1.54,9.49,2.02,9.46,2.22Z"/>
        <g class="cls-2">
          <path d="M253.66,103.84c3.38-.97,6.42-3.07,8.52-5.89,2.11-2.81,3.27-6.32,3.25-9.83"/>
        </g>
        <g class="cls-2">
          <path d="M241.61,50.64c4.36,2.25,8.21,5.5,11.15,9.43-.35.17-.63.47-.77.83l1.45.41c1.05,4.3,2.1,8.6,3.14,12.9-1.68-4.22-3.35-8.44-5.03-12.66-.8.08-1.6.16-2.4.25.75-.66,1.5-1.31,2.25-1.97-2.73-2.35-5.22-4.99-7.4-7.86"/>
        </g>
        <polyline class="cls-2" points="221.5 70.46 229.31 77.64 230.52 67.82 239.88 68.4 238.53 56.36 237.97 66.53 229.31 66.05 227.7 74.5"/>
        <polygon class="cls-2" points="261.39 64.42 258.73 56.36 264.33 65.53 261.39 64.42"/>
        <path class="cls-1" d="M285.37,63.22c.06.14-1.19.63-2.04,1.95-.88,1.3-.84,2.65-.99,2.65-.06,0-.17-.33-.15-.89.02-.56.23-1.33.7-2.05.47-.72,1.1-1.21,1.61-1.45.5-.25.85-.28.87-.22Z"/>
      </g>
      <g>
        <path class="cls-1" d="M202.11,17.22c-1.22-.69-2.88-.5-3.9.47-2.06-.2-4.16,1.22-4.74,3.2-1.42.06-2.78.9-3.46,2.15-.68,1.25-.66,2.85.06,4.08-1.32.58-2.18,2.06-2.04,3.49.14,1.43,1.27,2.72,2.67,3.04-1.03,1.26-.92,3.3.23,4.45,1.15,1.15,3.19,1.25,4.45.22l8.33-17.48c.31-1.37-.37-2.9-1.59-3.6Z"/>
        <g>
          <g>
            <path class="cls-8" d="M195.22,38.95c-3.48-6.46-1.41-14.51,4.75-18.5l.61-.4c6.85-3.89,13.98-.24,17.67,6.72l11.44,18.99,2.08,3.66-2.33,15.7-12.32-4.69-1.84-2.67s-6.99,3.12-11.17-3.18c-2.02-3.04-5.67-9.64-8.91-15.65Z"/>
            <path class="cls-10" d="M215.31,57.78s4.14-2.36,6.67-7.79c0,0,1.02,5.84-5.61,9.34l-1.06-1.55Z"/>
            <path class="cls-1" d="M200.86,43.64c.29.49.95.65,1.47.35.52-.3.7-.93.41-1.42-.29-.49-.95-.65-1.46-.35-.52.3-.7.93-.41,1.42Z"/>
            <path class="cls-1" d="M198.73,41.54c.19.05.55-.91,1.52-1.54.97-.64,2.01-.6,2.04-.79.02-.09-.23-.23-.69-.25-.45-.03-1.12.09-1.72.49-.61.4-.97.95-1.12,1.37-.15.42-.11.7-.02.72Z"/>
            <path class="cls-1" d="M209.49,38.65c.29.49.95.65,1.47.35.52-.3.7-.93.41-1.42-.29-.49-.95-.65-1.46-.35-.52.3-.7.93-.41,1.42Z"/>
            <path class="cls-1" d="M207.97,35.37c.19.05.55-.91,1.52-1.54.97-.64,2.01-.6,2.04-.79.02-.09-.23-.23-.69-.25-.45-.03-1.12.09-1.72.49-.61.4-.97.95-1.12,1.37-.15.42-.11.7-.02.72Z"/>
            <path class="cls-1" d="M209.44,44.68c-.03-.06-.71.23-1.77.74-.27.14-.53.24-.69.1-.17-.14-.24-.48-.31-.85-.16-.75-.32-1.54-.49-2.37-.72-3.36-1.42-6.06-1.55-6.03-.14.03.34,2.78,1.07,6.14.18.82.36,1.61.53,2.36.09.34.13.77.5,1.06.19.14.46.16.64.1.19-.05.33-.14.46-.21,1.02-.59,1.64-.98,1.61-1.04Z"/>
            <path class="cls-1" d="M206.16,32.59c.28.18.97-.59,2-1.24,1.02-.67,2.02-.98,1.96-1.3-.03-.15-.35-.27-.85-.25-.49.01-1.16.19-1.77.58-.61.39-1.04.92-1.25,1.35-.21.44-.22.77-.09.86Z"/>
            <path class="cls-1" d="M197.22,38.72c.3.14.88-.48,1.72-.95.83-.5,1.65-.68,1.68-1.02,0-.16-.23-.33-.66-.38-.43-.05-1.04.04-1.61.37-.57.33-.96.81-1.13,1.21-.17.4-.14.69,0,.76Z"/>
            <path class="cls-1" d="M193.95,35.65s-.9-5.06.42-7.22c1.59-2.62,4.24-.72,6.05-2.77,1.81-2.05,3.33-4.56,6.69-4.31,3.68.27,3.37,2.33,5.35,5.05,8,11.02,12.18,12.9,9.29,7.13-.32-.63,1.02-2.16-.35-4.8-1.77-3.43-4.19-7.43-6.39-9.26-1.86-1.54-3.82-2.16-6.74-2.35-4.62-.31-8.93,2.41-11.65,4.59-2.72,2.17-6.16,9.14-2.67,13.95Z"/>
            <path class="cls-8" d="M221.24,33.61c-.59-1.01-.25-2.32.79-2.86,1.26-.65,3.01-.83,4.51,1.66,2.67,4.43-2.33,6.19-2.41,6.07-.06-.08-1.79-3.01-2.89-4.87Z"/>
            <path class="cls-10" d="M224.08,36.24s.11,0,.28-.01c.16-.02.4-.11.58-.34.36-.45.31-1.43-.15-2.24-.23-.41-.55-.74-.88-.97-.33-.24-.68-.34-.94-.24-.27.09-.35.33-.33.49.02.16.1.23.08.25,0,.02-.14-.02-.21-.22-.03-.1-.05-.23,0-.38.05-.15.18-.29.36-.37.36-.18.85-.05,1.22.2.39.24.75.61,1.01,1.07.51.91.56,2.02.03,2.59-.26.27-.58.33-.78.31-.2-.03-.29-.11-.28-.13Z"/>
          </g>
          <path class="cls-1" d="M215.72,25.26c-.31.75-.65,1.53-1.29,2.04-.64.51-1.66.62-2.21.02-.25-.27-.4-.67-.75-.77-.42-.13-.8.24-1.14.52-1.17.95-3.04.89-4.16-.13-.01.69-.77,1.15-1.46,1.16-.69,0-1.34-.31-2-.5-.66-.19-1.45-.23-1.97.22-.29.25-.47.64-.81.82-.6.32-1.31-.17-1.76-.68-.45-.51-.95-1.13-1.63-1.12-.63,0-1.1.54-1.58.96-.47.42-1.23.73-1.7.31-.24-.22-.31-.58-.31-.91-.01-1.5,1.16-2.93,2.63-3.21-.5-1.71.12-3.69,1.5-4.81,1.39-1.12,3.45-1.31,5.02-.45.38-1.43,1.49-2.64,2.87-3.14,1.39-.51,3.01-.29,4.22.55.88-.96,2.34-1.33,3.57-.9,1.23.43,2.14,1.64,2.23,2.93,1.07-.06,2.24.28,2.83,1.17.6.89.3,2.35-.72,2.67.8.47,1.13,1.61.71,2.43-.42.83-1.54,1.22-2.39.85"/>
        </g>
        <path class="cls-10" d="M212.86,44.67c.06-.1.13-.21.25-.24.1-.02.21.03.3.09.73.48,1.19,1.35,1.16,2.23,0,0,0,.02,0,.03-.06,1.28-1.53,1.98-2.63,1.32l-.82-.49c.4-.67,1.35-2.27,1.74-2.94Z"/>
        <path class="cls-1" d="M212.41,48.29s.58.25,1.42-.18c.2-.1.42-.3.56-.53.15-.22.29-.51.3-.83.02-.64-.23-1.29-.63-1.85-.1-.14-.2-.27-.33-.41-.13-.12-.29-.27-.55-.26-.26.02-.41.23-.48.36-.07.13-.15.26-.22.39-.26.48-.5.93-.73,1.35-.41.78-.64,1.27-.6,1.29s.35-.43.81-1.17c.25-.41.51-.85.79-1.32.15-.23.3-.59.44-.57.17-.01.4.27.57.53.37.52.6,1.12.6,1.64,0,.26-.1.49-.23.7-.12.22-.26.36-.44.47-.72.44-1.3.34-1.3.39Z"/>
        <path class="cls-6" d="M217.4,21.78s.32.31.27,1.01c-.03.34-.18.76-.53,1.08-.35.32-.89.53-1.47.44l.17-.15c.03.51-.01,1.08-.17,1.64-.1.36-.25.71-.47,1-.21.3-.53.52-.82.65-.59.3-1.26.31-1.72.09-.46-.2-.75-.49-.94-.68-.19-.19-.27-.32-.26-.33.02-.02.13.08.34.24.21.16.51.41.93.57.81.36,2.36-.19,2.65-1.63.15-.53.19-1.06.17-1.55v-.18s.17.03.17.03c.48.09.95-.08,1.26-.34.32-.26.47-.62.52-.92.09-.62-.14-.97-.09-.99Z"/>
        <path class="cls-6" d="M202.8,17.18s-.09.1-.23.31c-.14.21-.31.55-.3,1.01v.12s-.11-.04-.11-.04c-.76-.28-1.89-.54-3.2-.34-.65.1-1.33.33-1.95.73-.62.4-1.15.99-1.5,1.71-.27.56-.41,1.16-.42,1.74,0,.58.13,1.14.37,1.62l.07.15-.15.05c-.77.24-1.35.8-1.66,1.39-.32.59-.36,1.21-.3,1.7.14.99.61,1.44.56,1.46,0,0-.12-.09-.28-.32-.15-.23-.35-.6-.44-1.11-.09-.51-.07-1.17.26-1.83.32-.64.94-1.26,1.78-1.54l-.08.19c-.27-.51-.42-1.12-.42-1.75,0-.63.16-1.27.45-1.87.37-.77.94-1.41,1.61-1.83.66-.42,1.39-.65,2.07-.75,1.37-.18,2.53.12,3.29.45l-.11.07c.02-.51.23-.86.4-1.06.17-.2.3-.27.3-.26Z"/>
      </g>
    </g>
  </g>
</svg>